SplineFontDB: 3.2
FontName: ArundinaSans-Oblique
FullName: Arundina Sans Oblique
FamilyName: Arundina Sans
Weight: Book
Copyright: Copyright (c) 2003 by Bitstream, Inc. All Rights Reserved.\nCopyright (c) 2007 by Software Industry Promotion Agency (Public Organization). All Rights Reserved.
Version: 2.07
ItalicAngle: -10.9
UnderlinePosition: -153
UnderlineWidth: 102
Ascent: 1638
Descent: 410
InvalidEm: 0
LayerCount: 3
Layer: 0 0 "Back" 1
Layer: 1 1 "Fore" 0
Layer: 2 0 "Cube" 0
XUID: [1021 375 425136265 13002690]
FSType: 0
OS2Version: 2
OS2_WeightWidthSlopeOnly: 0
OS2_UseTypoMetrics: 1
CreationTime: 1130778780
ModificationTime: 1769251918
PfmFamily: 33
TTFWeight: 400
TTFWidth: 5
LineGap: 0
VLineGap: 0
Panose: 2 11 3 0 2 2 2 2 2 4
OS2TypoAscent: 2488
OS2TypoAOffset: 0
OS2TypoDescent: -1067
OS2TypoDOffset: 0
OS2TypoLinegap: 0
OS2WinAscent: 0
OS2WinAOffset: 1
OS2WinDescent: 0
OS2WinDOffset: 1
HheadAscent: 0
HheadAOffset: 1
HheadDescent: 0
HheadDOffset: 1
OS2SubXSize: 1434
OS2SubYSize: 1331
OS2SubXOff: 0
OS2SubYOff: 287
OS2SupXSize: 1434
OS2SupYSize: 1331
OS2SupXOff: 0
OS2SupYOff: 977
OS2StrikeYSize: 102
OS2StrikeYPos: 512
OS2FamilyClass: 2050
OS2Vendor: 'BLWK'
Lookup: 4 0 0 "'frac' Diagonal Fractions in Latin lookup 0" { "'frac' Diagonal Fractions in Latin lookup 0 subtable"  } ['frac' ('latn' <'dflt' > ) ]
Lookup: 6 0 0 "'liga' Standard Ligatures in Latin lookup 1" { "'liga' Standard Ligatures in Latin lookup 1 subtable"  } ['liga' ('latn' <'dflt' > 'thai' <'dflt' > ) ]
Lookup: 6 0 0 "'liga' Standard Ligatures in Latin lookup 2" { "'liga' Standard Ligatures in Latin lookup 2 subtable"  } ['liga' ('latn' <'dflt' > 'thai' <'dflt' > ) ]
Lookup: 6 0 0 "'liga' Standard Ligatures in Latin lookup 3" { "'liga' Standard Ligatures in Latin lookup 3 subtable"  } ['liga' ('latn' <'dflt' > 'thai' <'dflt' > ) ]
Lookup: 6 0 0 "'liga' Standard Ligatures in Latin lookup 4" { "'liga' Standard Ligatures in Latin lookup 4 subtable"  } ['liga' ('latn' <'dflt' > 'thai' <'dflt' > ) ]

StartChar: .notdef
Encoding: 389 -1 0
Width: 1229
VWidth: 3555
Flags: MW
HStem: -363 115<-7 786> 1330 118<299 1092>
DStem2: -146 -363 -29.1455 -363 0.189095 0.981959<139.21 1746.6> 763.854 -363 878 -363 0.189095 0.981959<117.113 1724.51>
LayerCount: 3
Fore
SplineSet
207 1448 m 1,0,-1
 1231 1448 l 1,1,-1
 878 -363 l 1,2,-1
 -146 -363 l 1,3,-1
 207 1448 l 1,0,-1
786 -248 m 1,4,-1
 1092 1330 l 1,5,-1
 299 1330 l 1,6,-1
 -7 -248 l 1,7,-1
 786 -248 l 1,4,-1
EndSplineSet
Layer: 2
SplineSet
207 1448 m 1
 1231 1448 l 1
 878 -363 l 1
 -146 -363 l 1
 207 1448 l 1
786 -248 m 1
 1092 1330 l 1
 299 1330 l 1
 -7 -248 l 1
 786 -248 l 1
EndSplineSet
EndChar

StartChar: exclam
Encoding: 2 33 4
Width: 824
VWidth: 3555
Flags: W
HStem: 0 252<177 335> 1473 20G<416.092 621>
VStem: 132 203<0 203> 177 203<49 252> 245 165<479 539.549> 420 201<1292 1493>
DStem2: 132 0 335 0 0.189095 0.981959<38.3864 255.963 522.927 1520.52>
LayerCount: 3
Fore
SplineSet
380 252 m 1,0,-1
 335 0 l 1,1,-1
 132 0 l 1,2,-1
 177 252 l 1,3,-1
 380 252 l 1,0,-1
621 1493 m 1,4,-1
 495 838 l 1,5,-1
 410 479 l 1,6,-1
 245 479 l 1,7,-1
 292 838 l 1,8,-1
 420 1493 l 1,9,-1
 621 1493 l 1,4,-1
EndSplineSet
Layer: 2
SplineSet
380 252 m 1xd4
 335 0 l 1
 132 0 l 1xe4
 177 252 l 1
 380 252 l 1xd4
621 1493 m 1
 495 838 l 1
 410 479 l 1
 245 479 l 1xcc
 292 838 l 1
 420 1493 l 1
 621 1493 l 1
EndSplineSet
EndChar

StartChar: quotedbl
Encoding: 3 34 5
Width: 944
VWidth: 3555
Flags: W
HStem: 939 554<686 750 1063 1127>
VStem: 203 170<939 1109> 309 170<1323 1493> 580 170<939 1109> 686 172<1321 1493>
DStem2: 203 939 373 939 0.189095 0.981959<32.1462 564.049> 580 939 750 939 0.189095 0.981959<32.1462 564.049>
LayerCount: 3
Fore
SplineSet
373 939 m 1,0,-1
 203 939 l 1,1,-1
 309 1493 l 1,2,-1
 479 1493 l 1,3,-1
 373 939 l 1,0,-1
750 939 m 1,4,-1
 580 939 l 1,5,-1
 686 1493 l 1,6,-1
 858 1493 l 1,7,-1
 750 939 l 1,4,-1
EndSplineSet
Layer: 2
SplineSet
373 939 m 1xc0
 203 939 l 1xc0
 309 1493 l 1
 479 1493 l 1xa0
 373 939 l 1xc0
750 939 m 1x90
 580 939 l 1x90
 686 1493 l 1
 858 1493 l 1x88
 750 939 l 1x90
EndSplineSet
EndChar

StartChar: numbersign
Encoding: 4 35 6
Width: 1716
VWidth: 3555
Flags: W
HStem: 0 21G<193 360.765 648 815.765> 413 156<89 373 608 828 1059 1347> 903 156<295 594 821 1045 1272 1557>
DStem2: 193 0 352 0 0.404466 0.914553<64.3101 450.514 688.234 988.032 1222.52 1608.72> 648 0 807 0 0.404466 0.914553<64.3101 450.514 686.616 986.414 1220.9 1609.53>
LayerCount: 3
Fore
SplineSet
753 903 m 1,0,-1
 608 569 l 1,1,-1
 899 569 l 1,2,-1
 1045 903 l 1,3,-1
 753 903 l 1,0,-1
821 1059 m 1,4,-1
 1113 1059 l 1,5,-1
 1299 1472 l 1,6,-1
 1458 1472 l 1,7,-1
 1272 1059 l 1,8,-1
 1585 1059 l 1,9,-1
 1557 903 l 1,10,-1
 1205 903 l 1,11,-1
 1059 569 l 1,12,-1
 1380 569 l 1,13,-1
 1347 413 l 1,14,-1
 988 413 l 1,15,-1
 807 0 l 1,16,-1
 648 0 l 1,17,-1
 828 413 l 1,18,-1
 533 413 l 1,19,-1
 352 0 l 1,20,-1
 193 0 l 1,21,-1
 373 413 l 1,22,-1
 57 413 l 1,23,-1
 89 569 l 1,24,-1
 444 569 l 1,25,-1
 594 903 l 1,26,-1
 267 903 l 1,27,-1
 295 1059 l 1,28,-1
 658 1059 l 1,29,-1
 842 1472 l 1,30,-1
 1003 1472 l 1,31,-1
 821 1059 l 1,4,-1
EndSplineSet
Layer: 2
SplineSet
753 903 m 1
 608 569 l 1
 899 569 l 1
 1045 903 l 1
 753 903 l 1
821 1059 m 1
 1113 1059 l 1
 1299 1472 l 1
 1458 1472 l 1
 1272 1059 l 1
 1585 1059 l 1
 1557 903 l 1
 1205 903 l 1
 1059 569 l 1
 1380 569 l 1
 1347 413 l 1
 988 413 l 1
 807 0 l 1
 648 0 l 1
 828 413 l 1
 533 413 l 1
 352 0 l 1
 193 0 l 1
 373 413 l 1
 57 413 l 1
 89 569 l 1
 444 569 l 1
 594 903 l 1
 267 903 l 1
 295 1059 l 1
 658 1059 l 1
 842 1472 l 1
 1003 1472 l 1
 821 1059 l 1
EndSplineSet
EndChar

StartChar: dollar
Encoding: 5 36 7
Width: 1303
VWidth: 3555
Flags: W
HStem: 0 142<199.912 417 540 694.718> 1180 146<477.992 644 771 972.415>
VStem: 167 194<827.949 1072.02> 356 99<-302 -203> 719 99<1458 1557> 844 192<264.869 512.279>
DStem2: 356 -302 455 -302 0.189095 0.981959<18.7204 308.086 474.711 916.954 1093.64 1513.65 1677.1 1894.1>
LayerCount: 3
Fore
SplineSet
356 -302 m 1,0,-1
 417 0 l 1,1,2
 211 0 211 0 7 92 c 1,3,-1
 40 271 l 1,4,5
 135 209 135 209 228.5 175.5 c 128,-1,6
 322 142 322 142 441 142 c 1,7,-1
 529 601 l 1,8,9
 316 632 316 632 241.5 704 c 128,-1,10
 167 776 167 776 167 887 c 259,11,12
 167 1092 167 1092 312 1200.5 c 128,-1,13
 457 1309 457 1309 672 1323 c 1,14,-1
 719 1557 l 1,15,-1
 818 1557 l 1,16,-1
 771 1326 l 1,17,18
 957 1320 957 1320 1113 1262 c 1,19,-1
 1078 1088 l 1,20,21
 920 1174 920 1174 743 1180 c 1,22,-1
 661 753 l 1,23,24
 831 726 831 726 933.5 665 c 128,-1,25
 1036 604 1036 604 1036 458 c 259,26,27
 1036 241 1036 241 887 128.5 c 128,-1,28
 738 16 738 16 516 0 c 1,29,-1
 455 -302 l 1,30,-1
 356 -302 l 1,0,-1
644 1184 m 1,31,32
 361 1150 361 1150 361 931 c 259,33,34
 361 853 361 853 415.5 819 c 128,-1,35
 470 785 470 785 562 767 c 1,36,-1
 644 1184 l 1,31,32
540 146 m 1,37,38
 844 178 844 178 844 410 c 259,39,40
 844 491 844 491 783.5 526 c 128,-1,41
 723 561 723 561 625 580 c 1,42,-1
 540 146 l 1,37,38
EndSplineSet
Layer: 2
SplineSet
356 -302 m 1xdc
 417 0 l 1
 279 0 142 31 7 92 c 1
 40 271 l 1
 151 198 270 142 441 142 c 1
 529 601 l 1
 326 632 167 691 167 887 c 3xec
 167 1167 398 1304 672 1323 c 1
 719 1557 l 1
 818 1557 l 1
 771 1326 l 1
 905 1322 1009 1301 1113 1262 c 1
 1078 1088 l 1
 973 1145 861 1176 743 1180 c 1
 661 753 l 1
 871 720 1036 661 1036 458 c 3
 1036 161 803 22 516 0 c 1
 455 -302 l 1
 356 -302 l 1xdc
644 1184 m 1
 470 1164 361 1085 361 931 c 3
 361 822 450 788 562 767 c 1
 644 1184 l 1
540 146 m 1
 730 166 844 248 844 410 c 3
 844 523 744 557 625 580 c 1
 540 146 l 1
EndSplineSet
EndChar

StartChar: percent
Encoding: 6 37 8
Width: 1947
VWidth: 3555
Flags: W
HStem: -28 127<1226.99 1448.79> 658 125<1319.25 1539.21> 708 127<338.501 559.187> 1394 128<432.215 647.973>
VStem: 140 157<876.545 1227.21> 245 156<-28 128> 693 164<1004.79 1351> 1026 162<139.167 497.97> 1479 160<1362 1522> 1584 157<265.707 614.094>
DStem2: 245 -28 401 -28 0.62408 0.78136<97.3565 1981.22>
LayerCount: 3
Fore
SplineSet
1188 277 m 259,0,1
 1188 99 1188 99 1330 99 c 259,2,3
 1436 99 1436 99 1510 209.5 c 128,-1,4
 1584 320 1584 320 1584 480 c 259,5,6
 1584 559 1584 559 1544.5 608.5 c 128,-1,7
 1505 658 1505 658 1436 658 c 259,8,9
 1337 658 1337 658 1262.5 553.5 c 128,-1,10
 1188 449 1188 449 1188 277 c 259,0,1
1305 -28 m 259,11,12
 1173 -28 1173 -28 1099.5 49.5 c 128,-1,13
 1026 127 1026 127 1026 263 c 259,14,15
 1026 477 1026 477 1144.5 630 c 128,-1,16
 1263 783 1263 783 1462 783 c 259,17,18
 1592 783 1592 783 1666.5 709 c 128,-1,19
 1741 635 1741 635 1741 502 c 259,20,21
 1741 360 1741 360 1690 240.5 c 128,-1,22
 1639 121 1639 121 1538 46.5 c 128,-1,23
 1437 -28 1437 -28 1305 -28 c 259,11,12
693 1213 m 259,24,25
 693 1294 693 1294 655.5 1344 c 128,-1,26
 618 1394 618 1394 550 1394 c 259,27,28
 434 1394 434 1394 365.5 1273.5 c 128,-1,29
 297 1153 297 1153 297 1011 c 259,30,31
 297 930 297 930 333.5 882.5 c 128,-1,32
 370 835 370 835 441 835 c 259,33,34
 546 835 546 835 619.5 950.5 c 128,-1,35
 693 1066 693 1066 693 1213 c 259,24,25
1639 1522 m 1,36,-1
 401 -28 l 1,37,-1
 245 -28 l 1,38,-1
 1479 1522 l 1,39,-1
 1639 1522 l 1,36,-1
417 708 m 259,40,41
 284 708 284 708 212 782 c 128,-1,42
 140 856 140 856 140 991 c 259,43,44
 140 1216 140 1216 259.5 1369 c 128,-1,45
 379 1522 379 1522 576 1522 c 259,46,47
 709 1522 709 1522 783 1447 c 128,-1,48
 857 1372 857 1372 857 1236 c 259,49,50
 857 1018 857 1018 733.5 863 c 128,-1,51
 610 708 610 708 417 708 c 259,40,41
EndSplineSet
Layer: 2
SplineSet
1584 480 m 3xd340
 1584 584 1530 658 1436 658 c 3
 1271 658 1188 456 1188 277 c 3
 1188 171 1231 99 1330 99 c 3
 1496 99 1584 301 1584 480 c 3xd340
1305 -28 m 259
 1128 -28 1026 82 1026 263 c 3
 1026 544 1194 783 1462 783 c 259
 1635 783 1741 680 1741 502 c 3
 1741 221 1577 -28 1305 -28 c 259
693 1213 m 3
 693 1317 644 1394 550 1394 c 3
 385 1394 297 1188 297 1011 c 3
 297 907 344 835 441 835 c 3xbb
 602 835 693 1037 693 1213 c 3
1639 1522 m 1x9780
 401 -28 l 1
 245 -28 l 1
 1479 1522 l 1
 1639 1522 l 1x9780
417 708 m 259xbb
 240 708 140 811 140 991 c 3
 140 1276 305 1522 576 1522 c 259
 753 1522 857 1418 857 1236 c 3
 857 948 689 708 417 708 c 259xbb
EndSplineSet
EndChar

StartChar: ampersand
Encoding: 7 38 9
Width: 1598
VWidth: 3555
Flags: W
HStem: -28 160<362.777 743.692> 0 21G<1092.42 1358> 1364 158<650.828 1007.89>
VStem: 29 199<256.346 581.895> 340 193<1000.5 1258.32> 1259 180<624 804>
DStem2: 641 917 476 807 0.615961 -0.787777<-14.4452 659.008 819.09 1010.66>
LayerCount: 3
Fore
SplineSet
228 404 m 259,0,1
 228 277 228 277 317 204.5 c 128,-1,2
 406 132 406 132 543 132 c 259,3,4
 721 132 721 132 899 260 c 1,5,-1
 476 807 l 1,6,7
 292.001588936 667.337604467 292.001588936 667.337604467 260.000794468 571.168802233 c 128,-1,8
 228 475 228 475 228 404 c 259,0,1
495 -28 m 259,9,10
 249 -28 249 -28 139 90 c 128,-1,11
 29 208 29 208 29 355 c 259,12,13
 29 539 29 539 118.5 668.5 c 128,-1,14
 208 798 208 798 394 917 c 1,15,16
 340 1013 340 1013 340 1106 c 259,17,18
 340 1274 340 1274 476 1398 c 128,-1,19
 612 1522 612 1522 825 1522 c 259,20,21
 979 1522 979 1522 1144 1451 c 1,22,-1
 1109 1266 l 1,23,24
 952 1364 952 1364 811 1364 c 259,25,26
 699 1364 699 1364 616 1299 c 128,-1,27
 533 1234 533 1234 533 1133 c 259,28,29
 533 1066.16370503 533 1066.16370503 561.797276839 1024.4266808 c 128,-1,30
 590.594553678 982.689656576 590.594553678 982.689656576 641 917 c 2,31,-1
 1042 394 l 1,32,33
 1192 562 1192 562 1259 804 c 1,34,-1
 1439 804 l 1,35,36
 1373 535.5 1373 535.5 1130 285 c 1,37,-1
 1358 0 l 1,38,-1
 1109 0 l 1,39,-1
 988 146 l 1,40,41
 747 -28 747 -28 495 -28 c 259,9,10
EndSplineSet
Layer: 2
SplineSet
228 404 m 3xbc
 228 230 367 132 543 132 c 3
 662 132 781 175 899 260 c 1
 476 807 l 1
 346 708 228 602 228 404 c 3xbc
495 -28 m 3
 233 -28 29 99 29 355 c 3
 29 611 160 767 394 917 c 1
 358 981 340 1044 340 1106 c 3
 340 1359 570 1522 825 1522 c 3
 929 1522 1035 1498 1144 1451 c 1
 1109 1266 l 1
 1005 1331 906 1364 811 1364 c 3
 668 1364 533 1273 533 1133 c 3
 533 1041 577 1000 641 917 c 2
 1042 394 l 1
 1144 508 1214 641 1259 804 c 1
 1439 804 l 1
 1395 625 1292 452 1130 285 c 1
 1358 0 l 1
 1109 0 l 1x7c
 988 146 l 1
 827 30 662 -28 495 -28 c 3
EndSplineSet
EndChar

StartChar: quotesingle
Encoding: 8 39 10
Width: 564
VWidth: 3555
Flags: W
HStem: 939 554<309 373>
VStem: 203 170<939 1109> 309 170<1323 1493>
DStem2: 203 939 373 939 0.189095 0.981959<32.1462 564.049>
LayerCount: 3
Fore
SplineSet
373 939 m 1,0,-1
 203 939 l 1,1,-1
 309 1493 l 1,2,-1
 479 1493 l 1,3,-1
 373 939 l 1,0,-1
EndSplineSet
Layer: 2
SplineSet
373 939 m 1xc0
 203 939 l 1xc0
 309 1493 l 1
 479 1493 l 1xa0
 373 939 l 1xc0
EndSplineSet
EndChar

StartChar: parenleft
Encoding: 9 40 11
Width: 798
VWidth: 3555
Flags: W
VStem: 95 192<21.0532 700.631> 601 159<1398 1557>
LayerCount: 3
Fore
SplineSet
760 1557 m 1,0,1
 492 1207 492 1207 389.5 909.5 c 128,-1,2
 287 612 287 612 287 321 c 259,3,4
 287 156 287 156 314.5 21.5 c 128,-1,5
 342 -113 342 -113 404 -271 c 1,6,-1
 245 -271 l 1,7,8
 168 -95 168 -95 131.5 51 c 128,-1,9
 95 197 95 197 95 381 c 259,10,11
 95 695 95 695 222 976 c 128,-1,12
 349 1257 349 1257 601 1557 c 1,13,-1
 760 1557 l 1,0,1
EndSplineSet
Layer: 2
SplineSet
760 1557 m 1
 506 1226 287 834 287 321 c 3
 287 93 325 -69 404 -271 c 1
 245 -271 l 1
 151 -57 95 120 95 381 c 3
 95 818 283 1179 601 1557 c 1
 760 1557 l 1
EndSplineSet
EndChar

StartChar: parenright
Encoding: 10 41 12
Width: 798
VWidth: 3555
Flags: W
VStem: -68 160<-271 -111> 407 186<572.598 1272.83>
LayerCount: 3
Fore
SplineSet
448 1557 m 1,0,1
 524 1380 524 1380 558.5 1234 c 128,-1,2
 593 1088 593 1088 593 904 c 259,3,4
 593 570 593 570 449.134726218 279.319240348 c 128,-1,5
 305.269452436 -11.3615193049 305.269452436 -11.3615193049 92 -271 c 1,6,-1
 -68 -271 l 1,7,8
 140.345818188 6.49057649502 140.345818188 6.49057649502 273.672909094 305.245288248 c 128,-1,9
 407 604 407 604 407 943 c 259,10,11
 407 1110 407 1110 378 1249 c 128,-1,12
 349 1388 349 1388 288 1557 c 1,13,-1
 448 1557 l 1,0,1
EndSplineSet
Layer: 2
SplineSet
448 1557 m 1
 541 1339 593 1164 593 904 c 3
 593 476 400 104 92 -271 c 1
 -68 -271 l 1
 179 57 407 452 407 943 c 3
 407 1180 363 1350 288 1557 c 1
 448 1557 l 1
EndSplineSet
EndChar

StartChar: asterisk
Encoding: 11 42 13
Width: 1022
VWidth: 3555
Flags: W
HStem: 1502 20G<572.085 689>
VStem: 394 115<587 702> 576 113<1409 1522>
DStem2: 50 858 89 760 0.886737 0.462275<0 416.535 633.217 1047.52> 203 1347 128 1248 0.842886 -0.538092<0 360.258 524.395 882.28> 394 587 509 587 0.189095 0.981959<21.746 382.642 588.741 952.547>
LayerCount: 3
Fore
SplineSet
628 1055 m 1,0,-1
 950 858 l 1,1,-1
 875 760 l 1,2,-1
 580 963 l 1,3,-1
 509 587 l 1,4,-1
 394 587 l 1,5,-1
 465 963 l 1,6,-1
 89 760 l 1,7,-1
 50 858 l 1,8,-1
 444 1055 l 1,9,-1
 128 1248 l 1,10,-1
 203 1347 l 1,11,-1
 502 1144 l 1,12,-1
 576 1522 l 1,13,-1
 689 1522 l 1,14,-1
 615 1144 l 1,15,-1
 988 1347 l 1,16,-1
 1028 1248 l 1,17,-1
 628 1055 l 1,0,-1
EndSplineSet
Layer: 2
SplineSet
628 1055 m 1
 950 858 l 1
 875 760 l 1
 580 963 l 1
 509 587 l 1
 394 587 l 1
 465 963 l 1
 89 760 l 1
 50 858 l 1
 444 1055 l 1
 128 1248 l 1
 203 1347 l 1
 502 1144 l 1
 576 1522 l 1
 689 1522 l 1
 615 1144 l 1
 988 1347 l 1
 1028 1248 l 1
 628 1055 l 1
EndSplineSet
EndChar

StartChar: plus
Encoding: 12 43 14
Width: 1716
VWidth: 3555
Flags: W
HStem: 0 21G<594 770.864> 559 170<181 700 906 1429>
VStem: 594 173<0 173> 842 175<1111 1286>
DStem2: 594 0 767 0 0.189095 0.981959<32.7135 568.959 774.846 1309.69>
LayerCount: 3
Fore
SplineSet
906 729 m 1,0,-1
 1462 729 l 1,1,-1
 1429 559 l 1,2,-1
 875 559 l 1,3,-1
 767 0 l 1,4,-1
 594 0 l 1,5,-1
 700 559 l 1,6,-1
 149 559 l 1,7,-1
 181 729 l 1,8,-1
 733 729 l 1,9,-1
 842 1286 l 1,10,-1
 1017 1286 l 1,11,-1
 906 729 l 1,0,-1
EndSplineSet
Layer: 2
SplineSet
906 729 m 1
 1462 729 l 1
 1429 559 l 1
 875 559 l 1
 767 0 l 1
 594 0 l 1
 700 559 l 1
 149 559 l 1
 181 729 l 1
 733 729 l 1
 842 1286 l 1
 1017 1286 l 1
 906 729 l 1
EndSplineSet
EndChar

StartChar: comma
Encoding: 13 44 15
Width: 649
VWidth: 3555
Flags: W
HStem: -238 490
VStem: -71 394
LayerCount: 3
Fore
SplineSet
323 252 m 1,0,-1
 292 82 l 1,1,-1
 61 -238 l 1,2,-1
 -71 -238 l 1,3,-1
 75 82 l 1,4,-1
 106 252 l 1,5,-1
 323 252 l 1,0,-1
EndSplineSet
Layer: 2
SplineSet
323 252 m 1
 292 82 l 1
 61 -238 l 1
 -71 -238 l 1
 75 82 l 1
 106 252 l 1
 323 252 l 1
EndSplineSet
EndChar

StartChar: hyphen
Encoding: 14 45 16
Width: 737
VWidth: 3555
Flags: W
HStem: 479 165<47 554>
VStem: 14 573
LayerCount: 3
Fore
SplineSet
587 644 m 1,0,-1
 554 479 l 1,1,-1
 14 479 l 1,2,-1
 47 644 l 1,3,-1
 587 644 l 1,0,-1
EndSplineSet
Layer: 2
SplineSet
587 644 m 1
 554 479 l 1
 14 479 l 1
 47 644 l 1
 587 644 l 1
EndSplineSet
EndChar

StartChar: period
Encoding: 15 46 17
Width: 649
VWidth: 3555
Flags: W
HStem: 0 252<89 255>
VStem: 43 212<0 212> 89 213<39 252>
LayerCount: 3
Fore
SplineSet
302 252 m 1,0,-1
 255 0 l 1,1,-1
 43 0 l 1,2,-1
 89 252 l 1,3,-1
 302 252 l 1,0,-1
EndSplineSet
Layer: 2
SplineSet
302 252 m 1xa0
 255 0 l 1
 43 0 l 1xc0
 89 252 l 1
 302 252 l 1xa0
EndSplineSet
EndChar

StartChar: slash
Encoding: 16 47 18
Width: 689
VWidth: 3555
Flags: W
HStem: 1473 20G<618.012 800>
DStem2: -214 -193 -50 -193 0.450177 0.892939<73.829 1884.54>
LayerCount: 3
Fore
SplineSet
800 1493 m 1,0,-1
 -50 -193 l 1,1,-1
 -214 -193 l 1,2,-1
 628 1493 l 1,3,-1
 800 1493 l 1,0,-1
EndSplineSet
Layer: 2
SplineSet
800 1493 m 1
 -50 -193 l 1
 -214 -193 l 1
 628 1493 l 1
 800 1493 l 1
EndSplineSet
EndChar

StartChar: zero
Encoding: 17 48 19
Width: 1303
VWidth: 3555
Flags: W
HStem: -28 160<365.848 639.539> 1361 161<602.376 873.143>
VStem: 68 202<237.667 819.651> 965 202<666.745 1256.95>
LayerCount: 3
Fore
SplineSet
736 1361 m 259,0,1
 541 1361 541 1361 405.5 1084.5 c 128,-1,2
 270 808 270 808 270 456 c 259,3,4
 270 132 270 132 498 132 c 259,5,6
 702 132 702 132 833.5 409.071428571 c 128,-1,7
 965 686.142857143 965 686.142857143 965 1038 c 259,8,9
 965 1361 965 1361 736 1361 c 259,0,1
465 -28 m 259,10,11
 263 -28 263 -28 165.5 97 c 128,-1,12
 68 222 68 222 68 450 c 259,13,14
 68 898 68 898 268.5 1210 c 128,-1,15
 469 1522 469 1522 767 1522 c 259,16,17
 970 1522 970 1522 1068.5 1397.5 c 128,-1,18
 1167 1273 1167 1273 1167 1047 c 259,19,20
 1167 622 1167 622 979 297 c 128,-1,21
 791 -28 791 -28 465 -28 c 259,10,11
EndSplineSet
Layer: 2
SplineSet
736 1361 m 3
 479 1361 270 949 270 456 c 3
 270 240 346 132 498 132 c 3
 780 132 965 582 965 1038 c 3
 965 1253 889 1361 736 1361 c 3
465 -28 m 259
 187 -28 68 157 68 450 c 3
 68 971 315 1522 767 1522 c 259
 1045 1522 1167 1339 1167 1047 c 3
 1167 549 946 -28 465 -28 c 259
EndSplineSet
EndChar

StartChar: one
Encoding: 18 49 20
Width: 1303
VWidth: 3555
Flags: W
HStem: 0 167<106 441 637 939> 1473 20G<584.176 892>
DStem2: 323 1425 288 1238 0.980883 0.194599<0 309.549> 408.841 0 604.841 0 0.189095 0.981959<207.131 1336.01>
LayerCount: 3
Fore
SplineSet
441 167 m 1,0,-1
 661 1312 l 1,1,-1
 288 1238 l 1,2,-1
 323 1425 l 1,3,-1
 693 1493 l 1,4,-1
 892 1493 l 1,5,-1
 637 167 l 1,6,-1
 970 167 l 1,7,-1
 939 0 l 1,8,-1
 75 0 l 1,9,-1
 106 167 l 1,10,-1
 441 167 l 1,0,-1
EndSplineSet
Layer: 2
SplineSet
441 167 m 1
 661 1312 l 1
 288 1238 l 1
 323 1425 l 1
 693 1493 l 1
 892 1493 l 1
 637 167 l 1
 970 167 l 1
 939 0 l 1
 75 0 l 1
 106 167 l 1
 441 167 l 1
EndSplineSet
EndChar

StartChar: two
Encoding: 19 50 21
Width: 1303
VWidth: 3555
Flags: W
HStem: 0 167<245 920> 1219 21G<220.689 304.5> 1351 171<427.059 833.825>
VStem: 926 207<986.813 1264.53>
DStem2: 3 167 245 167 0.764183 0.644999<184.932 1155.54>
LayerCount: 3
Fore
SplineSet
700 1522 m 259,0,1
 906 1522 906 1522 1019.5 1434 c 128,-1,2
 1133 1346 1133 1346 1133 1191 c 259,3,4
 1133 1035 1133 1035 1050.60612302 908.00683243 c 128,-1,5
 968.212246046 781.01366486 968.212246046 781.01366486 702 560 c 256,6,7
 556.198784319 438.953498581 556.198784319 438.953498581 245 167 c 1,8,-1
 953 167 l 1,9,-1
 920 0 l 1,10,-1
 -28 0 l 1,11,-1
 3 167 l 1,12,13
 87 241 87 241 289.480560466 412.525158167 c 128,-1,14
 491.961120933 584.050316335 491.961120933 584.050316335 573 656 c 272,15,16
 825.755754589 880.407059876 825.755754589 880.407059876 875.877877294 970.703529938 c 128,-1,17
 926 1061 926 1061 926 1138 c 259,18,19
 926 1239 926 1239 853.5 1295 c 128,-1,20
 781 1351 781 1351 668 1351 c 259,21,22
 480 1351 480 1351 217 1219 c 1,23,-1
 255 1425 l 1,24,25
 388 1472 388 1472 489.5 1497 c 128,-1,26
 591 1522 591 1522 700 1522 c 259,0,1
EndSplineSet
Layer: 2
SplineSet
700 1522 m 3
 943 1522 1133 1422 1133 1191 c 3
 1133 908 920 744 702 560 c 0
 594 469 442 338 245 167 c 1
 953 167 l 1
 920 0 l 1
 -28 0 l 1
 3 167 l 1
 167 312 406 509 573 656 c 0
 719 785 926 951 926 1138 c 3
 926 1278 812 1351 668 1351 c 3
 542 1351 392 1307 217 1219 c 1
 255 1425 l 1
 396 1475 539 1522 700 1522 c 3
EndSplineSet
EndChar

StartChar: three
Encoding: 20 51 22
Width: 1303
VWidth: 3555
Flags: W
HStem: -28 170<129.218 645.419> 715 167<404 752.598> 1351 171<387.524 866.79>
VStem: 850 204<322.501 630.354> 945 212<1021.52 1278.34>
LayerCount: 3
Fore
SplineSet
945 1167 m 259,0,1
 945 1263 945 1263 870 1307 c 128,-1,2
 795 1351 795 1351 672 1351 c 259,3,4
 567 1351 567 1351 477.5 1332.5 c 128,-1,5
 388 1314 388 1314 271 1276 c 1,6,-1
 306 1458 l 1,7,8
 549 1522 549 1522 726 1522 c 259,9,10
 914 1522 914 1522 1035.5 1449.5 c 128,-1,11
 1157 1377 1157 1377 1157 1216 c 259,12,13
 1157 1052 1157 1052 1063.5 948.5 c 128,-1,14
 970 845 970 845 811 807 c 1,15,16
 1054 744 1054 744 1054 522 c 259,17,18
 1054 293 1054 293 872 132.5 c 128,-1,19
 690 -28 690 -28 373 -28 c 259,20,21
 190 -28 190 -28 -17 43 c 1,22,-1
 21 238 l 1,23,24
 177 142 177 142 398 142 c 259,25,26
 651 142 651 142 750.5 250.5 c 128,-1,27
 850 359 850 359 850 504 c 259,28,29
 850 613 850 613 767 664 c 128,-1,30
 684 715 684 715 550 715 c 2,31,-1
 373 715 l 1,32,-1
 404 882 l 1,33,-1
 590 882 l 2,34,35
 757 882 757 882 851 953.5 c 128,-1,36
 945 1025 945 1025 945 1167 c 259,0,1
EndSplineSet
Layer: 2
SplineSet
945 1167 m 3xe8
 945 1304 821 1351 672 1351 c 3
 519 1351 406 1320 271 1276 c 1
 306 1458 l 1
 469 1501 609 1522 726 1522 c 3
 965 1522 1157 1438 1157 1216 c 3xe8
 1157 988 1012 855 811 807 c 1
 950 771 1054 686 1054 522 c 3
 1054 156 728 -28 373 -28 c 3
 250 -28 120 -4 -17 43 c 1
 21 238 l 1
 125 174 251 142 398 142 c 3
 659 142 850 250 850 504 c 3xf0
 850 658 715 715 550 715 c 2
 373 715 l 1
 404 882 l 1
 590 882 l 2
 806 882 945 973 945 1167 c 3xe8
EndSplineSet
EndChar

StartChar: four
Encoding: 21 52 23
Width: 1303
VWidth: 3555
Flags: W
HStem: 0 21G<594 803.864> 352 167<184 661 899 1082> 1473 20G<814.989 1088>
VStem: 594 206<0 206>
DStem2: 24 543 184 519 0.647881 0.761741<85.3792 1125.61> 594 0 800 0 0.189095 0.981959<38.9537 358.319 567.311 1343.42>
LayerCount: 3
Fore
SplineSet
184 519 m 1,0,-1
 693 519 l 1,1,-1
 849 1319 l 1,2,-1
 184 519 l 1,0,-1
1088 1493 m 1,3,-1
 899 519 l 1,4,-1
 1113 519 l 1,5,-1
 1082 352 l 1,6,-1
 868 352 l 1,7,-1
 800 0 l 1,8,-1
 594 0 l 1,9,-1
 661 352 l 1,10,-1
 -10 352 l 1,11,-1
 24 543 l 1,12,-1
 832 1493 l 1,13,-1
 1088 1493 l 1,3,-1
EndSplineSet
Layer: 2
SplineSet
184 519 m 1
 693 519 l 1
 849 1319 l 1
 184 519 l 1
1088 1493 m 1
 899 519 l 1
 1113 519 l 1
 1082 352 l 1
 868 352 l 1
 800 0 l 1
 594 0 l 1
 661 352 l 1
 -10 352 l 1
 24 543 l 1
 832 1493 l 1
 1088 1493 l 1
EndSplineSet
EndChar

StartChar: five
Encoding: 22 53 24
Width: 1303
VWidth: 3555
Flags: W
HStem: -28 170<138.787 614.121> 821 167<415.695 728.176> 1326 167<484 1092>
VStem: 846 206<366.811 710.684>
DStem2: 40.5288 -28 222.741 -28 0.189095 0.981959<1040.61 1413.43>
LayerCount: 3
Fore
SplineSet
846 561 m 259,0,1
 846 693 846 693 760 757 c 128,-1,2
 674 821 674 821 523 821 c 259,3,4
 374 821 374 821 189 743 c 1,5,-1
 335 1493 l 1,6,-1
 1123 1493 l 1,7,-1
 1092 1326 l 1,8,-1
 484 1326 l 1,9,-1
 413 960 l 1,10,11
 515 988 515 988 597 988 c 259,12,13
 807 988 807 988 929.5 892 c 128,-1,14
 1052 796 1052 796 1052 607 c 259,15,16
 1052 312 1052 312 863.5 142 c 128,-1,17
 675 -28 675 -28 370 -28 c 259,18,19
 184 -28 184 -28 -17 35 c 1,20,-1
 24 238 l 1,21,22
 200 142 200 142 391 142 c 259,23,24
 594 142 594 142 720 254 c 128,-1,25
 846 366 846 366 846 561 c 259,0,1
EndSplineSet
Layer: 2
SplineSet
846 561 m 3
 846 743 715 821 523 821 c 3
 398 821 286 784 189 743 c 1
 335 1493 l 1
 1123 1493 l 1
 1092 1326 l 1
 484 1326 l 1
 413 960 l 1
 482 979 543 988 597 988 c 3
 867 988 1052 867 1052 607 c 3
 1052 207 770 -28 370 -28 c 3
 246 -28 117 -7 -17 35 c 1
 24 238 l 1
 125 183 242 142 391 142 c 3
 657 142 846 296 846 561 c 3
EndSplineSet
EndChar

StartChar: six
Encoding: 23 54 25
Width: 1303
VWidth: 3555
Flags: W
HStem: -28 160<371.265 690.127> 828 160<501.344 805.511> 1351 171<651.212 1084.15>
VStem: 76 208<221.84 592.125> 898 208<370.749 738.813>
LayerCount: 3
Fore
SplineSet
898 575 m 259,0,1
 898 694 898 694 836.5 761 c 128,-1,2
 775 828 775 828 661 828 c 259,3,4
 511 828 511 828 397.5 710 c 128,-1,5
 284 592 284 592 284 378 c 259,6,7
 284 261 284 261 347.5 196.5 c 128,-1,8
 411 132 411 132 526 132 c 259,9,10
 699 132 699 132 798.5 268.5 c 128,-1,11
 898 405 898 405 898 575 c 259,0,1
495 -28 m 259,12,13
 282 -28 282 -28 179 98 c 128,-1,14
 76 224 76 224 76 458 c 259,15,16
 76 728.77173913 76 728.77173913 170.543875423 972.324983426 c 128,-1,17
 265.087750845 1215.87822772 265.087750845 1215.87822772 447.502779532 1368.93911386 c 128,-1,18
 629.917808219 1522 629.917808219 1522 878 1522 c 259,19,20
 1007 1522 1007 1522 1180 1462 c 1,21,-1
 1144 1276 l 1,22,23
 1021 1351 1021 1351 849 1351 c 259,24,25
 450 1351 450 1351 323 811 c 1,26,27
 388 889 388 889 487.5 938.5 c 128,-1,28
 587 988 587 988 705 988 c 259,29,30
 892 988 892 988 999 891 c 128,-1,31
 1106 794 1106 794 1106 614 c 259,32,33
 1106 353 1106 353 937 162.5 c 128,-1,34
 768 -28 768 -28 495 -28 c 259,12,13
EndSplineSet
Layer: 2
SplineSet
898 575 m 3
 898 732 814 828 661 828 c 3
 424 828 284 623 284 378 c 3
 284 222 372 132 526 132 c 3
 753 132 898 337 898 575 c 3
495 -28 m 3
 203 -28 76 155 76 458 c 3
 76 997 370 1522 878 1522 c 3
 996 1522 1085 1495 1180 1462 c 1
 1144 1276 l 1
 1065 1324 969 1351 849 1351 c 3
 584 1351 408 1171 323 811 c 1
 404 908 539 988 705 988 c 3
 951 988 1106 858 1106 614 c 3
 1106 250 851 -28 495 -28 c 3
EndSplineSet
EndChar

StartChar: seven
Encoding: 24 55 26
Width: 1303
VWidth: 3555
Flags: W
HStem: 0 21G<200 421.58> 1326 167<278 963>
VStem: 200 210<0 210>
DStem2: 200 0 410 0 0.501085 0.865398<105.228 1529.85>
LayerCount: 3
Fore
SplineSet
1241 1493 m 1,0,-1
 1227 1411 l 1,1,-1
 410 0 l 1,2,-1
 200 0 l 1,3,-1
 963 1326 l 1,4,-1
 245 1326 l 1,5,-1
 278 1493 l 1,6,-1
 1241 1493 l 1,0,-1
EndSplineSet
Layer: 2
SplineSet
1241 1493 m 1
 1227 1411 l 1
 410 0 l 1
 200 0 l 1
 963 1326 l 1
 245 1326 l 1
 278 1493 l 1
 1241 1493 l 1
EndSplineSet
EndChar

StartChar: eight
Encoding: 25 56 27
Width: 1303
VWidth: 3555
Flags: W
HStem: -28 160<326.695 692.675> 712 156<476.914 785.75> 1361 161<556.926 902.201>
VStem: 29 209<217.617 528.997> 204 205<929.568 1220.43> 873 202<314.85 630.172> 975 207<1028.36 1292.07>
LayerCount: 3
Fore
SplineSet
873 494 m 259,0,1
 873 603 873 603 802 657.5 c 128,-1,2
 731 712 731 712 608 712 c 259,3,4
 446 712 446 712 342 612.5 c 128,-1,5
 238 513 238 513 238 352 c 259,6,7
 238 244 238 244 308.5 188 c 128,-1,8
 379 132 379 132 498 132 c 259,9,10
 666 132 666 132 769.5 230.5 c 128,-1,11
 873 329 873 329 873 494 c 259,0,1
465 -28 m 259,12,13
 261 -28 261 -28 145 55 c 128,-1,14
 29 138 29 138 29 312 c 259,15,16
 29 510 29 510 137.5 632 c 128,-1,17
 246 754 246 754 427 797 c 1,18,19
 328 821 328 821 266 885.5 c 128,-1,20
 204 950 204 950 204 1053 c 259,21,22
 204 1246 204 1246 350 1384 c 128,-1,23
 496 1522 496 1522 767 1522 c 259,24,25
 947.31 1522 947.31 1522 1064.655 1449.55217391 c 128,-1,26
 1182 1377.10434783 1182 1377.10434783 1182 1216 c 259,27,28
 1182 1054 1182 1054 1080 942.5 c 128,-1,29
 978 831 978 831 828 797 c 1,30,31
 1075 733 1075 733 1075 509 c 259,32,33
 1075 288 1075 288 919 130 c 128,-1,34
 763 -28 763 -28 465 -28 c 259,12,13
975 1170 m 259,35,36
 975 1265 975 1265 909.5 1313 c 128,-1,37
 844 1361 844 1361 736 1361 c 259,38,39
 587 1361 587 1361 498 1277 c 128,-1,40
 409 1193 409 1193 409 1049 c 259,41,42
 409 957 409 957 471.5 912.5 c 128,-1,43
 534 868 534 868 641 868 c 259,44,45
 784 868 784 868 879.5 950 c 128,-1,46
 975 1032 975 1032 975 1170 c 259,35,36
EndSplineSet
Layer: 2
SplineSet
873 494 m 3xf4
 873 645 765 712 608 712 c 3
 394 712 238 569 238 352 c 3
 238 203 346 132 498 132 c 3
 720 132 873 272 873 494 c 3xf4
465 -28 m 259
 207 -28 29 70 29 312 c 3xf4
 29 588 199 743 427 797 c 1
 305 827 204 908 204 1053 c 3
 204 1356 458 1522 767 1522 c 259
 1000 1522 1182 1435 1182 1216 c 3xea
 1182 989 1016 840 828 797 c 1
 970 760 1075 676 1075 509 c 3
 1075 164 815 -28 465 -28 c 259
975 1170 m 3xea
 975 1302 873 1361 736 1361 c 3
 539 1361 409 1243 409 1049 c 3
 409 921 506 868 641 868 c 3
 827 868 975 982 975 1170 c 3xea
EndSplineSet
EndChar

StartChar: nine
Encoding: 26 57 28
Width: 1303
VWidth: 3555
Flags: W
HStem: -28 170<151.633 586.548> 505 160<426.037 730.421> 1361 161<550.54 858.223>
VStem: 131 209<749.374 1117.46> 953 206<905.233 1264.26>
LayerCount: 3
Fore
SplineSet
743 1522 m 259,0,1
 951 1522 951 1522 1055 1394 c 128,-1,2
 1159 1266 1159 1266 1159 1036 c 259,3,4
 1159 695 1159 695 1025.5 426 c 128,-1,5
 892 157 892 157 700 64.5 c 128,-1,6
 508 -28 508 -28 356 -28 c 259,7,8
 204 -28 204 -28 54 28 c 1,9,-1
 89 217 l 1,10,11
 213 142 213 142 380 142 c 259,12,13
 720 142 720 142 861 514 c 0,14,15
 890 590 890 590 913 686 c 1,16,17
 747 505 747 505 533 505 c 259,18,19
 345 505 345 505 238 599.5 c 128,-1,20
 131 694 131 694 131 874 c 259,21,22
 131 1171 131 1171 317.5 1346.5 c 128,-1,23
 504 1522 504 1522 743 1522 c 259,0,1
340 907 m 259,24,25
 340 792 340 792 402.5 728.5 c 128,-1,26
 465 665 465 665 576 665 c 259,27,28
 761 665 761 665 857 810 c 128,-1,29
 953 955 953 955 953 1112 c 259,30,31
 953 1228 953 1228 888 1294.5 c 128,-1,32
 823 1361 823 1361 712 1361 c 259,33,34
 575 1361 575 1361 457.5 1246.5 c 128,-1,35
 340 1132 340 1132 340 907 c 259,24,25
EndSplineSet
Layer: 2
SplineSet
743 1522 m 3
 1027 1522 1159 1335 1159 1036 c 3
 1159 493 877 -28 356 -28 c 3
 254 -28 153 -9 54 28 c 1
 89 217 l 1
 167 170 265 142 380 142 c 3
 706 142 840 388 913 686 c 1
 825 590 701 505 533 505 c 3
 288 505 131 630 131 874 c 3
 131 1240 385 1522 743 1522 c 3
340 907 m 3
 340 754 428 665 576 665 c 259
 806 665 953 870 953 1112 c 3
 953 1267 860 1361 712 1361 c 259
 480 1361 340 1150 340 907 c 3
EndSplineSet
EndChar

StartChar: colon
Encoding: 27 58 29
Width: 689
VWidth: 3555
Flags: W
HStem: 0 252<106 278> 807 255<267 434>
VStem: 61 217<0 217> 106 217<35 252> 217 217<807 1024> 267 217<845 1062>
DStem2: 61 0 278 0 0.189095 0.981959<41.0337 255.963 862.973 1081.79>
LayerCount: 3
Fore
SplineSet
323 252 m 1,0,-1
 278 0 l 1,1,-1
 61 0 l 1,2,-1
 106 252 l 1,3,-1
 323 252 l 1,0,-1
484 1062 m 1,4,-1
 434 807 l 1,5,-1
 217 807 l 1,6,-1
 267 1062 l 1,7,-1
 484 1062 l 1,4,-1
EndSplineSet
Layer: 2
SplineSet
323 252 m 1xd0
 278 0 l 1
 61 0 l 1xe0
 106 252 l 1
 323 252 l 1xd0
484 1062 m 1xc4
 434 807 l 1
 217 807 l 1xc8
 267 1062 l 1
 484 1062 l 1xc4
EndSplineSet
EndChar

StartChar: semicolon
Encoding: 28 59 30
Width: 689
VWidth: 3555
Flags: W
HStem: 807 255<267 434>
VStem: 217 217<807 1024> 267 217<845 1062>
DStem2: 13.3777 -238 230.378 -238 0.189095 0.981959<366.913 498.674 1105.68 1324.51>
LayerCount: 3
Fore
SplineSet
484 1062 m 1,0,-1
 434 807 l 1,1,-1
 217 807 l 1,2,-1
 267 1062 l 1,3,-1
 484 1062 l 1,0,-1
323 252 m 1,4,-1
 292 82 l 1,5,-1
 61 -238 l 1,6,-1
 -71 -238 l 1,7,-1
 75 82 l 1,8,-1
 106 252 l 1,9,-1
 323 252 l 1,4,-1
EndSplineSet
Layer: 2
SplineSet
484 1062 m 1xa0
 434 807 l 1
 217 807 l 1xc0
 267 1062 l 1
 484 1062 l 1xa0
323 252 m 1
 292 82 l 1
 61 -238 l 1
 -71 -238 l 1
 75 82 l 1
 106 252 l 1
 323 252 l 1
EndSplineSet
EndChar

StartChar: less
Encoding: 29 60 31
Width: 1716
VWidth: 3555
Flags: W
DStem2: 413 641 149 562 0.930989 -0.365048<0 1029.99> 181 726 413 641 0.947155 0.320777<192.474 1355.54>
LayerCount: 3
Fore
SplineSet
413 641 m 1,0,-1
 1377 278 l 1,1,-1
 1340 95 l 1,2,-1
 149 562 l 1,3,-1
 181 726 l 1,4,-1
 1554 1191 l 1,5,-1
 1517 1007 l 1,6,-1
 413 641 l 1,0,-1
EndSplineSet
Layer: 2
SplineSet
413 641 m 1
 1377 278 l 1
 1340 95 l 1
 149 562 l 1
 181 726 l 1
 1554 1191 l 1
 1517 1007 l 1
 413 641 l 1
EndSplineSet
EndChar

StartChar: equal
Encoding: 30 61 32
Width: 1716
VWidth: 3555
Flags: W
HStem: 352 171<142 1391> 760 172<220 1469>
LayerCount: 3
Fore
SplineSet
1500 932 m 1,0,-1
 1469 760 l 1,1,-1
 189 760 l 1,2,-1
 220 932 l 1,3,-1
 1500 932 l 1,0,-1
1422 523 m 1,4,-1
 1391 352 l 1,5,-1
 109 352 l 1,6,-1
 142 523 l 1,7,-1
 1422 523 l 1,4,-1
EndSplineSet
Layer: 2
SplineSet
1500 932 m 1
 1469 760 l 1
 189 760 l 1
 220 932 l 1
 1500 932 l 1
1422 523 m 1
 1391 352 l 1
 109 352 l 1
 142 523 l 1
 1422 523 l 1
EndSplineSet
EndChar

StartChar: greater
Encoding: 31 62 33
Width: 1716
VWidth: 3555
Flags: W
DStem2: 95 278 61 95 0.946376 0.323068<0 1154.5> 274 1191 238 1007 0.931208 -0.364488<33.5423 1054.39>
LayerCount: 3
Fore
SplineSet
274 1191 m 1,0,-1
 1462 726 l 1,1,-1
 1429 562 l 1,2,-1
 61 95 l 1,3,-1
 95 278 l 1,4,-1
 1191 641 l 1,5,-1
 238 1007 l 1,6,-1
 274 1191 l 1,0,-1
EndSplineSet
Layer: 2
SplineSet
274 1191 m 1
 1462 726 l 1
 1429 562 l 1
 61 95 l 1
 95 278 l 1
 1191 641 l 1
 238 1007 l 1
 274 1191 l 1
EndSplineSet
EndChar

StartChar: question
Encoding: 32 63 34
Width: 1086
VWidth: 3555
Flags: W
HStem: 0 252<260 420> 1219 21G<206.958 260> 1358 164<400.933 740.618>
VStem: 214 206<0 206> 260 205<47 252> 794 206<1068.63 1305.78>
DStem2: 214 0 420 0 0.189095 0.981959<38.9537 256.152 445.578 771.76> 529 871 668 783 0.772726 0.634739<-153.641 366.972>
LayerCount: 3
Fore
SplineSet
465 252 m 1,0,-1
 420 0 l 1,1,-1
 214 0 l 1,2,-1
 260 252 l 1,3,-1
 465 252 l 1,0,-1
654 1522 m 259,4,5
 806 1522 806 1522 903 1452 c 128,-1,6
 1000 1382 1000 1382 1000 1249 c 259,7,8
 1000 1108 1000 1108 934.112348753 1028.07292788 c 128,-1,9
 868.224697507 948.145855755 868.224697507 948.145855755 771 868 c 2,10,-1
 668 783 l 2,11,12
 590 720 590 720 561 673.5 c 128,-1,13
 532 627 532 627 512 523 c 2,14,-1
 488 401 l 1,15,-1
 292 401 l 1,16,-1
 323 559 l 2,17,18
 350.105135069 698.139693356 350.105135069 698.139693356 405.552567535 756.069846678 c 128,-1,19
 461 814 461 814 529 871 c 2,20,-1
 641 963 l 2,21,22
 720 1027 720 1027 757 1078 c 128,-1,23
 794 1129 794 1129 794 1197 c 259,24,25
 794 1276 794 1276 736 1317 c 128,-1,26
 678 1358 678 1358 587 1358 c 259,27,28
 486 1358 486 1358 398.5 1322 c 128,-1,29
 311 1286 311 1286 203 1219 c 1,30,-1
 241 1411 l 1,31,32
 461 1522 461 1522 654 1522 c 259,4,5
EndSplineSet
Layer: 2
SplineSet
465 252 m 1xec
 420 0 l 1
 214 0 l 1xf4
 260 252 l 1
 465 252 l 1xec
654 1522 m 3
 846 1522 1000 1434 1000 1249 c 3
 1000 1055 894 970 771 868 c 2
 668 783 l 2
 570 703 540 668 512 523 c 2
 488 401 l 1
 292 401 l 1
 323 559 l 2
 354 717 410 772 529 871 c 2
 641 963 l 2
 732 1037 794 1098 794 1197 c 3
 794 1307 702 1358 587 1358 c 3
 437 1358 317 1290 203 1219 c 1
 241 1411 l 1
 388 1485 526 1522 654 1522 c 3
EndSplineSet
EndChar

StartChar: at
Encoding: 33 64 35
Width: 2050
VWidth: 3555
Flags: W
HStem: -356 142<569.422 1079.45> 89 142<749.874 1030.01> 842 146<852.564 1157.09> 1302 146<863.007 1377.81>
VStem: 42 146<152.008 650.097> 517 159<303.811 649.643> 1720 151<538.447 987.376>
DStem2: 1062.61 -356 1202.96 -356 0.189095 0.981959<730.418 991.24 1215.46 1350.56>
LayerCount: 3
Fore
SplineSet
1233 622 m 259,0,1
 1233 725 1233 725 1174 783.5 c 128,-1,2
 1115 842 1115 842 1014 842 c 259,3,4
 861 842 861 842 768.5 729 c 128,-1,5
 676 616 676 616 676 447 c 259,6,7
 676 344 676 344 733 287.5 c 128,-1,8
 790 231 790 231 892 231 c 259,9,10
 1022 231 1022 231 1111.5 316.5 c 128,-1,11
 1201 402 1201 402 1225 536 c 256,12,13
 1233 581 1233 581 1233 622 c 259,0,1
1401 -153 m 1,14,15
 1102 -356 1102 -356 793 -356 c 259,16,17
 472 -356 472 -356 257 -165 c 128,-1,18
 42 26 42 26 42 353 c 256,19,20
 42 819 42 819 388 1133.5 c 128,-1,21
 734 1448 734 1448 1160 1448 c 259,22,23
 1446 1448 1446 1448 1658.5 1267 c 128,-1,24
 1871 1086 1871 1086 1871 803 c 259,25,26
 1871 501 1871 501 1678 295.5 c 128,-1,27
 1485 90 1485 90 1144 85 c 1,28,-1
 1177 238 l 1,29,30
 1028 89 1028 89 828 89 c 259,31,32
 686 89 686 89 601.5 178.5 c 128,-1,33
 517 268 517 268 517 418 c 259,34,35
 517 684 517 684 674.5 836 c 128,-1,36
 832 988 832 988 1007 988 c 259,37,38
 1114 988 1114 988 1180 951 c 128,-1,39
 1246 914 1246 914 1290 838 c 1,40,-1
 1319 970 l 1,41,-1
 1462 970 l 1,42,-1
 1316 231 l 1,43,44
 1504 256 1504 256 1612 409.5 c 128,-1,45
 1720 563 1720 563 1720 788 c 259,46,47
 1720 1032 1720 1032 1535.5 1167 c 128,-1,48
 1351 1302 1351 1302 1134 1302 c 259,49,50
 752 1302 752 1302 470 1038.5 c 128,-1,51
 188 775 188 775 188 384 c 259,52,53
 188 134 188 134 358.5 -40 c 128,-1,54
 529 -214 529 -214 821 -214 c 259,55,56
 1095 -214 1095 -214 1333 -43 c 1,57,-1
 1401 -153 l 1,14,15
EndSplineSet
Layer: 2
SplineSet
1233 622 m 3
 1233 760 1147 842 1014 842 c 259
 805 842 676 667 676 447 c 3
 676 309 756 231 892 231 c 259
 1070 231 1194 363 1225 536 c 0
 1230 564 1233 593 1233 622 c 3
1401 -153 m 1
 1239 -263 1036 -356 793 -356 c 3
 372 -356 42 -94 42 353 c 3
 42 975 578 1448 1160 1448 c 3
 1536 1448 1871 1184 1871 803 c 3
 1871 368 1569 92 1144 85 c 1
 1177 238 l 1
 1078 139 961 89 828 89 c 3
 638 89 517 219 517 418 c 3
 517 719 719 988 1007 988 c 3
 1154 988 1234 936 1290 838 c 1
 1319 970 l 1
 1462 970 l 1
 1316 231 l 1
 1571 265 1720 494 1720 788 c 3
 1720 1096 1455 1302 1134 1302 c 3
 630 1302 188 908 188 384 c 3
 188 10 464 -214 821 -214 c 3
 1028 -214 1198 -138 1333 -43 c 1
 1401 -153 l 1
EndSplineSet
EndChar

StartChar: A
Encoding: 34 65 36
Width: 1399
VWidth: 3555
Flags: W
HStem: 0 21G<-163 64.8421 994.737 1205> 380 174<359 906> 1473 20G<684.493 932.697>
VStem: 998 207<0 207>
DStem2: -163 0 54 0 0.4987 0.866775<108.218 540.325 740.515 740.515> 929 1493 771 1299 0.181783 -0.983339<162.046 919.174 1095.73 1480.67>
LayerCount: 3
Fore
SplineSet
359 554 m 1,0,-1
 906 554 l 1,1,-1
 771 1299 l 1,2,-1
 359 554 l 1,0,-1
929 1493 m 1,3,-1
 1205 0 l 1,4,-1
 998 0 l 1,5,-1
 936 380 l 1,6,-1
 260 380 l 1,7,-1
 54 0 l 1,8,-1
 -163 0 l 1,9,-1
 696 1493 l 1,10,-1
 929 1493 l 1,3,-1
EndSplineSet
Layer: 2
SplineSet
359 554 m 1
 906 554 l 1
 771 1299 l 1
 359 554 l 1
929 1493 m 1
 1205 0 l 1
 998 0 l 1
 936 380 l 1
 260 380 l 1
 54 0 l 1
 -163 0 l 1
 696 1493 l 1
 929 1493 l 1
EndSplineSet
EndChar

StartChar: B
Encoding: 35 66 37
Width: 1407
VWidth: 3555
Flags: W
HStem: 0 163<252 785.575> 715 163<394 885.992> 1330 163<479 972.875>
VStem: 965 208<328.389 641.683> 1036 214<1006.94 1268.02>
DStem2: 24 0 220.611 0 0.189095 0.981959<203.173 766.204 932.125 1392.04>
LayerCount: 3
Fore
SplineSet
252 163 m 1,0,-1
 580 163 l 2,1,2
 755 163 755 163 860 253 c 128,-1,3
 965 343 965 343 965 513 c 259,4,5
 965 715 965 715 689 715 c 2,6,-1
 363 715 l 1,7,-1
 252 163 l 1,0,-1
394 878 m 1,8,-1
 696 878 l 2,9,10
 854 878 854 878 945 948 c 128,-1,11
 1036 1018 1036 1018 1036 1156 c 259,12,13
 1036 1330 1036 1330 783 1330 c 2,14,-1
 479 1330 l 1,15,-1
 394 878 l 1,8,-1
929 807 m 1,16,17
 1041 777 1041 777 1107 705 c 128,-1,18
 1173 633 1173 633 1173 514 c 259,19,20
 1173 264 1173 264 999.5 132 c 128,-1,21
 826 0 826 0 562 0 c 2,22,-1
 24 0 l 1,23,-1
 312 1493 l 1,24,-1
 828 1493 l 2,25,26
 1250 1493 1250 1493 1250 1207 c 259,27,28
 1250 1044 1250 1044 1161.5 938 c 128,-1,29
 1073 832 1073 832 929 807 c 1,16,17
EndSplineSet
Layer: 2
SplineSet
252 163 m 1xf0
 580 163 l 2
 806 163 965 280 965 513 c 3
 965 648 873 715 689 715 c 2
 363 715 l 1
 252 163 l 1xf0
394 878 m 1
 696 878 l 2
 899 878 1036 966 1036 1156 c 3xe8
 1036 1272 952 1330 783 1330 c 2
 479 1330 l 1
 394 878 l 1
929 807 m 1
 1068 770 1173 682 1173 514 c 3xf0
 1173 176 908 0 562 0 c 2
 24 0 l 1
 312 1493 l 1
 828 1493 l 2
 1065 1493 1250 1424 1250 1207 c 3
 1250 985 1116 839 929 807 c 1
EndSplineSet
EndChar

StartChar: C
Encoding: 36 67 38
Width: 1432
VWidth: 3555
Flags: W
HStem: -28 167<477.472 943.019> 1354 168<716.351 1171.56>
VStem: 56 219<338.965 853.888>
LayerCount: 3
Fore
SplineSet
661 -28 m 259,0,1
 377 -28 377 -28 216.5 115.5 c 128,-1,2
 56 259 56 259 56 532 c 259,3,4
 56 957.570815451 56 957.570815451 308 1239.78540773 c 128,-1,5
 560 1522 560 1522 963 1522 c 259,6,7
 1227 1522 1227 1522 1411 1380 c 1,8,-1
 1368 1167 l 1,9,10
 1202 1354 1202 1354 943 1354 c 259,11,12
 635 1354 635 1354 455 1121.5 c 128,-1,13
 275 889 275 889 275 554 c 259,14,15
 275 348 275 348 385 243.5 c 128,-1,16
 495 139 495 139 705 139 c 259,17,18
 964 139 964 139 1205 326 c 1,19,-1
 1167 115 l 1,20,21
 923 -28 923 -28 661 -28 c 259,0,1
EndSplineSet
Layer: 2
SplineSet
661 -28 m 3
 289 -28 56 162 56 532 c 3
 56 1094 415 1522 963 1522 c 3
 1139 1522 1288 1475 1411 1380 c 1
 1368 1167 l 1
 1257 1292 1115 1354 943 1354 c 3
 531 1354 275 1008 275 554 c 3
 275 277 427 139 705 139 c 3
 877 139 1044 201 1205 326 c 1
 1167 115 l 1
 1005 20 836 -28 661 -28 c 3
EndSplineSet
EndChar

StartChar: D
Encoding: 37 68 39
Width: 1578
VWidth: 3555
Flags: W
HStem: 0 163<252 786.634> 1330 163<479 1011.86>
VStem: 1231 217<661.139 1139.65>
DStem2: 24 0 220.611 0 0.189095 0.981959<203.173 1392.04>
LayerCount: 3
Fore
SplineSet
252 163 m 1,0,-1
 498 163 l 2,1,2
 819 163 819 163 986.5 308.5 c 128,-1,3
 1154 454 1154 454 1212 750 c 256,4,5
 1231 848 1231 848 1231 932 c 259,6,7
 1231 1149 1231 1149 1105.5 1239.5 c 128,-1,8
 980 1330 980 1330 726 1330 c 2,9,-1
 479 1330 l 1,10,-1
 252 163 l 1,0,-1
726 1493 m 2,11,12
 1074 1492 1074 1492 1261 1379.5 c 128,-1,13
 1448 1267 1448 1267 1448 970 c 259,14,15
 1448 864.97 1448 864.97 1425 750 c 256,16,17
 1355.70261136 403.603444713 1355.70261136 403.603444713 1136.35130568 201.801722357 c 128,-1,18
 917 0 917 0 437 0 c 2,19,-1
 24 0 l 1,20,-1
 312 1493 l 1,21,-1
 726 1493 l 2,11,12
EndSplineSet
Layer: 2
SplineSet
252 163 m 1
 498 163 l 2
 939 163 1137 369 1212 750 c 0
 1225 817 1231 877 1231 932 c 3
 1231 1232 1050 1330 726 1330 c 2
 479 1330 l 1
 252 163 l 1
726 1493 m 2
 1176 1493 1448 1376 1448 970 c 3
 1448 903 1441 830 1425 750 c 0
 1323 245 1036 0 437 0 c 2
 24 0 l 1
 312 1493 l 1
 726 1493 l 2
EndSplineSet
EndChar

StartChar: E
Encoding: 38 69 40
Width: 1296
VWidth: 3555
Flags: W
HStem: 0 167<255 988> 712 170<394 1073> 1326 167<479 1224>
DStem2: 24 0 222.841 0 0.189095 0.981959<207.668 762.502 936.053 1388.12>
LayerCount: 3
Fore
SplineSet
1255 1493 m 1,0,-1
 1224 1326 l 1,1,-1
 479 1326 l 1,2,-1
 394 882 l 1,3,-1
 1109 882 l 1,4,-1
 1073 712 l 1,5,-1
 359 712 l 1,6,-1
 255 167 l 1,7,-1
 1021 167 l 1,8,-1
 988 0 l 1,9,-1
 24 0 l 1,10,-1
 312 1493 l 1,11,-1
 1255 1493 l 1,0,-1
EndSplineSet
Layer: 2
SplineSet
1255 1493 m 1
 1224 1326 l 1
 479 1326 l 1
 394 882 l 1
 1109 882 l 1
 1073 712 l 1
 359 712 l 1
 255 167 l 1
 1021 167 l 1
 988 0 l 1
 24 0 l 1
 312 1493 l 1
 1255 1493 l 1
EndSplineSet
EndChar

StartChar: F
Encoding: 39 70 41
Width: 1178
VWidth: 3555
Flags: W
HStem: 0 21G<24 227.888> 715 167<394 957> 1326 167<479 1141>
VStem: 24 200<0 200>
DStem2: 24 0 224 0 0.189095 0.981959<37.8191 766.204 936.053 1388.12>
LayerCount: 3
Fore
SplineSet
1174 1493 m 1,0,-1
 1141 1326 l 1,1,-1
 479 1326 l 1,2,-1
 394 882 l 1,3,-1
 988 882 l 1,4,-1
 957 715 l 1,5,-1
 363 715 l 1,6,-1
 224 0 l 1,7,-1
 24 0 l 1,8,-1
 312 1493 l 1,9,-1
 1174 1493 l 1,0,-1
EndSplineSet
Layer: 2
SplineSet
1174 1493 m 1
 1141 1326 l 1
 479 1326 l 1
 394 882 l 1
 988 882 l 1
 957 715 l 1
 363 715 l 1
 224 0 l 1
 24 0 l 1
 312 1493 l 1
 1174 1493 l 1
EndSplineSet
EndChar

StartChar: G
Encoding: 40 71 42
Width: 1588
VWidth: 3555
Flags: W
HStem: -28 167<477.663 995.412> 615 164<861 1160> 1354 168<723.128 1211.95>
VStem: 56 218<338.527 846.977>
DStem2: 1035.4 -28 1236.84 -28 0.189095 0.981959<214.202 654.961>
LayerCount: 3
Fore
SplineSet
675 -28 m 259,0,1
 385 -28 385 -28 220.5 115.5 c 128,-1,2
 56 259 56 259 56 535 c 259,3,4
 56 951.291139241 56 951.291139241 309.292134831 1236.64556962 c 128,-1,5
 562.584269663 1522 562.584269663 1522 977 1522 c 259,6,7
 1279 1522 1279 1522 1469 1380 c 1,8,-1
 1425 1167 l 1,9,10
 1245 1354 1245 1354 963 1354 c 259,11,12
 632 1354 632 1354 453 1115 c 128,-1,13
 274 876 274 876 274 550 c 259,14,15
 274 139 274 139 726 139 c 259,16,17
 956 139 956 139 1082 214 c 1,18,-1
 1160 615 l 1,19,-1
 828 615 l 1,20,-1
 861 779 l 1,21,-1
 1394 779 l 1,22,-1
 1269 139 l 1,23,24
 1004 -28 1004 -28 675 -28 c 259,0,1
EndSplineSet
Layer: 2
SplineSet
675 -28 m 3
 296 -28 56 160 56 535 c 3
 56 1081 419 1522 977 1522 c 3
 1178 1522 1342 1475 1469 1380 c 1
 1425 1167 l 1
 1305 1292 1151 1354 963 1354 c 3
 557 1354 274 1033 274 550 c 3
 274 276 425 139 726 139 c 3
 875 139 986 157 1082 214 c 1
 1160 615 l 1
 828 615 l 1
 861 779 l 1
 1394 779 l 1
 1269 139 l 1
 1109 38 918 -28 675 -28 c 3
EndSplineSet
EndChar

StartChar: H
Encoding: 41 72 43
Width: 1541
VWidth: 3555
Flags: W
HStem: 0 21G<24 227.792 960 1166.86> 712 170<394 1095> 1473 20G<308.142 512 1244.14 1451>
VStem: 24 200<0 200> 312 200<1293 1493> 960 203<0 203> 1248 203<1290 1493>
DStem2: 24 0 224 0 0.189095 0.981959<37.8191 762.502 936.053 1520.52> 960 0 1163 0 0.189095 0.981959<38.3864 724.682 898.234 1520.52>
LayerCount: 3
Fore
SplineSet
512 1493 m 1,0,-1
 394 882 l 1,1,-1
 1130 882 l 1,2,-1
 1248 1493 l 1,3,-1
 1451 1493 l 1,4,-1
 1163 0 l 1,5,-1
 960 0 l 1,6,-1
 1095 712 l 1,7,-1
 359 712 l 1,8,-1
 224 0 l 1,9,-1
 24 0 l 1,10,-1
 312 1493 l 1,11,-1
 512 1493 l 1,0,-1
EndSplineSet
Layer: 2
SplineSet
512 1493 m 1
 394 882 l 1
 1130 882 l 1
 1248 1493 l 1
 1451 1493 l 1
 1163 0 l 1
 960 0 l 1
 1095 712 l 1
 359 712 l 1
 224 0 l 1
 24 0 l 1
 312 1493 l 1
 512 1493 l 1
EndSplineSet
EndChar

StartChar: I
Encoding: 42 73 44
Width: 604
VWidth: 3555
Flags: W
HStem: 0 21G<24 227.858> 1473 20G<308.142 512>
VStem: 24 200<0 200> 312 200<1293 1493>
DStem2: 24 0 224 0 0.189095 0.981959<37.8191 1520.52>
LayerCount: 3
Fore
SplineSet
512 1493 m 1,0,-1
 224 0 l 1,1,-1
 24 0 l 1,2,-1
 312 1493 l 1,3,-1
 512 1493 l 1,0,-1
EndSplineSet
Layer: 2
SplineSet
512 1493 m 1
 224 0 l 1
 24 0 l 1
 312 1493 l 1
 512 1493 l 1
EndSplineSet
EndChar

StartChar: J
Encoding: 43 74 45
Width: 604
VWidth: 3555
Flags: W
HStem: -410 172<-330 -103.835> 1473 20G<308.132 512>
VStem: 312 200<1293 1493>
DStem2: -55.5957 -410 142.404 -410 0.189095 0.981959<258.007 1938.18>
LayerCount: 3
Fore
SplineSet
512 1493 m 1,0,-1
 241 102 l 2,1,2
 193 -163 193 -163 66 -286.5 c 128,-1,3
 -61 -410 -61 -410 -285 -410 c 2,4,-1
 -363 -410 l 1,5,-1
 -330 -238 l 1,6,-1
 -267 -238 l 2,7,8
 -132 -238 -132 -238 -64.5 -163.5 c 128,-1,9
 3 -89 3 -89 43 102 c 2,10,-1
 312 1493 l 1,11,-1
 512 1493 l 1,0,-1
EndSplineSet
Layer: 2
SplineSet
512 1493 m 1
 241 102 l 2
 181 -207 53 -410 -285 -410 c 2
 -363 -410 l 1
 -330 -238 l 1
 -267 -238 l 2
 -50 -238 2 -107 43 102 c 2
 312 1493 l 1
 512 1493 l 1
EndSplineSet
EndChar

StartChar: K
Encoding: 44 75 46
Width: 1343
VWidth: 3555
Flags: W
HStem: 0 21G<24 227.85 926.934 1208> 1473 20G<308.142 512 1158.75 1443>
VStem: 24 200<0 200> 312 200<1293 1493> 943 265<0 265> 1184 259<1234 1493>
DStem2: 24 0 224 0 0.189095 0.981959<37.8191 773.078 918.792 1520.52> 569 800 363 722 0.624099 -0.781345<0 858.489> 391 865 569 800 0.783573 0.6213<99.0915 1011.55>
LayerCount: 3
Fore
SplineSet
512 1493 m 1,0,-1
 391 865 l 1,1,-1
 1184 1493 l 1,2,-1
 1443 1493 l 1,3,-1
 569 800 l 1,4,-1
 1208 0 l 1,5,-1
 943 0 l 1,6,-1
 363 722 l 1,7,-1
 224 0 l 1,8,-1
 24 0 l 1,9,-1
 312 1493 l 1,10,-1
 512 1493 l 1,0,-1
EndSplineSet
Layer: 2
SplineSet
512 1493 m 1xf8
 391 865 l 1
 1184 1493 l 1
 1443 1493 l 1xf4
 569 800 l 1
 1208 0 l 1
 943 0 l 1
 363 722 l 1
 224 0 l 1
 24 0 l 1
 312 1493 l 1
 512 1493 l 1xf8
EndSplineSet
EndChar

StartChar: L
Encoding: 45 76 47
Width: 1140
VWidth: 3555
Flags: W
HStem: 0 167<255 953> 1473 20G<308.142 512>
VStem: 312 200<1293 1493>
DStem2: 24 0 222.841 0 0.189095 0.981959<207.668 1520.52>
LayerCount: 3
Fore
SplineSet
512 1493 m 1,0,-1
 255 167 l 1,1,-1
 984 167 l 1,2,-1
 953 0 l 1,3,-1
 24 0 l 1,4,-1
 312 1493 l 1,5,-1
 512 1493 l 1,0,-1
EndSplineSet
Layer: 2
SplineSet
512 1493 m 1
 255 167 l 1
 984 167 l 1
 953 0 l 1
 24 0 l 1
 312 1493 l 1
 512 1493 l 1
EndSplineSet
EndChar

StartChar: M
Encoding: 46 77 48
Width: 1765
VWidth: 3555
Flags: W
HStem: 0 21G<24 220.841 1194 1397.86> 1473 20G<308.142 614.658 1365.59 1682>
VStem: 24 193<0 193> 1194 200<0 200>
DStem2: 24 0 217 0 0.189095 0.981959<36.4954 1372.48> 611 1493 469 1312 0.181505 -0.98339<152.22 1033.87> 797 476 865 288 0.494767 0.869025<0 1048.6> 1194 0 1394 0 0.189095 0.981959<37.8191 1336.36>
LayerCount: 3
Fore
SplineSet
611 1493 m 1,0,-1
 797 476 l 1,1,-1
 1377 1493 l 1,2,-1
 1682 1493 l 1,3,-1
 1394 0 l 1,4,-1
 1194 0 l 1,5,-1
 1448 1312 l 1,6,-1
 865 288 l 1,7,-1
 658 288 l 1,8,-1
 469 1312 l 1,9,-1
 217 0 l 1,10,-1
 24 0 l 1,11,-1
 312 1493 l 1,12,-1
 611 1493 l 1,0,-1
EndSplineSet
Layer: 2
SplineSet
611 1493 m 1
 797 476 l 1
 1377 1493 l 1
 1682 1493 l 1
 1394 0 l 1
 1194 0 l 1
 1448 1312 l 1
 865 288 l 1
 658 288 l 1
 469 1312 l 1
 217 0 l 1
 24 0 l 1
 312 1493 l 1
 611 1493 l 1
EndSplineSet
EndChar

StartChar: N
Encoding: 47 78 49
Width: 1534
VWidth: 3555
Flags: W
HStem: 0 21G<24 220.862 878.157 1159.84> 1473 20G<308.142 589.795 1244.14 1443>
VStem: 24 193<0 193> 1248 195<1298 1493>
DStem2: 24 0 217 0 0.189095 0.981959<36.4954 1307.55> 583 1493 458 1248 0.323723 -0.946152<191.342 1318.06> 959.82 0 1156 0 0.189095 0.981959<249.501 1520.56>
LayerCount: 3
Fore
SplineSet
583 1493 m 1,0,-1
 1007 245 l 1,1,-1
 1248 1493 l 1,2,-1
 1443 1493 l 1,3,-1
 1156 0 l 1,4,-1
 885 0 l 1,5,-1
 458 1248 l 1,6,-1
 217 0 l 1,7,-1
 24 0 l 1,8,-1
 312 1493 l 1,9,-1
 583 1493 l 1,0,-1
EndSplineSet
Layer: 2
SplineSet
583 1493 m 1
 1007 245 l 1
 1248 1493 l 1
 1443 1493 l 1
 1156 0 l 1
 885 0 l 1
 458 1248 l 1
 217 0 l 1
 24 0 l 1
 312 1493 l 1
 583 1493 l 1
EndSplineSet
EndChar

StartChar: O
Encoding: 48 79 50
Width: 1612
VWidth: 3555
Flags: W
HStem: -28 163<469.943 866.446> 1358 164<695.891 1082.55>
VStem: 56 220<335.864 854.173> 1273 210<645.263 1154.12>
LayerCount: 3
Fore
SplineSet
1273 938 m 259,0,1
 1273 1131 1273 1131 1173.5 1244.5 c 128,-1,2
 1074 1358 1074 1358 896 1358 c 259,3,4
 598 1358 598 1358 437 1105 c 128,-1,5
 276 852 276 852 276 556 c 259,6,7
 276 358 276 358 375 246.5 c 128,-1,8
 474 135 474 135 658 135 c 259,9,10
 944.473214286 135 944.473214286 135 1108.73660714 375.490196078 c 128,-1,11
 1273 615.980392157 1273 615.980392157 1273 938 c 259,0,1
929 1522 m 259,12,13
 1193 1522 1193 1522 1338 1371.5 c 128,-1,14
 1483 1221 1483 1221 1483 954 c 259,15,16
 1483 580 1483 580 1251 276 c 128,-1,17
 1019 -28 1019 -28 625 -28 c 259,18,19
 363 -28 363 -28 209.5 121.5 c 128,-1,20
 56 271 56 271 56 536 c 259,21,22
 56 950.345132743 56 950.345132743 298.845864662 1236.17256637 c 128,-1,23
 541.691729323 1522 541.691729323 1522 929 1522 c 259,12,13
EndSplineSet
Layer: 2
SplineSet
1273 938 m 3
 1273 1192 1136 1358 896 1358 c 3
 505 1358 276 969 276 556 c 3
 276 296 409 135 658 135 c 3
 1048 135 1273 522 1273 938 c 3
929 1522 m 3
 1283 1522 1483 1307 1483 954 c 3
 1483 449 1155 -28 625 -28 c 3
 280 -28 56 179 56 536 c 3
 56 1082 409 1522 929 1522 c 3
EndSplineSet
EndChar

StartChar: P
Encoding: 49 80 51
Width: 1236
VWidth: 3555
Flags: W
HStem: 0 21G<24 227.827> 601 163<370 801.188> 1330 163<479 903.413>
VStem: 24 200<0 200> 987 216<944.087 1257.42>
DStem2: 24 0 224 0 0.189095 0.981959<37.8191 649.722 815.643 1392.04>
LayerCount: 3
Fore
SplineSet
987 1128 m 259,0,1
 987 1230 987 1230 919 1280 c 128,-1,2
 851 1330 851 1330 736 1330 c 2,3,-1
 479 1330 l 1,4,-1
 370 764 l 1,5,-1
 625 764 l 2,6,7
 787 764 787 764 887 865 c 128,-1,8
 987 966 987 966 987 1128 c 259,0,1
767 1493 m 2,9,10
 1203 1493 1203 1493 1203 1164 c 259,11,12
 1203 893 1203 893 1039 747 c 128,-1,13
 875 601 875 601 594 601 c 2,14,-1
 339 601 l 1,15,-1
 224 0 l 1,16,-1
 24 0 l 1,17,-1
 312 1493 l 1,18,-1
 767 1493 l 2,9,10
EndSplineSet
Layer: 2
SplineSet
987 1128 m 3
 987 1269 882 1330 736 1330 c 2
 479 1330 l 1
 370 764 l 1
 625 764 l 2
 841 764 987 913 987 1128 c 3
767 1493 m 2
 1026 1493 1203 1406 1203 1164 c 3
 1203 796 961 601 594 601 c 2
 339 601 l 1
 224 0 l 1
 24 0 l 1
 312 1493 l 1
 767 1493 l 2
EndSplineSet
EndChar

StartChar: Q
Encoding: 50 81 52
Width: 1612
VWidth: 3555
Flags: W
HStem: -28 163<472.536 708> 1358 164<695.891 1082.55>
VStem: 56 220<335.864 845.047> 882 245<-264 -19> 1273 210<635.883 1154.12>
LayerCount: 3
Fore
SplineSet
1273 938 m 259,0,1
 1273 1131 1273 1131 1173.5 1244.5 c 128,-1,2
 1074 1358 1074 1358 896 1358 c 259,3,4
 649 1358 649 1358 462.5 1132 c 128,-1,5
 276 906 276 906 276 556 c 259,6,7
 276 358 276 358 375 246.5 c 128,-1,8
 474 135 474 135 658 135 c 259,9,10
 944.473214286 135 944.473214286 135 1108.73660714 375.490196078 c 128,-1,11
 1273 615.980392157 1273 615.980392157 1273 938 c 259,0,1
708 -24 m 1,12,-1
 625 -28 l 257,13,14
 363 -28 363 -28 209.5 121.5 c 128,-1,15
 56 271 56 271 56 536 c 259,16,17
 56 920 56 920 296.5 1221 c 128,-1,18
 537 1522 537 1522 929 1522 c 259,19,20
 1193 1522 1193 1522 1338 1371.5 c 128,-1,21
 1483 1221 1483 1221 1483 954 c 259,22,23
 1483 621 1483 621 1327 376 c 128,-1,24
 1171 131 1171 131 917 24 c 1,25,-1
 1127 -264 l 1,26,-1
 882 -264 l 1,27,-1
 708 -24 l 1,12,-1
EndSplineSet
Layer: 2
SplineSet
1273 938 m 3
 1273 1192 1136 1358 896 1358 c 3
 505 1358 276 945 276 556 c 3
 276 296 409 135 658 135 c 3
 1048 135 1273 522 1273 938 c 3
708 -24 m 1
 667 -24 657 -28 625 -28 c 3
 280 -28 56 179 56 536 c 3
 56 1061 409 1522 929 1522 c 3
 1283 1522 1483 1307 1483 954 c 3
 1483 496 1243 161 917 24 c 1
 1127 -264 l 1
 882 -264 l 1
 708 -24 l 1
EndSplineSet
EndChar

StartChar: R
Encoding: 51 82 53
Width: 1425
VWidth: 3555
Flags: W
HStem: 0 21G<24 227.854 960.789 1187> 628 172<377 736.553> 1330 163<479 916.315>
VStem: 24 200<0 200> 967 220<0 220> 988 218<955.032 1263.32>
DStem2: 24 0 224 0 0.189095 0.981959<37.8191 677.37 852.318 1392.04> 1062 404 849 380 0.295581 -0.955318<-261.141 357.868>
LayerCount: 3
Fore
SplineSet
868 700 m 1,0,1
 981 665 981 665 1062 404 c 2,2,-1
 1187 0 l 1,3,-1
 967 0 l 1,4,-1
 849 380 l 2,5,6
 799 543 799 543 735 585.5 c 128,-1,7
 671 628 671 628 566 628 c 2,8,-1
 345 628 l 1,9,-1
 224 0 l 1,10,-1
 24 0 l 1,11,-1
 312 1493 l 1,12,-1
 767 1493 l 2,13,14
 1206 1493 1206 1493 1206 1179 c 259,15,16
 1206 993 1206 993 1114 867.5 c 128,-1,17
 1022 742 1022 742 868 700 c 1,0,1
377 800 m 1,18,-1
 634 800 l 2,19,20
 797 800 797 800 892.5 887 c 128,-1,21
 988 974 988 974 988 1137 c 259,22,23
 988 1330 988 1330 736 1330 c 2,24,-1
 479 1330 l 1,25,-1
 377 800 l 1,18,-1
EndSplineSet
Layer: 2
SplineSet
868 700 m 1xf4
 943 677 1008 578 1062 404 c 2
 1187 0 l 1
 967 0 l 1xf8
 849 380 l 2
 801 533 758 628 566 628 c 2
 345 628 l 1
 224 0 l 1
 24 0 l 1
 312 1493 l 1
 767 1493 l 2
 1060 1493 1206 1388 1206 1179 c 3
 1206 925 1068 755 868 700 c 1xf4
377 800 m 1
 634 800 l 2
 846 800 988 914 988 1137 c 3xf4
 988 1266 904 1330 736 1330 c 2
 479 1330 l 1
 377 800 l 1
EndSplineSet
EndChar

StartChar: S
Encoding: 52 83 54
Width: 1300
VWidth: 3555
Flags: W
HStem: -28 163<210.267 695.563> 1358 164<532.621 1010.59>
VStem: 158 211<950.675 1217.07> 881 217<296.779 573.282>
DStem2: 615 878 519 689 0.97466 -0.223692<-234.851 288.703>
LayerCount: 3
Fore
SplineSet
14 274 m 1,0,1
 243 135 243 135 462 135 c 259,2,3
 668 135 668 135 774.5 225.5 c 128,-1,4
 881 316 881 316 881 452 c 259,5,6
 881 551.01 881 551.01 815 594.005 c 128,-1,7
 749 637 749 637 641 661 c 2,8,-1
 519 689 l 2,9,10
 297 739 297 739 227.5 813.5 c 128,-1,11
 158 888 158 888 158 1005 c 259,12,13
 158 1252.85714286 158 1252.85714286 335 1387.42857143 c 128,-1,14
 512 1522 512 1522 774 1522 c 259,15,16
 968 1522 968 1522 1201 1448 c 1,17,-1
 1163 1248 l 1,18,19
 952 1358 952 1358 771 1358 c 259,20,21
 567 1358 567 1358 468 1276 c 128,-1,22
 369 1194 369 1194 369 1064 c 259,23,24
 369 980 369 980 418.251054852 944.127988748 c 128,-1,25
 467.502109705 908.255977496 467.502109705 908.255977496 615 878 c 2,26,-1
 733 854 l 2,27,28
 902 819 902 819 1000 745.5 c 128,-1,29
 1098 672 1098 672 1098 514 c 259,30,31
 1098 244 1098 244 912 108 c 128,-1,32
 726 -28 726 -28 431 -28 c 259,33,34
 201 -28 201 -28 -24 68 c 1,35,-1
 14 274 l 1,0,1
EndSplineSet
Layer: 2
SplineSet
14 274 m 1
 139 198 282 135 462 135 c 3
 689 135 881 233 881 452 c 3
 881 590 776 630 641 661 c 2
 519 689 l 2
 310 737 158 795 158 1005 c 3
 158 1343 432 1522 774 1522 c 3
 936 1522 1069 1490 1201 1448 c 1
 1163 1248 l 1
 1023 1321 892 1358 771 1358 c 3
 552 1358 369 1272 369 1064 c 3
 369 931 467 908 615 878 c 2
 733 854 l 2
 947 810 1098 735 1098 514 c 3
 1098 141 814 -28 431 -28 c 3
 256 -28 112 10 -24 68 c 1
 14 274 l 1
EndSplineSet
EndChar

StartChar: T
Encoding: 53 84 55
Width: 1249
VWidth: 3555
Flags: W
HStem: 0 21G<345 553.876> 1326 167<106 601 807 1337>
VStem: 345 205<0 205>
DStem2: 345 0 550 0 0.189095 0.981959<38.7646 1350.49>
LayerCount: 3
Fore
SplineSet
1368 1493 m 1,0,-1
 1337 1326 l 1,1,-1
 807 1326 l 1,2,-1
 550 0 l 1,3,-1
 345 0 l 1,4,-1
 601 1326 l 1,5,-1
 75 1326 l 1,6,-1
 106 1493 l 1,7,-1
 1368 1493 l 1,0,-1
EndSplineSet
Layer: 2
SplineSet
1368 1493 m 1
 1337 1326 l 1
 807 1326 l 1
 550 0 l 1
 345 0 l 1
 601 1326 l 1
 75 1326 l 1
 106 1493 l 1
 1368 1493 l 1
EndSplineSet
EndChar

StartChar: U
Encoding: 54 85 56
Width: 1499
VWidth: 3555
Flags: W
HStem: -28 163<400.558 810.484> 1473 20G<284.09 491 1227.11 1432>
VStem: 88 208<240.404 696.586> 288 203<1290 1493> 1231 201<1292 1493>
DStem2: -7.61609 -28 197.57 -28 0.189095 0.981959<490.847 1549.46> 936.57 -28 1138.38 -28 0.189095 0.981959<357.714 1549.23>
LayerCount: 3
Fore
SplineSet
566 -28 m 259,0,1
 88 -28 88 -28 88 389 c 259,2,3
 88 467 88 467 106 562 c 2,4,-1
 288 1493 l 1,5,-1
 491 1493 l 1,6,-1
 316 587 l 2,7,8
 296 485 296 485 296 411 c 259,9,10
 296 267 296 267 370 201 c 128,-1,11
 444 135 444 135 597 135 c 259,12,13
 815 135 815 135 914.5 253.5 c 128,-1,14
 1014 372 1014 372 1055 587 c 2,15,-1
 1231 1493 l 1,16,-1
 1432 1493 l 1,17,-1
 1252 562 l 2,18,19
 1198 284 1198 284 1028.5 128 c 128,-1,20
 859 -28 859 -28 566 -28 c 259,0,1
EndSplineSet
Layer: 2
SplineSet
566 -28 m 259xe8
 267 -28 88 99 88 389 c 3xe8
 88 442 94 499 106 562 c 2
 288 1493 l 1
 491 1493 l 1xd8
 316 587 l 2
 303 521 296 462 296 411 c 3
 296 216 396 135 597 135 c 3
 897 135 1002 312 1055 587 c 2
 1231 1493 l 1
 1432 1493 l 1
 1252 562 l 2
 1183 207 971 -28 566 -28 c 259xe8
EndSplineSet
EndChar

StartChar: V
Encoding: 55 86 57
Width: 1399
VWidth: 3555
Flags: W
HStem: 0 21G<406.182 652.413> 1473 20G<125 342.606 1274.56 1493>
VStem: 125 214<1279 1493>
DStem2: 339 1493 125 1493 0.187505 -0.982264<0 1279.23> 566 234 641 0 0.495638 0.868529<0 1450.34>
LayerCount: 3
Fore
SplineSet
125 1493 m 1,0,-1
 339 1493 l 1,1,-1
 566 234 l 1,2,-1
 1286 1493 l 1,3,-1
 1493 1493 l 1,4,-1
 641 0 l 1,5,-1
 410 0 l 1,6,-1
 125 1493 l 1,0,-1
EndSplineSet
Layer: 2
SplineSet
125 1493 m 1
 339 1493 l 1
 566 234 l 1
 1286 1493 l 1
 1493 1493 l 1
 641 0 l 1
 410 0 l 1
 125 1493 l 1
EndSplineSet
EndChar

StartChar: W
Encoding: 56 87 58
Width: 2029
VWidth: 3555
Flags: W
HStem: 0 21G<265.848 527.714 1151.95 1416.85> 1473 20G<181 381.125 1001.14 1239.13 1854.22 2069>
VStem: 181 199<1294 1493>
DStem2: 380 1493 181 1493 0.0575068 -0.998345<0 1263.99> 451 231 519 0 0.399449 0.916756<0 1232.35> 1238 1493 1085 1299 0.0522764 -0.998633<185.736 1263.99> 1309 231 1408 0 0.404831 0.914391<0 1378.24>
LayerCount: 3
Fore
SplineSet
380 1493 m 1,0,-1
 451 231 l 1,1,-1
 1010 1493 l 1,2,-1
 1238 1493 l 1,3,-1
 1309 231 l 1,4,-1
 1863 1493 l 1,5,-1
 2069 1493 l 1,6,-1
 1408 0 l 1,7,-1
 1153 0 l 1,8,-1
 1085 1299 l 1,9,-1
 519 0 l 1,10,-1
 267 0 l 1,11,-1
 181 1493 l 1,12,-1
 380 1493 l 1,0,-1
EndSplineSet
Layer: 2
SplineSet
380 1493 m 1
 451 231 l 1
 1010 1493 l 1
 1238 1493 l 1
 1309 231 l 1
 1863 1493 l 1
 2069 1493 l 1
 1408 0 l 1
 1153 0 l 1
 1085 1299 l 1
 519 0 l 1
 267 0 l 1
 181 1493 l 1
 380 1493 l 1
EndSplineSet
EndChar

StartChar: X
Encoding: 57 88 59
Width: 1407
VWidth: 3555
Flags: W
HStem: 0 21G<-115 116.237 936.644 1163> 1473 20G<238 467.531 1183.71 1418>
VStem: -115 214<0 214> 1201 217<1276 1493>
DStem2: -115 0 99 0 0.661239 0.750175<141.505 982.387 1257.87 1990.2> 458 1493 238 1493 0.428477 -0.903553<0 613.686 854.852 1558.1>
LayerCount: 3
Fore
SplineSet
458 1493 m 1,0,-1
 722 939 l 1,1,-1
 1201 1493 l 1,2,-1
 1418 1493 l 1,3,-1
 800 774 l 1,4,-1
 1163 0 l 1,5,-1
 946 0 l 1,6,-1
 648 637 l 1,7,-1
 99 0 l 1,8,-1
 -115 0 l 1,9,-1
 573 800 l 1,10,-1
 238 1493 l 1,11,-1
 458 1493 l 1,0,-1
EndSplineSet
Layer: 2
SplineSet
458 1493 m 1
 722 939 l 1
 1201 1493 l 1
 1418 1493 l 1
 800 774 l 1
 1163 0 l 1
 946 0 l 1
 648 637 l 1
 99 0 l 1
 -115 0 l 1
 573 800 l 1
 238 1493 l 1
 458 1493 l 1
EndSplineSet
EndChar

StartChar: Y
Encoding: 58 89 60
Width: 1249
VWidth: 3555
Flags: W
HStem: 0 21G<345 553.82> 1473 20G<106 332.593 1135.6 1364>
VStem: 345 205<0 205> 1153 211<1282 1493>
DStem2: 323 1493 106 1493 0.430965 -0.902369<0 682.091> 345 0 550 0 0.189095 0.981959<38.7646 724.493> 618 878 686 712 0.655556 0.755146<0 815.138>
LayerCount: 3
Fore
SplineSet
323 1493 m 1,0,-1
 618 878 l 1,1,-1
 1153 1493 l 1,2,-1
 1364 1493 l 1,3,-1
 686 712 l 1,4,-1
 550 0 l 1,5,-1
 345 0 l 1,6,-1
 479 712 l 1,7,-1
 106 1493 l 1,8,-1
 323 1493 l 1,0,-1
EndSplineSet
Layer: 2
SplineSet
323 1493 m 1
 618 878 l 1
 1153 1493 l 1
 1364 1493 l 1
 686 712 l 1
 550 0 l 1
 345 0 l 1
 479 712 l 1
 106 1493 l 1
 323 1493 l 1
EndSplineSet
EndChar

StartChar: Z
Encoding: 59 90 61
Width: 1407
VWidth: 3555
Flags: W
HStem: 0 167<200 1134> 1326 167<224 1113>
DStem2: -57 153 200 167 0.707107 0.707107<191.626 1656.75>
LayerCount: 3
Fore
SplineSet
1401 1493 m 1,0,-1
 1373 1340 l 1,1,-1
 200 167 l 1,2,-1
 1167 167 l 1,3,-1
 1134 0 l 1,4,-1
 -85 0 l 1,5,-1
 -57 153 l 1,6,-1
 1113 1326 l 1,7,-1
 193 1326 l 1,8,-1
 224 1493 l 1,9,-1
 1401 1493 l 1,0,-1
EndSplineSet
Layer: 2
SplineSet
1401 1493 m 1
 1373 1340 l 1
 200 167 l 1
 1167 167 l 1
 1134 0 l 1
 -85 0 l 1
 -57 153 l 1
 1113 1326 l 1
 193 1326 l 1
 224 1493 l 1
 1401 1493 l 1
EndSplineSet
EndChar

StartChar: bracketleft
Encoding: 60 91 62
Width: 798
VWidth: 3555
Flags: W
HStem: -271 143<160 370> 1415 142<458 696>
DStem2: -57 -271 132.463 -271 0.189095 0.981959<181.454 1752.97>
LayerCount: 3
Fore
SplineSet
726 1557 m 1,0,-1
 696 1415 l 1,1,-1
 458 1415 l 1,2,-1
 160 -128 l 1,3,-1
 398 -128 l 1,4,-1
 370 -271 l 1,5,-1
 -57 -271 l 1,6,-1
 299 1557 l 1,7,-1
 726 1557 l 1,0,-1
EndSplineSet
Layer: 2
SplineSet
726 1557 m 1
 696 1415 l 1
 458 1415 l 1
 160 -128 l 1
 398 -128 l 1
 370 -271 l 1
 -57 -271 l 1
 299 1557 l 1
 726 1557 l 1
EndSplineSet
EndChar

StartChar: backslash
Encoding: 61 92 63
Width: 689
VWidth: 3555
Flags: W
HStem: 1473 20G<109 280.301>
VStem: 109 169<1324 1493> 302 170<-193 -23>
DStem2: 278 1493 109 1493 0.114311 -0.993445<0 1677.69>
LayerCount: 3
Fore
SplineSet
472 -193 m 1,0,-1
 302 -193 l 1,1,-1
 109 1493 l 1,2,-1
 278 1493 l 1,3,-1
 472 -193 l 1,0,-1
EndSplineSet
Layer: 2
SplineSet
472 -193 m 1
 302 -193 l 1
 109 1493 l 1
 278 1493 l 1
 472 -193 l 1
EndSplineSet
EndChar

StartChar: bracketright
Encoding: 62 93 64
Width: 798
VWidth: 3555
Flags: W
HStem: -271 143<-3 238> 1415 142<323 536>
DStem2: 210.463 -271 391 -271 0.189095 0.981959<145.627 1717.14>
LayerCount: 3
Fore
SplineSet
391 -271 m 1,0,-1
 -31 -271 l 1,1,-1
 -3 -128 l 1,2,-1
 238 -128 l 1,3,-1
 536 1415 l 1,4,-1
 295 1415 l 1,5,-1
 323 1557 l 1,6,-1
 746 1557 l 1,7,-1
 391 -271 l 1,0,-1
EndSplineSet
Layer: 2
SplineSet
391 -271 m 1
 -31 -271 l 1
 -3 -128 l 1
 238 -128 l 1
 536 1415 l 1
 295 1415 l 1
 323 1557 l 1
 746 1557 l 1
 391 -271 l 1
EndSplineSet
EndChar

StartChar: asciicircum
Encoding: 63 94 65
Width: 1716
VWidth: 3555
Flags: W
HStem: 939 554
LayerCount: 3
Fore
SplineSet
1503 939 m 1,0,-1
 1305 939 l 1,1,-1
 936 1333 l 1,2,-1
 420 939 l 1,3,-1
 224 939 l 1,4,-1
 871 1493 l 1,5,-1
 1066 1493 l 1,6,-1
 1503 939 l 1,0,-1
EndSplineSet
Layer: 2
SplineSet
1503 939 m 1
 1305 939 l 1
 936 1333 l 1
 420 939 l 1
 224 939 l 1
 871 1493 l 1
 1066 1493 l 1
 1503 939 l 1
EndSplineSet
EndChar

StartChar: underscore
Encoding: 64 95 66
Width: 1022
VWidth: 3555
Flags: W
HStem: -484 142<-260 774>
LayerCount: 3
Fore
SplineSet
774 -484 m 1,0,-1
 -288 -484 l 1,1,-1
 -260 -342 l 1,2,-1
 804 -342 l 1,3,-1
 774 -484 l 1,0,-1
EndSplineSet
Layer: 2
SplineSet
774 -484 m 1
 -288 -484 l 1
 -260 -342 l 1
 804 -342 l 1
 774 -484 l 1
EndSplineSet
EndChar

StartChar: grave
Encoding: 65 96 67
Width: 1022
VWidth: 3555
Flags: W
HStem: 1266 373
VStem: 306 409
LayerCount: 3
Fore
SplineSet
715 1266 m 1,0,-1
 566 1266 l 1,1,-1
 306 1639 l 1,2,-1
 509 1639 l 1,3,-1
 715 1266 l 1,0,-1
EndSplineSet
Layer: 2
SplineSet
715 1266 m 1
 566 1266 l 1
 306 1639 l 1
 509 1639 l 1
 715 1266 l 1
EndSplineSet
EndChar

StartChar: a
Encoding: 66 97 68
Width: 1253
VWidth: 3555
Flags: W
HStem: -28 153<244.438 537.84> 0 21G<708 895.807> 566 142<339.628 814> 991 153<324.965 767.887>
VStem: -0 191<175.558 442.906> 852 179<709.87 916.524>
DStem2: 702.608 -28 886.608 -28 0.189095 0.981959<63.308 198.553 341.268 604.347 749.08 832.254>
LayerCount: 3
Fore
SplineSet
191 288 m 259,0,1
 191 208 191 208 244.5 166.5 c 128,-1,2
 298 125 298 125 387 125 c 259,3,4
 561 125 561 125 669.787885878 245.049609193 c 128,-1,5
 778.575771756 365.099218386 778.575771756 365.099218386 814 566 c 1,6,-1
 634 566 l 2,7,8
 378 566 378 566 284.5 493.5 c 128,-1,9
 191 421 191 421 191 288 c 259,0,1
852 792 m 259,10,11
 852 895 852 895 779 943 c 128,-1,12
 706 991 706 991 583 991 c 259,13,14
 389 991 389 991 203 899 c 1,15,-1
 234 1069 l 1,16,17
 431 1144 431 1144 628 1144 c 259,18,19
 1031 1144 1031 1144 1031 797 c 259,20,21
 1031 729 1031 729 1014 641 c 2,22,-1
 892 0 l 1,23,-1
 708 0 l 1,24,-1
 740 167 l 1,25,26
 576 -28 576 -28 312 -28 c 259,27,28
 169 -28 169 -28 84.5 43 c 128,-1,29
 0 114 0 114 0 247 c 259,30,31
 0 473 0 473 161.5 590.5 c 128,-1,32
 323 708 323 708 583 708 c 2,33,-1
 842 708 l 1,34,35
 852 776 852 776 852 792 c 259,10,11
EndSplineSet
Layer: 2
SplineSet
191 288 m 3xbc
 191 177 274 125 387 125 c 3
 644 125 776 333 814 566 c 1
 634 566 l 2
 394 566 191 524 191 288 c 3xbc
852 792 m 3
 852 936 737 991 583 991 c 3
 452 991 326 960 203 899 c 1
 234 1069 l 1
 352 1114 482 1144 628 1144 c 3
 897 1144 1031 1028 1031 797 c 3
 1031 750 1025 698 1014 641 c 2
 892 0 l 1
 708 0 l 1x7c
 740 167 l 1
 631 37 488 -28 312 -28 c 3
 127 -28 0 65 -0 247 c 3
 0 563 253 708 583 708 c 2
 842 708 l 1
 846 735 852 766 852 792 c 3
EndSplineSet
Substitution2: "Single Substitution lookup 22 subtable" uni0E38
EndChar

StartChar: b
Encoding: 67 98 69
Width: 1300
VWidth: 3555
Flags: W
HStem: -28 153<385.071 692.416> 0 21G<10 199.713> 991 153<559.047 845.565>
VStem: 312 186<1371 1557> 940 197<448.879 893.155>
DStem2: 4.60805 -28 190.608 -28 0.189095 0.981959<63.6862 233.535 488.518 898.066 1034.29 1614.53>
LayerCount: 3
Fore
SplineSet
287 413 m 259,0,1
 287 278 287 278 348 201.5 c 128,-1,2
 409 125 409 125 529 125 c 259,3,4
 722 125 722 125 831 304.46969697 c 128,-1,5
 940 483.939393939 940 483.939393939 940 712 c 259,6,7
 940 844 940 844 879.5 917.5 c 128,-1,8
 819 991 819 991 700 991 c 259,9,10
 528.822580645 991 528.822580645 991 432.495310092 863.929983526 c 128,-1,11
 336.168039539 736.859967051 336.168039539 736.859967051 302 562 c 256,12,13
 287 481 287 481 287 413 c 259,0,1
771 1144 m 259,14,15
 943 1144 943 1144 1040 1031 c 128,-1,16
 1137 918 1137 918 1137 731 c 259,17,18
 1137 441 1137 441 969.5 206.5 c 128,-1,19
 802 -28 802 -28 543 -28 c 259,20,21
 302 -28 302 -28 227 167 c 1,22,-1
 196 0 l 1,23,-1
 10 0 l 1,24,-1
 312 1557 l 1,25,-1
 498 1557 l 1,26,-1
 380 953 l 1,27,28
 526 1144 526 1144 771 1144 c 259,14,15
EndSplineSet
Layer: 2
SplineSet
287 413 m 3xb8
 287 239 364 125 529 125 c 259
 802 125 940 422 940 712 c 3
 940 883 863 991 700 991 c 259
 463 991 346 782 302 562 c 0
 292 508 287 458 287 413 c 3xb8
771 1144 m 3
 1003 1144 1137 977 1137 731 c 3
 1137 347 900 -28 543 -28 c 3xb8
 382 -28 277 37 227 167 c 1
 196 0 l 1
 10 0 l 1x78
 312 1557 l 1
 498 1557 l 1
 380 953 l 1
 477 1080 608 1144 771 1144 c 3
EndSplineSet
Substitution2: "Single Substitution lookup 22 subtable" uni0E39
EndChar

StartChar: c
Encoding: 68 99 70
Width: 1126
VWidth: 3555
Flags: W
HStem: -28 156<345.695 754.018> 991 153<499.981 918.714>
VStem: 26 199<253.645 679.45>
LayerCount: 3
Fore
SplineSet
479 -28 m 259,0,1
 267 -28 267 -28 146.5 83.5 c 128,-1,2
 26 195 26 195 26 401 c 259,3,4
 26 617 26 617 111 785.5 c 128,-1,5
 196 954 196 954 354.5 1049 c 128,-1,6
 513 1144 513 1144 722 1144 c 259,7,8
 896 1144 896 1144 1028 1078 c 1,9,-1
 995 906 l 1,10,11
 865 991 865 991 700 991 c 259,12,13
 555 991 555 991 445.5 916 c 128,-1,14
 336 841 336 841 280.5 715 c 128,-1,15
 225 589 225 589 225 433 c 259,16,17
 225 285 225 285 303 206.5 c 128,-1,18
 381 128 381 128 529 128 c 259,19,20
 712 128 712 128 861 214 c 1,21,-1
 828 43 l 1,22,23
 657 -28 657 -28 479 -28 c 259,0,1
EndSplineSet
Layer: 2
SplineSet
479 -28 m 3
 201 -28 26 122 26 401 c 3
 26 835 298 1144 722 1144 c 3
 838 1144 940 1122 1028 1078 c 1
 995 906 l 1
 908 963 810 991 700 991 c 3
 401 991 225 743 225 433 c 3
 225 235 332 128 529 128 c 3
 659 128 769 161 861 214 c 1
 828 43 l 1
 715 -4 598 -28 479 -28 c 3
EndSplineSet
Substitution2: "Single Substitution lookup 22 subtable" uni0E3A
EndChar

StartChar: d
Encoding: 69 100 71
Width: 1300
VWidth: 3555
Flags: W
HStem: -28 153<314.41 597.915> 0 21G<753 942.879> 991 153<458.08 779.991>
VStem: 26 190<230.11 672.676> 1055 186<1371 1557>
DStem2: 747.608 -28 933.608 -28 0.189095 0.981959<63.6862 198.742 334.072 742.071 999.493 1614.53>
LayerCount: 3
Fore
SplineSet
387 -28 m 259,0,1
 218 -28 218 -28 122 87.5 c 128,-1,2
 26 203 26 203 26 391 c 259,3,4
 26 684 26 684 191 914 c 128,-1,5
 356 1144 356 1144 615 1144 c 259,6,7
 858 1144 858 1144 939 953 c 1,8,-1
 1055 1557 l 1,9,-1
 1241 1557 l 1,10,-1
 939 0 l 1,11,-1
 753 0 l 1,12,-1
 786 167 l 1,13,14
 706 73 706 73 613 22.5 c 128,-1,15
 520 -28 520 -28 387 -28 c 259,0,1
876 705 m 259,16,17
 876 838 876 838 814.5 914.5 c 128,-1,18
 753 991 753 991 628 991 c 259,19,20
 436 991 436 991 326 816 c 128,-1,21
 216 641 216 641 216 413 c 259,22,23
 216 278 216 278 277 201.5 c 128,-1,24
 338 125 338 125 458 125 c 259,25,26
 631 125 631 125 729.5 257.5 c 128,-1,27
 828 390 828 390 861 562 c 256,28,29
 876 640 876 640 876 705 c 259,16,17
EndSplineSet
Layer: 2
SplineSet
387 -28 m 3xb8
 157 -28 26 145 26 391 c 3
 26 774 259 1144 615 1144 c 3
 777 1144 885 1080 939 953 c 1
 1055 1557 l 1
 1241 1557 l 1
 939 0 l 1
 753 0 l 1x78
 786 167 l 1
 691 55 577 -28 387 -28 c 3xb8
876 705 m 3
 876 880 795 991 628 991 c 259
 356 991 216 702 216 413 c 3
 216 239 293 125 458 125 c 259xb8
 697 125 818 339 861 562 c 0
 871 614 876 662 876 705 c 3
EndSplineSet
EndChar

StartChar: e
Encoding: 70 101 72
Width: 1262
VWidth: 3555
Flags: W
HStem: -28 156<348.973 822.464> 516 142<260 926.308> 991 153<487.077 836.575>
VStem: 27 193<257.067 506.682> 929 179<662.025 896.688>
LayerCount: 3
Fore
SplineSet
705 1144 m 259,0,1
 893 1144 893 1144 1000.5 1043 c 128,-1,2
 1108 942 1108 942 1108 757 c 259,3,4
 1108 693 1108 693 1092 608 c 1,5,-1
 1073 516 l 1,6,-1
 224 516 l 1,7,8
 220 483 220 483 220 443 c 259,9,10
 220 128 220 128 550 128 c 259,11,12
 765 128 765 128 974 231 c 1,13,-1
 943 57 l 1,14,15
 730 -28 730 -28 512 -28 c 259,16,17
 291 -28 291 -28 159 83 c 128,-1,18
 27 194 27 194 27 402 c 259,19,20
 27 611 27 611 110.5 779.5 c 128,-1,21
 194 948 194 948 349.5 1046 c 128,-1,22
 505 1144 505 1144 705 1144 c 259,0,1
929 750 m 259,23,24
 929 864 929 864 861.5 927.5 c 128,-1,25
 794 991 794 991 679 991 c 259,26,27
 515 991 515 991 409 900.5 c 128,-1,28
 303 810 303 810 260 658 c 1,29,-1
 920 661 l 1,30,31
 929 709 929 709 929 750 c 259,23,24
EndSplineSet
Layer: 2
SplineSet
705 1144 m 3
 952 1144 1108 1006 1108 757 c 3
 1108 711 1102 661 1092 608 c 2
 1073 516 l 1
 224 516 l 1
 221 491 220 466 220 443 c 3
 220 233 330 128 550 128 c 3
 693 128 834 162 974 231 c 1
 943 57 l 1
 800 0 657 -28 512 -28 c 3
 225 -28 27 118 27 402 c 3
 27 822 297 1144 705 1144 c 3
929 750 m 3
 929 904 831 991 679 991 c 3
 450 991 314 850 260 658 c 1
 920 661 l 1
 926 693 929 722 929 750 c 3
EndSplineSet
EndChar

StartChar: f
Encoding: 71 102 73
Width: 720
VWidth: 3555
Flags: W
HStem: 0 21G<47 230.889> 977 143<85 234 444 722> 1408 149<527.889 854>
VStem: 47 180<0 180>
DStem2: 47 0 227 0 0.189095 0.981959<34.0372 994.735 1174.86 1435.32>
LayerCount: 3
Fore
SplineSet
854 1408 m 1,0,-1
 679 1408 l 2,1,2
 580 1408 580 1408 532 1367 c 128,-1,3
 484 1326 484 1326 462 1219 c 2,4,-1
 444 1120 l 1,5,-1
 750 1120 l 1,6,-1
 722 977 l 1,7,-1
 417 977 l 1,8,-1
 227 0 l 1,9,-1
 47 0 l 1,10,-1
 234 977 l 1,11,-1
 57 977 l 1,12,-1
 85 1120 l 1,13,-1
 264 1120 l 1,14,-1
 278 1201 l 2,15,16
 316 1387 316 1387 417.5 1472 c 128,-1,17
 519 1557 519 1557 712 1557 c 2,18,-1
 885 1557 l 1,19,-1
 854 1408 l 1,0,-1
EndSplineSet
Layer: 2
SplineSet
854 1408 m 1
 679 1408 l 2
 533 1408 486 1350 462 1219 c 2
 444 1120 l 1
 750 1120 l 1
 722 977 l 1
 417 977 l 1
 227 0 l 1
 47 0 l 1
 234 977 l 1
 57 977 l 1
 85 1120 l 1
 264 1120 l 1
 278 1201 l 2
 319 1437 439 1557 712 1557 c 2
 885 1557 l 1
 854 1408 l 1
EndSplineSet
EndChar

StartChar: g
Encoding: 72 103 74
Width: 1300
VWidth: 3555
Flags: W
HStem: -431 157<111.762 548.332> 0 153<313.489 604.36> 991 153<460.618 779.879> 1100 20G<966.287 1156>
VStem: 30 189<252.601 686.199>
DStem2: 667.59 -431 853.235 -431 0.189095 0.981959<327.141 642.763 755.889 1160.46 1410.35 1580.2>
LayerCount: 3
Fore
SplineSet
219 433 m 259,0,1
 219 300 219 300 281.5 226.5 c 128,-1,2
 344 153 344 153 465 153 c 259,3,4
 638 153 638 153 734.5 277 c 128,-1,5
 831 401 831 401 865 576 c 256,6,7
 879 645 879 645 879 712 c 259,8,9
 879 843 879 843 814.5 917 c 128,-1,10
 750 991 750 991 628 991 c 259,11,12
 432 991 432 991 325.5 822.5 c 128,-1,13
 219 654 219 654 219 433 c 259,0,1
394 0 m 259,14,15
 224 0 224 0 127 112.5 c 128,-1,16
 30 225 30 225 30 410 c 259,17,18
 30 700 30 700 193 922 c 128,-1,19
 356 1144 356 1144 615 1144 c 259,20,21
 868 1144 868 1144 939 953 c 1,22,-1
 970 1120 l 1,23,-1
 1156 1120 l 1,24,-1
 963 139 l 2,25,26
 850 -431 850 -431 339 -431 c 259,27,28
 219 -431 219 -431 144 -411 c 128,-1,29
 69 -391 69 -391 -3 -370 c 1,30,-1
 31 -189 l 1,31,32
 181 -274 181 -274 342 -274 c 259,33,34
 694 -274 694 -274 771 106 c 2,35,-1
 790 200 l 1,36,37
 641 0 641 0 394 0 c 259,14,15
EndSplineSet
Layer: 2
SplineSet
219 433 m 3xe8
 219 260 300 153 465 153 c 259
 703 153 821 354 865 576 c 0
 875 625 879 671 879 712 c 3
 879 884 794 991 628 991 c 259
 361 991 219 716 219 433 c 3xe8
394 0 m 3
 164 0 30 167 30 410 c 3
 30 789 266 1144 615 1144 c 3xe8
 784 1144 892 1080 939 953 c 1
 970 1120 l 1
 1156 1120 l 1xd8
 963 139 l 2
 888 -241 682 -431 339 -431 c 3
 201 -431 105 -402 -3 -370 c 1
 31 -189 l 1
 121 -240 211 -274 342 -274 c 3
 578 -274 720 -147 771 106 c 2
 790 200 l 1
 691 67 559 0 394 0 c 3
EndSplineSet
EndChar

StartChar: h
Encoding: 73 104 75
Width: 1300
VWidth: 3555
Flags: W
HStem: 0 21G<10 199.785 764 949.888> 988 156<565.895 849.12>
VStem: 10 186<0 186> 312 186<1371 1557> 764 182<0 182> 905 188<531.391 929.163>
DStem2: 10 0 196 0 0.189095 0.981959<35.1718 900.759 1002.26 1586.02> 764 0 946 0 0.189095 0.981959<34.4154 797.849>
LayerCount: 3
Fore
SplineSet
774 1144 m 259,0,1
 1093 1144 1093 1144 1093 828 c 259,2,3
 1093 760 1093 760 1078 679 c 2,4,-1
 946 0 l 1,5,-1
 764 0 l 1,6,-1
 892 668 l 2,7,8
 905 732 905 732 905 787 c 259,9,10
 905 988 905 988 708 988 c 259,11,12
 545 988 545 988 446 891 c 128,-1,13
 347 794 347 794 316 634 c 2,14,-1
 196 0 l 1,15,-1
 10 0 l 1,16,-1
 312 1557 l 1,17,-1
 498 1557 l 1,18,-1
 377 950 l 1,19,20
 460 1044 460 1044 552 1094 c 128,-1,21
 644 1144 644 1144 774 1144 c 259,0,1
EndSplineSet
Layer: 2
SplineSet
774 1144 m 3xf4
 986 1144 1093 1038 1093 828 c 3xf4
 1093 783 1088 733 1078 679 c 2
 946 0 l 1
 764 0 l 1xf8
 892 668 l 2
 901 712 905 752 905 787 c 3
 905 921 840 988 708 988 c 3
 481 988 355 836 316 634 c 2
 196 0 l 1
 10 0 l 1
 312 1557 l 1
 498 1557 l 1
 377 950 l 1
 475 1061 588 1144 774 1144 c 3xf4
EndSplineSet
EndChar

StartChar: i
Encoding: 74 105 76
Width: 571
VWidth: 3555
Flags: W
HStem: 0 21G<17 203.875> 1100 20G<230.125 417> 1326 231<319 455>
VStem: 17 183<0 183> 234 183<937 1120> 274 181<1326 1507> 319 183<1374 1557>
DStem2: 17 0 200 0 0.189095 0.981959<34.6045 1140.83 1384.9 1586.02>
LayerCount: 3
Fore
SplineSet
417 1120 m 1,0,-1
 200 0 l 1,1,-1
 17 0 l 1,2,-1
 234 1120 l 1,3,-1
 417 1120 l 1,0,-1
502 1557 m 1,4,-1
 455 1326 l 1,5,-1
 274 1326 l 1,6,-1
 319 1557 l 1,7,-1
 502 1557 l 1,4,-1
EndSplineSet
Layer: 2
SplineSet
417 1120 m 1xf8
 200 0 l 1
 17 0 l 1
 234 1120 l 1
 417 1120 l 1xf8
502 1557 m 1xf2
 455 1326 l 1
 274 1326 l 1xf4
 319 1557 l 1
 502 1557 l 1xf2
EndSplineSet
EndChar

StartChar: j
Encoding: 75 106 77
Width: 571
VWidth: 3555
Flags: W
HStem: -431 160<-264 -71.2582> 1100 20G<230.13 417> 1326 231<319 455>
VStem: 234 183<937 1120> 274 181<1326 1507> 319 183<1374 1557>
DStem2: -65.7238 -431 116.276 -431 0.189095 0.981959<203.361 1579.69 1823.77 2024.88>
LayerCount: 3
Fore
SplineSet
417 1120 m 1,0,-1
 196 -17 l 2,1,2
 153 -234 153 -234 53 -332.5 c 128,-1,3
 -47 -431 -47 -431 -227 -431 c 2,4,-1
 -295 -431 l 1,5,-1
 -264 -271 l 1,6,-1
 -217 -271 l 2,7,8
 -115 -271 -115 -271 -66 -220.5 c 128,-1,9
 -17 -170 -17 -170 14 -17 c 2,10,-1
 234 1120 l 1,11,-1
 417 1120 l 1,0,-1
502 1557 m 1,12,-1
 455 1326 l 1,13,-1
 274 1326 l 1,14,-1
 319 1557 l 1,15,-1
 502 1557 l 1,12,-1
EndSplineSet
Layer: 2
SplineSet
417 1120 m 1xf0
 196 -17 l 2
 147 -268 47 -431 -227 -431 c 2
 -295 -431 l 1
 -264 -271 l 1
 -217 -271 l 2
 -50 -271 -18 -182 14 -17 c 2
 234 1120 l 1
 417 1120 l 1xf0
502 1557 m 1xe4
 455 1326 l 1
 274 1326 l 1xe8
 319 1557 l 1
 502 1557 l 1xe4
EndSplineSet
EndChar

StartChar: k
Encoding: 76 107 78
Width: 1187
VWidth: 3555
Flags: W
HStem: 0 21G<10 199.794 746.873 1007> 1100 20G<933.333 1194>
VStem: 10 186<0 186> 312 186<1371 1557> 764 243<0 243> 960 234<886 1120>
DStem2: 10 0 196 0 0.189095 0.981959<35.1718 587.852 683.371 1586.02> 498 597 299 543 0.648795 -0.760964<0 626.875> 316 637 498 597 0.799448 0.600735<121.47 805>
LayerCount: 3
Fore
SplineSet
498 1557 m 1,0,-1
 316 637 l 1,1,-1
 960 1120 l 1,2,-1
 1194 1120 l 1,3,-1
 498 597 l 1,4,-1
 1007 0 l 1,5,-1
 764 0 l 1,6,-1
 299 543 l 1,7,-1
 196 0 l 1,8,-1
 10 0 l 1,9,-1
 312 1557 l 1,10,-1
 498 1557 l 1,0,-1
EndSplineSet
Layer: 2
SplineSet
498 1557 m 1xf8
 316 637 l 1
 960 1120 l 1
 1194 1120 l 1xf4
 498 597 l 1
 1007 0 l 1
 764 0 l 1
 299 543 l 1
 196 0 l 1
 10 0 l 1
 312 1557 l 1
 498 1557 l 1xf8
EndSplineSet
EndChar

StartChar: l
Encoding: 77 108 79
Width: 571
VWidth: 3555
Flags: W
HStem: 0 21G<17 203.879>
VStem: 17 183<0 183> 319 183<1374 1557>
DStem2: 17 0 200 0 0.189095 0.981959<34.6045 1586.02>
LayerCount: 3
Fore
SplineSet
502 1557 m 1,0,-1
 200 0 l 1,1,-1
 17 0 l 1,2,-1
 319 1557 l 1,3,-1
 502 1557 l 1,0,-1
EndSplineSet
Layer: 2
SplineSet
502 1557 m 1
 200 0 l 1
 17 0 l 1
 319 1557 l 1
 502 1557 l 1
EndSplineSet
EndChar

StartChar: m
Encoding: 78 109 80
Width: 1992
VWidth: 3555
Flags: W
HStem: 0 21G<10 199.785 733 923.849 1458 1649.89> 988 156<561.61 828.31 1298.27 1546.2> 1100 20G<223.125 413>
VStem: 10 186<0 186> 733 187<0 187> 1458 188<0 188> 1599 195<531.391 936.33>
DStem2: 10 0 196 0 0.189095 0.981959<35.1718 907.016 1002.26 1140.83> 733 0 920 0 0.189095 0.981959<35.3608 810.664> 1458 0 1646 0 0.189095 0.981959<35.5499 803.649>
LayerCount: 3
Fore
SplineSet
377 950 m 1,0,1
 457 1046 457 1046 548.5 1095 c 128,-1,2
 640 1144 640 1144 774 1144 c 259,3,4
 1025 1144 1025 1144 1062 906 c 1,5,6
 1245 1144 1245 1144 1500 1144 c 259,7,8
 1643 1144 1643 1144 1718.5 1062.5 c 128,-1,9
 1794 981 1794 981 1794 831 c 259,10,11
 1794 759 1794 759 1778 679 c 2,12,-1
 1646 0 l 1,13,-1
 1458 0 l 1,14,-1
 1585 668 l 2,15,16
 1599 741 1599 741 1599 793 c 259,17,18
 1599 988 1599 988 1422 988 c 259,19,20
 1263 988 1263 988 1168 891.5 c 128,-1,21
 1073 795 1073 795 1042 634 c 2,22,-1
 920 0 l 1,23,-1
 733 0 l 1,24,-1
 861 668 l 2,25,26
 875 746 875 746 875 800 c 259,27,28
 875 896 875 896 832.5 942 c 128,-1,29
 790 988 790 988 696 988 c 259,30,31
 537 988 537 988 442 891 c 128,-1,32
 347 794 347 794 316 634 c 2,33,-1
 196 0 l 1,34,-1
 10 0 l 1,35,-1
 227 1120 l 1,36,-1
 413 1120 l 1,37,-1
 377 950 l 1,0,1
EndSplineSet
Layer: 2
SplineSet
377 950 m 1xba
 474 1066 584 1144 774 1144 c 3
 941 1144 1037 1065 1062 906 c 1
 1184 1065 1330 1144 1500 1144 c 3
 1692 1144 1794 1029 1794 831 c 3xda
 1794 785 1789 734 1778 679 c 2
 1646 0 l 1
 1458 0 l 1xdc
 1585 668 l 2
 1594 715 1599 756 1599 793 c 3
 1599 923 1540 988 1422 988 c 3
 1199 988 1081 835 1042 634 c 2
 920 0 l 1
 733 0 l 1
 861 668 l 2
 870 718 875 762 875 800 c 3
 875 927 823 988 696 988 c 3xda
 473 988 355 834 316 634 c 1
 196 0 l 1
 10 0 l 1
 227 1120 l 1
 413 1120 l 1
 377 950 l 1xba
EndSplineSet
EndChar

StartChar: n
Encoding: 79 110 81
Width: 1300
VWidth: 3555
Flags: W
HStem: 0 21G<10 199.785 764 949.888> 988 156<565.895 849.12> 1100 20G<223.125 413>
VStem: 10 186<0 186> 764 182<0 182> 905 188<531.391 929.163>
DStem2: 10 0 196 0 0.189095 0.981959<35.1718 900.759 1002.26 1140.83> 764 0 946 0 0.189095 0.981959<34.4154 797.849>
LayerCount: 3
Fore
SplineSet
946 0 m 1,0,-1
 764 0 l 1,1,-1
 892 668 l 2,2,3
 905 732 905 732 905 787 c 259,4,5
 905 988 905 988 708 988 c 259,6,7
 545 988 545 988 446 891 c 128,-1,8
 347 794 347 794 316 634 c 2,9,-1
 196 0 l 1,10,-1
 10 0 l 1,11,-1
 227 1120 l 1,12,-1
 413 1120 l 1,13,-1
 377 950 l 1,14,15
 460 1044 460 1044 552 1094 c 128,-1,16
 644 1144 644 1144 774 1144 c 259,17,18
 1093 1144 1093 1144 1093 828 c 259,19,20
 1093 760 1093 760 1078 679 c 2,21,-1
 946 0 l 1,0,-1
EndSplineSet
Layer: 2
SplineSet
946 0 m 1xd8
 764 0 l 1xd8
 892 668 l 2
 901 712 905 752 905 787 c 0
 905 921 840 988 708 988 c 3xd4
 481 988 355 836 316 634 c 2
 196 0 l 1
 10 0 l 1
 227 1120 l 1
 413 1120 l 1xb4
 377 950 l 1
 475 1061 588 1144 774 1144 c 3
 986 1144 1093 1038 1093 828 c 0xd4
 1093 783 1088 733 1078 679 c 2
 946 0 l 1xd8
EndSplineSet
EndChar

StartChar: o
Encoding: 80 111 82
Width: 1253
VWidth: 3555
Flags: W
HStem: -28 156<324.006 637.041> 991 153<472.581 785.867>
VStem: 25 198<230.855 682.26> 893 194<437.917 880.44>
LayerCount: 3
Fore
SplineSet
641 991 m 259,0,1
 449 991 449 991 336 818.5 c 128,-1,2
 223 646 223 646 223 417 c 259,3,4
 223 282 223 282 285.5 205 c 128,-1,5
 348 128 348 128 469 128 c 259,6,7
 657 128 657 128 775 298 c 128,-1,8
 893 468 893 468 893 699 c 259,9,10
 893 832 893 832 827.5 911.5 c 128,-1,11
 762 991 762 991 641 991 c 259,0,1
668 1144 m 259,12,13
 868 1144 868 1144 977.5 1038.5 c 128,-1,14
 1087 933 1087 933 1087 735 c 259,15,16
 1087 393 1087 393 904 182.5 c 128,-1,17
 721 -28 721 -28 441 -28 c 259,18,19
 241 -28 241 -28 133 79.5 c 128,-1,20
 25 187 25 187 25 388 c 259,21,22
 25 708 25 708 197 926 c 128,-1,23
 369 1144 369 1144 668 1144 c 259,12,13
EndSplineSet
Layer: 2
SplineSet
641 991 m 259
 370 991 223 709 223 417 c 3
 223 242 303 128 469 128 c 259
 738 128 893 410 893 699 c 3
 893 873 805 991 641 991 c 259
668 1144 m 259
 933 1144 1087 1001 1087 735 c 3
 1087 312 847 -28 441 -28 c 259
 175 -28 25 120 25 388 c 3
 25 812 262 1144 668 1144 c 259
EndSplineSet
EndChar

StartChar: p
Encoding: 81 112 83
Width: 1300
VWidth: 3555
Flags: W
HStem: -431 21G<-75 112.946> -28 153<385.071 691.326> 991 153<559.047 845.565> 1100 20G<223.106 413>
VStem: -75 184<-431 -247> 940 197<448.879 893.155>
DStem2: -75 -431 109 -431 0.189095 0.981959<34.7936 644.318 899.301 1299.6 1445.07 1580.12>
LayerCount: 3
Fore
SplineSet
771 1144 m 259,0,1
 943 1144 943 1144 1040 1031 c 128,-1,2
 1137 918 1137 918 1137 731 c 259,3,4
 1137 446 1137 446 967 209 c 128,-1,5
 797 -28 797 -28 543 -28 c 259,6,7
 302 -28 302 -28 227 167 c 1,8,-1
 109 -431 l 1,9,-1
 -75 -431 l 1,10,-1
 227 1120 l 1,11,-1
 413 1120 l 1,12,-1
 380 953 l 1,13,14
 526 1144 526 1144 771 1144 c 259,0,1
287 413 m 259,15,16
 287 278 287 278 348 201.5 c 128,-1,17
 409 125 409 125 529 125 c 259,18,19
 722 125 722 125 831 304.5 c 128,-1,20
 940 484 940 484 940 712 c 259,21,22
 940 844 940 844 879.5 917.5 c 128,-1,23
 819 991 819 991 700 991 c 259,24,25
 531 991 531 991 433.5 864 c 128,-1,26
 336 737 336 737 302 562 c 256,27,28
 287 481 287 481 287 413 c 259,15,16
EndSplineSet
Layer: 2
SplineSet
771 1144 m 3xec
 1003 1144 1137 977 1137 731 c 3
 1137 347 893 -28 543 -28 c 3
 382 -28 277 37 227 167 c 1
 109 -431 l 1
 -75 -431 l 1
 227 1120 l 1
 413 1120 l 1xdc
 380 953 l 1
 477 1080 608 1144 771 1144 c 3xec
287 413 m 3
 287 239 364 125 529 125 c 259
 802 125 940 422 940 712 c 3
 940 883 863 991 700 991 c 259xec
 463 991 346 782 302 562 c 0
 292 508 287 458 287 413 c 3
EndSplineSet
EndChar

StartChar: q
Encoding: 82 113 84
Width: 1300
VWidth: 3555
Flags: W
HStem: -431 21G<668 857.894> -28 153<314.41 597.915> 991 153<458.413 779.991> 1100 20G<966.287 1156>
VStem: 26 190<230.11 672.676> 668 186<-431 -245>
DStem2: 668 -431 854 -431 0.189095 0.981959<35.1718 609.525 744.855 1152.85 1410.28 1580.12>
LayerCount: 3
Fore
SplineSet
876 705 m 259,0,1
 876 838 876 838 814.5 914.5 c 128,-1,2
 753 991 753 991 628 991 c 259,3,4
 436 991 436 991 326 817 c 128,-1,5
 216 643 216 643 216 413 c 259,6,7
 216 278 216 278 277 201.5 c 128,-1,8
 338 125 338 125 458 125 c 259,9,10
 618 125 618 125 721 247.5 c 128,-1,11
 824 370 824 370 861 562 c 256,12,13
 876 640 876 640 876 705 c 259,0,1
387 -28 m 259,14,15
 218 -28 218 -28 122 87.5 c 128,-1,16
 26 203 26 203 26 391 c 259,17,18
 26 686 26 686 193 915 c 128,-1,19
 360 1144 360 1144 615 1144 c 259,20,21
 858 1144 858 1144 939 953 c 1,22,-1
 970 1120 l 1,23,-1
 1156 1120 l 1,24,-1
 854 -431 l 1,25,-1
 668 -431 l 1,26,-1
 786 167 l 1,27,28
 706 73 706 73 613 22.5 c 128,-1,29
 520 -28 520 -28 387 -28 c 259,14,15
EndSplineSet
Layer: 2
SplineSet
876 705 m 3xec
 876 880 795 991 628 991 c 259
 356 991 216 702 216 413 c 3
 216 239 293 125 458 125 c 259
 697 125 818 339 861 562 c 0
 871 614 876 662 876 705 c 3xec
387 -28 m 3
 157 -28 26 145 26 391 c 3
 26 774 261 1144 615 1144 c 3xec
 777 1144 885 1080 939 953 c 1
 970 1120 l 1
 1156 1120 l 1xdc
 854 -431 l 1
 668 -431 l 1
 786 167 l 1
 691 55 577 -28 387 -28 c 3
EndSplineSet
EndChar

StartChar: r
Encoding: 83 114 85
Width: 841
VWidth: 3555
Flags: W
HStem: 0 21G<10 199.831> 984 160<557.032 852.152> 1100 20G<223.125 413>
VStem: 10 186<0 186>
DStem2: 10 0 196 0 0.189095 0.981959<35.1718 886.267 1002.26 1140.83>
LayerCount: 3
Fore
SplineSet
845 950 m 1,0,1
 800 984 800 984 708 984 c 259,2,3
 547 984 547 984 448 883.5 c 128,-1,4
 349 783 349 783 309 590 c 2,5,-1
 196 0 l 1,6,-1
 10 0 l 1,7,-1
 227 1120 l 1,8,-1
 413 1120 l 1,9,-1
 377 950 l 1,10,11
 455 1052 455 1052 556.5 1098 c 128,-1,12
 658 1144 658 1144 793 1144 c 259,13,14
 811 1144 811 1144 834.5 1144 c 128,-1,15
 858 1144 858 1144 885 1137 c 1,16,-1
 845 950 l 1,0,1
EndSplineSet
Layer: 2
SplineSet
377 950 m 1xb0
 471 1073 591 1144 793 1144 c 3
 829 1144 862 1144 885 1137 c 1
 845 950 l 1
 815 973 769 984 708 984 c 3xd0
 463 984 351 812 309 590 c 2
 196 0 l 1
 10 0 l 1
 227 1120 l 1
 413 1120 l 1
 377 950 l 1xb0
EndSplineSet
EndChar

StartChar: s
Encoding: 84 115 86
Width: 1069
VWidth: 3555
Flags: W
HStem: -28 153<110.423 555.713> 991 153<363.972 843.968>
VStem: 92 183<710.278 910.848> 661 197<212.596 423.774>
DStem2: 488 654 363 502 0.978717 -0.205215<-211.791 204.388>
LayerCount: 3
Fore
SplineSet
906 917 m 1,0,1
 779 991 779 991 587 991 c 259,2,3
 275 991 275 991 275 796 c 259,4,5
 275 745 275 745 310.5 714.5 c 128,-1,6
 346 684 346 684 488 654 c 2,7,-1
 550 641 l 2,8,9
 738 602 738 602 798 541.5 c 128,-1,10
 858 481 858 481 858 387 c 259,11,12
 858 188 858 188 707.5 80 c 128,-1,13
 557 -28 557 -28 319 -28 c 259,14,15
 140 -28 140 -28 -61 40 c 1,16,-1
 -24 231 l 1,17,18
 163 125 163 125 352 125 c 259,19,20
 500 125 500 125 580.5 182 c 128,-1,21
 661 239 661 239 661 330 c 259,22,23
 661 376 661 376 632.5 410.5 c 128,-1,24
 604 445 604 445 521.5 464 c 128,-1,25
 439 483 439 483 420 488 c 2,26,-1
 363 502 l 2,27,28
 189 545 189 545 140.5 600.5 c 128,-1,29
 92 656 92 656 92 749 c 259,30,31
 92 944 92 944 231 1044 c 128,-1,32
 370 1144 370 1144 594 1144 c 259,33,34
 815 1144 815 1144 939 1088 c 1,35,-1
 906 917 l 1,0,1
EndSplineSet
Layer: 2
SplineSet
906 917 m 1
 822 966 715 991 587 991 c 3
 395 991 275 934 275 796 c 3
 275 700 369 679 488 654 c 2
 550 641 l 2
 727 604 858 557 858 387 c 3
 858 103 614 -28 319 -28 c 3
 199 -28 72 -5 -61 40 c 1
 -24 231 l 1
 101 160 226 125 352 125 c 3
 509 125 661 183 661 330 c 3
 661 443 562 453 420 488 c 2
 363 502 l 2
 200 543 92 581 92 749 c 3
 92 1023 313 1144 594 1144 c 3
 728 1144 846 1130 939 1088 c 1
 906 917 l 1
EndSplineSet
EndChar

StartChar: t
Encoding: 85 116 87
Width: 805
VWidth: 3555
Flags: W
HStem: 0 153<270.546 576> 977 143<92 203 417 764>
VStem: 69 187<172.057 512.266> 292 184<1255 1439>
DStem2: 13.7492 0 199.749 0 0.189095 0.981959<299.559 995.16 1176.05 1465.65>
LayerCount: 3
Fore
SplineSet
417 1120 m 1,0,-1
 793 1120 l 1,1,-1
 764 977 l 1,2,-1
 387 977 l 1,3,-1
 271 370 l 2,4,5
 256 293 256 293 256 257 c 259,6,7
 256 193 256 193 292 173 c 128,-1,8
 328 153 328 153 417 153 c 2,9,-1
 604 153 l 1,10,-1
 576 0 l 1,11,-1
 387 0 l 2,12,13
 216 0 216 0 142.5 45.5 c 128,-1,14
 69 91 69 91 69 224 c 259,15,16
 69 289 69 289 85 370 c 2,17,-1
 203 977 l 1,18,-1
 64 977 l 1,19,-1
 92 1120 l 1,20,-1
 231 1120 l 1,21,-1
 292 1439 l 1,22,-1
 476 1439 l 1,23,-1
 417 1120 l 1,0,-1
EndSplineSet
Layer: 2
SplineSet
417 1120 m 1
 793 1120 l 1
 764 977 l 1
 387 977 l 1
 271 370 l 2
 262 324 256 287 256 257 c 0
 256 167 307 153 417 153 c 2
 604 153 l 1
 576 0 l 1
 387 0 l 2
 174 0 69 38 69 224 c 0
 69 266 74 314 85 370 c 2
 203 977 l 1
 64 977 l 1
 92 1120 l 1
 231 1120 l 1
 292 1439 l 1
 476 1439 l 1
 417 1120 l 1
EndSplineSet
EndChar

StartChar: u
Encoding: 86 117 88
Width: 1300
VWidth: 3555
Flags: W
HStem: -28 160<313.881 589.44> 0 21G<753 939.875> 1100 20G<206.095 398 966.044 1153>
VStem: 61 193<191.304 584.102> 210 188<932 1120> 970 183<937 1120>
DStem2: -12.8929 -28 174.759 -28 0.189095 0.981959<408.488 1169.44> 747.608 -28 930.608 -28 0.189095 0.981959<63.1189 201.688 322.29 1169.34>
LayerCount: 3
Fore
SplineSet
210 1120 m 1,0,-1
 398 1120 l 1,1,-1
 267 451 l 2,2,3
 254 389 254 389 254 335 c 259,4,5
 254 132 254 132 455 132 c 259,6,7
 612 132 612 132 713 232 c 128,-1,8
 814 332 814 332 845 488 c 2,9,-1
 970 1120 l 1,10,-1
 1153 1120 l 1,11,-1
 936 0 l 1,12,-1
 753 0 l 1,13,-1
 786 170 l 1,14,15
 696 74 696 74 604.5 23 c 128,-1,16
 513 -28 513 -28 384 -28 c 259,17,18
 61 -28 61 -28 61 283 c 259,19,20
 61 360 61 360 78 444 c 2,21,-1
 210 1120 l 1,0,-1
EndSplineSet
Layer: 2
SplineSet
210 1120 m 1xac
 398 1120 l 1xac
 267 451 l 2
 258 408 254 369 254 335 c 3
 254 200 321 132 455 132 c 3xb4
 675 132 806 292 845 488 c 2
 970 1120 l 1
 1153 1120 l 1
 936 0 l 1
 753 0 l 1x74
 786 170 l 1
 683 60 572 -28 384 -28 c 3
 168 -28 61 75 61 283 c 3xb4
 61 331 66 385 78 444 c 2
 210 1120 l 1xac
EndSplineSet
EndChar

StartChar: v
Encoding: 87 118 89
Width: 1215
VWidth: 3555
Flags: W
HStem: 0 21G<298.429 565.375> 1100 20G<102 298.542 983.696 1191>
VStem: 102 193<927 1120>
DStem2: 295 1120 102 1120 0.175791 -0.984428<0 957.672> 462 177 554 0 0.494383 0.869244<0 1083.2>
LayerCount: 3
Fore
SplineSet
295 1120 m 1,0,-1
 462 177 l 1,1,-1
 995 1120 l 1,2,-1
 1191 1120 l 1,3,-1
 554 0 l 1,4,-1
 302 0 l 1,5,-1
 102 1120 l 1,6,-1
 295 1120 l 1,0,-1
EndSplineSet
Layer: 2
SplineSet
295 1120 m 1
 462 177 l 1
 995 1120 l 1
 1191 1120 l 1
 554 0 l 1
 302 0 l 1
 102 1120 l 1
 295 1120 l 1
EndSplineSet
EndChar

StartChar: w
Encoding: 88 119 90
Width: 1676
VWidth: 3555
Flags: W
HStem: 0 21G<201.607 429.087 901.587 1129.14> 1100 20G<125 310.394 757.926 989.394 1438.88 1632>
VStem: 125 184<936 1120>
DStem2: 309 1120 125 1120 0.0694746 -0.997584<0 877.124> 370 245 420 0 0.413654 0.910434<0 808.133> 988 1120 838 920 0.0704765 -0.997513<188.931 877.123> 1049 245 1120 0 0.41576 0.909474<0 961.678>
LayerCount: 3
Fore
SplineSet
309 1120 m 1,0,-1
 370 245 l 1,1,-1
 767 1120 l 1,2,-1
 988 1120 l 1,3,-1
 1049 245 l 1,4,-1
 1448 1120 l 1,5,-1
 1632 1120 l 1,6,-1
 1120 0 l 1,7,-1
 903 0 l 1,8,-1
 838 920 l 1,9,-1
 420 0 l 1,10,-1
 203 0 l 1,11,-1
 125 1120 l 1,12,-1
 309 1120 l 1,0,-1
EndSplineSet
Layer: 2
SplineSet
309 1120 m 1
 370 245 l 1
 767 1120 l 1
 988 1120 l 1
 1049 245 l 1
 1448 1120 l 1
 1632 1120 l 1
 1120 0 l 1
 903 0 l 1
 838 920 l 1
 420 0 l 1
 203 0 l 1
 125 1120 l 1
 309 1120 l 1
EndSplineSet
EndChar

StartChar: x
Encoding: 89 120 91
Width: 1215
VWidth: 3555
Flags: W
HStem: 0 21G<-122 117.73 742.07 967> 1100 20G<135 363.106 927.256 1163>
VStem: -122 221<0 221> 946 217<903 1120>
DStem2: -122 0 99 0 0.690107 0.723708<152.514 756.683 1002.14 1547.59> 352 1120 135 1120 0.483119 -0.875555<0 455.24 671.801 1174.35>
LayerCount: 3
Fore
SplineSet
654 576 m 1,0,-1
 967 0 l 1,1,-1
 753 0 l 1,2,-1
 512 441 l 1,3,-1
 99 0 l 1,4,-1
 -122 0 l 1,5,-1
 431 587 l 1,6,-1
 135 1120 l 1,7,-1
 352 1120 l 1,8,-1
 573 722 l 1,9,-1
 946 1120 l 1,10,-1
 1163 1120 l 1,11,-1
 654 576 l 1,0,-1
EndSplineSet
Layer: 2
SplineSet
654 576 m 1
 967 0 l 1
 753 0 l 1
 512 441 l 1
 99 0 l 1
 -122 0 l 1
 431 587 l 1
 135 1120 l 1
 352 1120 l 1
 573 722 l 1
 946 1120 l 1
 1163 1120 l 1
 654 576 l 1
EndSplineSet
EndChar

StartChar: y
Encoding: 90 121 92
Width: 1215
VWidth: 3555
Flags: W
HStem: -431 160<-71 172.549> 1100 20G<102 299.137 983.137 1191>
VStem: 102 193<927 1120> 995 196<924 1120>
DStem2: 295 1120 102 1120 0.210074 -0.977686<0 893.498> 288 -68 458 -102 0.514393 0.857555<-244.14 99.1262 365.12 1382.45>
LayerCount: 3
Fore
SplineSet
458 -102 m 2,0,1
 381 -230 381 -230 360 -260 c 0,2,3
 237 -431 237 -431 47 -431 c 2,4,-1
 -102 -431 l 1,5,-1
 -71 -271 l 1,6,-1
 40 -271 l 2,7,8
 159 -271 159 -271 223 -178 c 0,9,10
 237 -158 237 -158 258.5 -119.5 c 128,-1,11
 280 -81 280 -81 288 -68 c 2,12,-1
 339 17 l 1,13,-1
 102 1120 l 1,14,-1
 295 1120 l 1,15,-1
 476 245 l 1,16,-1
 995 1120 l 1,17,-1
 1191 1120 l 1,18,-1
 458 -102 l 2,0,1
EndSplineSet
Layer: 2
SplineSet
458 -102 m 2
 363 -261 282 -431 47 -431 c 2
 -102 -431 l 1
 -71 -271 l 1
 40 -271 l 2
 193 -271 226 -172 288 -68 c 2
 339 17 l 1
 102 1120 l 1
 295 1120 l 1
 476 245 l 1
 995 1120 l 1
 1191 1120 l 1
 458 -102 l 2
EndSplineSet
EndChar

StartChar: z
Encoding: 91 122 93
Width: 1076
VWidth: 3555
Flags: W
HStem: 0 146<142 811> 974 146<153 790>
DStem2: -57 167 142 146 0.726422 0.687248<130.126 1169.89>
LayerCount: 3
Fore
SplineSet
1028 1120 m 1,0,-1
 995 953 l 1,1,-1
 142 146 l 1,2,-1
 835 146 l 1,3,-1
 811 0 l 1,4,-1
 -89 0 l 1,5,-1
 -57 167 l 1,6,-1
 790 974 l 1,7,-1
 125 974 l 1,8,-1
 153 1120 l 1,9,-1
 1028 1120 l 1,0,-1
EndSplineSet
Layer: 2
SplineSet
1028 1120 m 1
 995 953 l 1
 142 146 l 1
 835 146 l 1
 811 0 l 1
 -89 0 l 1
 -57 167 l 1
 790 974 l 1
 125 974 l 1
 153 1120 l 1
 1028 1120 l 1
EndSplineSet
EndChar

StartChar: braceleft
Encoding: 92 123 94
Width: 1303
VWidth: 3555
Flags: W
HStem: -335 142<593.742 804> 540 146<210 413.671> 1415 142<898.312 1144>
VStem: 378 192<-168.032 180.07> 452 193<136.352 501.476>
DStem2: 322.749 -335 510.786 -335 0.189095 0.981959<307.378 724.174 1095.25 1771.46>
LayerCount: 3
Fore
SplineSet
495 611 m 1,0,1
 573 593 573 593 609 551 c 128,-1,2
 645 509 645 509 645 427 c 259,3,4
 645 380 645 380 628 288 c 2,5,-1
 583 40 l 2,6,7
 570 -31 570 -31 570 -71 c 259,8,9
 570 -146 570 -146 610.5 -169.5 c 128,-1,10
 651 -193 651 -193 764 -193 c 2,11,-1
 832 -193 l 1,12,-1
 804 -335 l 1,13,-1
 743 -335 l 2,14,15
 501 -335 501 -335 439.5 -279.5 c 128,-1,16
 378 -224 378 -224 378 -114 c 259,17,18
 378 -48 378 -48 394 35 c 2,19,-1
 441 274 l 2,20,21
 452 331 452 331 452 379 c 259,22,23
 452 476 452 476 401 508 c 128,-1,24
 350 540 350 540 245 540 c 2,25,-1
 181 540 l 1,26,-1
 210 686 l 1,27,-1
 274 686 l 2,28,29
 426 686 426 686 485 747 c 128,-1,30
 544 808 544 808 573 950 c 2,31,-1
 621 1191 l 2,32,33
 662 1394 662 1394 736 1468 c 0,34,35
 827 1557 827 1557 1113 1557 c 2,36,-1
 1174 1557 l 1,37,-1
 1144 1415 l 1,38,-1
 1078 1415 l 2,39,40
 942 1415 942 1415 886 1370 c 128,-1,41
 830 1325 830 1325 804 1187 c 2,42,-1
 757 939 l 2,43,44
 728 787 728 787 673 713 c 128,-1,45
 618 639 618 639 495 611 c 1,0,1
EndSplineSet
Layer: 2
SplineSet
495 611 m 1xe8
 595 588 645 540 645 427 c 3xe8
 645 388 638 342 628 288 c 2
 583 40 l 2
 574 -4 570 -41 570 -71 c 3
 570 -179 628 -193 764 -193 c 2
 832 -193 l 1
 804 -335 l 1
 743 -335 l 2
 504 -335 378 -312 378 -114 c 3xf0
 378 -72 383 -22 394 35 c 2
 441 274 l 2
 448 314 452 349 452 379 c 3
 452 507 387 540 245 540 c 2
 181 540 l 1
 210 686 l 1
 274 686 l 2
 482 686 536 765 573 950 c 2
 621 1191 l 2
 679 1487 767 1557 1113 1557 c 2
 1174 1557 l 1
 1144 1415 l 1
 1078 1415 l 2
 884 1415 835 1352 804 1187 c 2
 757 939 l 2
 720 747 666 650 495 611 c 1xe8
EndSplineSet
EndChar

StartChar: bar
Encoding: 93 124 95
Width: 689
VWidth: 3555
Flags: W
VStem: -14 174<-484 -310> 384 175<1393 1568>
DStem2: -14 -484 160 -484 0.189095 0.981959<32.9026 2090.24>
LayerCount: 3
Fore
SplineSet
160 -484 m 1,0,-1
 -14 -484 l 1,1,-1
 384 1568 l 1,2,-1
 559 1568 l 1,3,-1
 160 -484 l 1,0,-1
EndSplineSet
Layer: 2
SplineSet
160 -484 m 1
 -14 -484 l 1
 384 1568 l 1
 559 1568 l 1
 160 -484 l 1
EndSplineSet
EndChar

StartChar: braceright
Encoding: 94 125 96
Width: 1303
VWidth: 3555
Flags: W
HStem: -335 142<40 288.766> 540 146<768.779 974> 1415 142<380 593.604>
VStem: 541 190<723.782 1085.91> 618 187<1047.7 1390.69>
DStem2: 311.786 -335 490.749 -335 0.189095 0.981959<193.975 864.7 1244.23 1665.01>
LayerCount: 3
Fore
SplineSet
731 850 m 259,0,1
 731 754 731 754 778.5 720 c 128,-1,2
 826 686 826 686 943 686 c 2,3,-1
 1003 686 l 1,4,-1
 974 540 l 1,5,-1
 913 540 l 2,6,7
 767 540 767 540 702.5 485 c 128,-1,8
 638 430 638 430 608 274 c 2,9,-1
 562 35 l 2,10,11
 516 -203 516 -203 417.5 -269 c 128,-1,12
 319 -335 319 -335 75 -335 c 2,13,-1
 10 -335 l 1,14,-1
 40 -193 l 1,15,-1
 109 -193 l 2,16,17
 250 -193 250 -193 305 -141 c 128,-1,18
 360 -89 360 -89 384 40 c 2,19,-1
 431 288 l 2,20,21
 461 447 461 447 513.5 516.5 c 128,-1,22
 566 586 566 586 693 611 c 1,23,24
 612 630 612 630 576.5 670.5 c 128,-1,25
 541 711 541 711 541 793 c 259,26,27
 541 836 541 836 559 939 c 2,28,-1
 604 1187 l 2,29,30
 618 1262 618 1262 618 1303 c 259,31,32
 618 1377 618 1377 564.5 1396 c 128,-1,33
 511 1415 511 1415 424 1415 c 2,34,-1
 352 1415 l 1,35,-1
 380 1557 l 1,36,-1
 444 1557 l 2,37,38
 647 1557 647 1557 726 1510 c 128,-1,39
 805 1463 805 1463 805 1333 c 259,40,41
 805 1261 805 1261 790 1191 c 2,42,-1
 740 950 l 2,43,44
 731 907 731 907 731 850 c 259,0,1
EndSplineSet
Layer: 2
SplineSet
731 850 m 3xf0
 731 718 793 686 943 686 c 2
 1003 686 l 1
 974 540 l 1
 913 540 l 2
 703 540 643 460 608 274 c 2
 562 35 l 2
 506 -260 420 -335 75 -335 c 2
 10 -335 l 1
 40 -193 l 1
 109 -193 l 2
 302 -193 353 -123 384 40 c 2
 431 288 l 2
 468 482 514 575 693 611 c 1
 588 636 541 680 541 793 c 3xf0
 541 833 549 882 559 939 c 2
 604 1187 l 2
 613 1235 618 1274 618 1303 c 3
 618 1406 533 1415 424 1415 c 2
 352 1415 l 1
 380 1557 l 1
 444 1557 l 2
 610 1557 715 1532 760 1483 c 0
 790 1453 805 1403 805 1333 c 3xe8
 805 1292 801 1245 790 1191 c 2
 740 950 l 2
 732 912 731 879 731 850 c 3xf0
EndSplineSet
EndChar

StartChar: asciitilde
Encoding: 95 126 97
Width: 1716
VWidth: 3555
Flags: W
HStem: 495 163<901.612 1255.62> 625 172<360.515 719.532>
DStem2: 821 735 753 568 0.928477 -0.371391<-236.875 273.871>
LayerCount: 3
Fore
SplineSet
1443 641 m 1,0,1
 1336 570 1336 570 1240.5 532.5 c 128,-1,2
 1145 495 1145 495 1038 495 c 259,3,4
 934 495 934 495 793 552 c 2,5,-1
 753 568 l 2,6,7
 611 625 611 625 519 625 c 259,8,9
 347 625 347 625 132 469 c 1,10,-1
 167 644 l 1,11,12
 280 720 280 720 372.5 758.5 c 128,-1,13
 465 797 465 797 576 797 c 259,14,15
 675 797 675 797 821 735 c 2,16,-1
 854 721 l 2,17,18
 1003 658 1003 658 1088 658 c 259,19,20
 1187 658 1187 658 1279.5 700.5 c 128,-1,21
 1372 743 1372 743 1479 821 c 1,22,-1
 1443 641 l 1,0,1
EndSplineSet
Layer: 2
SplineSet
1443 641 m 1x80
 1315 556 1191 495 1038 495 c 3x80
 967 495 887 514 793 552 c 2
 753 568 l 2
 658 606 580 625 519 625 c 3
 383 625 248 553 132 469 c 1
 167 644 l 1
 297 732 415 797 576 797 c 3x40
 647 797 727 775 821 735 c 2
 854 721 l 2
 951 680 1028 658 1088 658 c 3
 1232 658 1357 732 1479 821 c 1
 1443 641 l 1x80
EndSplineSet
EndChar

StartChar: Adieresis
Encoding: 132 196 98
Width: 1399
VWidth: 3555
Flags: W
HStem: 0 21G<-163 64.8421 994.737 1205> 380 174<359 906> 1473 20G<684.493 932.697> 1672 198<590 750 981 1144>
VStem: 550 200<1672 1872> 590 200<1670 1870> 943 201<1672 1873> 998 207<0 207>
DStem2: -163 0 54 0 0.4987 0.866775<108.218 540.325 740.515 740.515> 929 1493 771 1299 0.181783 -0.983339<162.046 919.174 1095.73 1480.67>
LayerCount: 3
Fore
SplineSet
359 554 m 1,0,-1
 906 554 l 1,1,-1
 771 1299 l 1,2,-1
 359 554 l 1,0,-1
929 1493 m 1,3,-1
 1205 0 l 1,4,-1
 998 0 l 1,5,-1
 936 380 l 1,6,-1
 260 380 l 1,7,-1
 54 0 l 1,8,-1
 -163 0 l 1,9,-1
 696 1493 l 1,10,-1
 929 1493 l 1,3,-1
1184 1870 m 1,11,-1
 1144 1672 l 1,12,-1
 943 1672 l 1,13,-1
 981 1870 l 1,14,-1
 1184 1870 l 1,11,-1
790 1870 m 1,15,-1
 750 1672 l 1,16,-1
 550 1672 l 1,17,-1
 590 1870 l 1,18,-1
 790 1870 l 1,15,-1
EndSplineSet
Layer: 2
SplineSet
359 554 m 1xf0
 906 554 l 1
 771 1299 l 1
 359 554 l 1xf0
929 1493 m 1
 1205 0 l 1
 998 0 l 1xf1
 936 380 l 1
 260 380 l 1
 54 0 l 1
 -163 0 l 1
 696 1493 l 1
 929 1493 l 1
1184 1870 m 1
 1144 1672 l 1
 943 1672 l 1xf2
 981 1870 l 1
 1184 1870 l 1
790 1870 m 1xf4
 750 1672 l 1
 550 1672 l 1xf8
 590 1870 l 1
 790 1870 l 1xf4
EndSplineSet
EndChar

StartChar: Aring
Encoding: 133 197 99
Width: 1399
VWidth: 3555
Flags: W
HStem: 0 21G<-163 64.8421 994.737 1205> 380 174<359 903> 1781 125<754.305 966.878>
VStem: 561 124<1501.15 1715.11> 994 127<1548.16 1752.89> 998 207<0 207>
DStem2: -163 0 54 0 0.500205 0.865907<108.545 540.631 740.82 740.82> 946 1397 771 1299 0.182291 -0.983245<64.4571 821.037 998.137 998.137>
LayerCount: 3
Fore
SplineSet
807 1476 m 259,0,1
 879 1476 879 1476 936.5 1531 c 128,-1,2
 994 1586 994 1586 994 1659 c 259,3,4
 994 1712 994 1712 957.5 1746.5 c 128,-1,5
 921 1781 921 1781 868 1781 c 259,6,7
 792 1781 792 1781 738.5 1725 c 128,-1,8
 685 1669 685 1669 685 1592 c 259,9,10
 685 1540 685 1540 719.5 1508 c 128,-1,11
 754 1476 754 1476 807 1476 c 259,0,1
359 554 m 1,12,-1
 903 554 l 1,13,-1
 771 1299 l 1,14,-1
 359 554 l 1,12,-1
892 1906 m 259,15,16
 991 1906 991 1906 1056 1844 c 128,-1,17
 1121 1782 1121 1782 1121 1683 c 259,18,19
 1121 1500 1121 1500 946 1397 c 1,20,-1
 1205 0 l 1,21,-1
 998 0 l 1,22,-1
 936 380 l 1,23,-1
 260 380 l 1,24,-1
 54 0 l 1,25,-1
 -163 0 l 1,26,-1
 644 1397 l 1,27,28
 561 1460 561 1460 561 1562 c 259,29,30
 561 1699 561 1699 659.5 1802.5 c 128,-1,31
 758 1906 758 1906 892 1906 c 259,15,16
EndSplineSet
Layer: 2
SplineSet
807 1476 m 3xf8
 902 1476 994 1561 994 1659 c 3
 994 1731 937 1781 868 1781 c 3
 767 1781 685 1695 685 1592 c 3
 685 1521 738 1476 807 1476 c 3xf8
359 554 m 1
 903 554 l 1
 771 1299 l 1
 359 554 l 1
892 1906 m 3
 1022 1906 1121 1816 1121 1683 c 3xf8
 1121 1548 1048 1457 946 1397 c 1
 1205 0 l 1
 998 0 l 1xf4
 936 380 l 1
 260 380 l 1
 54 0 l 1
 -163 0 l 1
 644 1397 l 1
 589 1439 561 1494 561 1562 c 3
 561 1744 712 1906 892 1906 c 3
EndSplineSet
EndChar

StartChar: Ccedilla
Encoding: 135 199 100
Width: 1432
VWidth: 3555
Flags: W
HStem: -394 123<360.413 631.739> -27 166<476.509 632.919> 1354 168<705.602 1171.56>
VStem: 56 219<335.839 842.391> 656 136<-245.456 -43.4633>
LayerCount: 3
Back
SplineSet
661 -28 m 3
 289 -28 56 162 56 532 c 3
 56 1077 420 1522 963 1522 c 3
 1139 1522 1288 1475 1411 1380 c 1
 1368 1167 l 1
 1257 1292 1115 1354 943 1354 c 3
 510 1354 275 1006 275 554 c 3
 275 277 427 139 705 139 c 3
 877 139 1044 201 1205 326 c 1
 1167 115 l 1
 1005 20 836 -28 661 -28 c 3
366 -238 m 1
 410 -261 452 -271 519 -271 c 3
 597 -271 656 -235 656 -160 c 3
 656 -124 637 -71 601 0 c 1
 722 0 l 1
 758 -62 792 -113 792 -189 c 3
 792 -330 670 -394 516 -394 c 3
 448 -394 400 -383 342 -373 c 1
 366 -238 l 1
EndSplineSet
Fore
SplineSet
736 -25 m 1,0,1
 792 -119 792 -119 792 -189 c 259,2,3
 792 -290 792 -290 715 -342 c 128,-1,4
 638 -394 638 -394 516 -394 c 259,5,6
 464 -394 464 -394 342 -373 c 1,7,-1
 366 -238 l 1,8,9
 429 -271 429 -271 519 -271 c 259,10,11
 580 -271 580 -271 618 -242.5 c 128,-1,12
 656 -214 656 -214 656 -160 c 259,13,14
 656 -115 656 -115 614 -27 c 1,15,16
 363 -16 363 -16 209.5 121.5 c 128,-1,17
 56 259 56 259 56 532 c 259,18,19
 56 947 56 947 312 1234.5 c 128,-1,20
 568 1522 568 1522 963 1522 c 259,21,22
 1227 1522 1227 1522 1411 1380 c 1,23,-1
 1368 1167 l 1,24,25
 1202 1354 1202 1354 943 1354 c 259,26,27
 629 1354 629 1354 452 1127 c 128,-1,28
 275 900 275 900 275 554 c 259,29,30
 275 348 275 348 385 243.5 c 128,-1,31
 495 139 495 139 705 139 c 259,32,33
 964 139 964 139 1205 326 c 1,34,-1
 1167 115 l 1,35,36
 958 -7 958 -7 736 -25 c 1,0,1
EndSplineSet
Layer: 2
SplineSet
366 -238 m 1
 410 -261 452 -271 519 -271 c 3
 597 -271 656 -235 656 -160 c 3
 656 -129 641 -85 614 -27 c 1
 269 -12 56 178 56 532 c 3
 56 1095 441 1522 963 1522 c 3
 1139 1522 1288 1475 1411 1380 c 1
 1368 1167 l 1
 1257 1292 1115 1354 943 1354 c 3
 510 1354 275 1008 275 554 c 3
 275 277 427 139 705 139 c 3
 877 139 1044 201 1205 326 c 1
 1167 115 l 1
 1028 34 885 -13 737 -25 c 1
 767 -76 792 -123 792 -189 c 3
 792 -330 670 -394 516 -394 c 3
 448 -394 400 -383 342 -373 c 1
 366 -238 l 1
EndSplineSet
EndChar

StartChar: Eacute
Encoding: 137 201 101
Width: 1296
VWidth: 3555
Flags: W
HStem: 0 167<255 988> 712 170<394 1073> 1326 167<479 1224>
DStem2: 24 0 222.841 0 0.189095 0.981959<207.668 762.502 936.053 1388.12> 668 1635 818 1635 0.674726 0.738068<101.209 363.11>
LayerCount: 3
Fore
SplineSet
1255 1493 m 1,0,-1
 1224 1326 l 1,1,-1
 479 1326 l 1,2,-1
 394 882 l 1,3,-1
 1109 882 l 1,4,-1
 1073 712 l 1,5,-1
 359 712 l 1,6,-1
 255 167 l 1,7,-1
 1021 167 l 1,8,-1
 988 0 l 1,9,-1
 24 0 l 1,10,-1
 312 1493 l 1,11,-1
 1255 1493 l 1,0,-1
1099 1903 m 1,12,-1
 818 1635 l 1,13,-1
 668 1635 l 1,14,-1
 913 1903 l 1,15,-1
 1099 1903 l 1,12,-1
EndSplineSet
Layer: 2
SplineSet
1255 1493 m 1
 1224 1326 l 1
 479 1326 l 1
 394 882 l 1
 1109 882 l 1
 1073 712 l 1
 359 712 l 1
 255 167 l 1
 1021 167 l 1
 988 0 l 1
 24 0 l 1
 312 1493 l 1
 1255 1493 l 1
1099 1903 m 1
 818 1635 l 1
 668 1635 l 1
 913 1903 l 1
 1099 1903 l 1
EndSplineSet
EndChar

StartChar: Ntilde
Encoding: 145 209 102
Width: 1534
VWidth: 3555
Flags: W
HStem: 0 21G<24 220.862 878.157 1159.84> 1473 20G<308.142 589.795 1244.14 1443> 1672 120<962.218 1138.9> 1767 120<725.676 899.916>
VStem: 24 193<0 193> 583 125<1672 1753.27> 1160 123<1810.12 1887> 1248 195<1298 1493>
DStem2: 24 0 217 0 0.189095 0.981959<36.4954 1307.55> 583 1493 458 1248 0.323723 -0.946152<191.342 1318.06> 959.82 0 1156 0 0.189095 0.981959<249.501 1520.56>
LayerCount: 3
Fore
SplineSet
583 1493 m 1,0,-1
 1007 245 l 1,1,-1
 1248 1493 l 1,2,-1
 1443 1493 l 1,3,-1
 1156 0 l 1,4,-1
 885 0 l 1,5,-1
 458 1248 l 1,6,-1
 217 0 l 1,7,-1
 24 0 l 1,8,-1
 312 1493 l 1,9,-1
 583 1493 l 1,0,-1
868 1746 m 1,10,11
 825 1767 825 1767 797 1767 c 0,12,13
 726 1767 726 1767 708 1675 c 1,14,-1
 708 1672 l 1,15,-1
 583 1672 l 1,16,17
 601 1767 601 1767 663.5 1827 c 128,-1,18
 726 1887 726 1887 814 1887 c 0,19,20
 845 1887 845 1887 875.5 1878.5 c 128,-1,21
 906 1870 906 1870 946 1845 c 2,22,-1
 1003 1818 l 1,23,24
 1038 1792 1038 1792 1062 1792 c 0,25,26
 1137 1792 1137 1792 1156 1880 c 1,27,-1
 1160 1887 l 1,28,-1
 1283 1887 l 1,29,30
 1262 1788 1262 1788 1199.5 1730 c 128,-1,31
 1137 1672 1137 1672 1052 1672 c 0,32,33
 1017 1672 1017 1672 990 1679 c 128,-1,34
 963 1686 963 1686 913 1713 c 2,35,-1
 868 1746 l 1,10,11
EndSplineSet
Layer: 2
SplineSet
583 1493 m 1xcd
 1007 245 l 1
 1248 1493 l 1
 1443 1493 l 1
 1156 0 l 1
 885 0 l 1
 458 1248 l 1
 217 0 l 1
 24 0 l 1
 312 1493 l 1
 583 1493 l 1xcd
1283 1887 m 1xde
 1259 1773 1181 1672 1052 1672 c 3xee
 1029 1672 1008 1674 990 1679 c 0
 972 1684 944 1691 913 1713 c 2
 868 1745 l 2
 842 1764 816 1767 797 1767 c 3xde
 750 1767 720 1736 708 1675 c 1
 708 1672 l 1
 583 1672 l 1xee
 604 1785 686 1887 814 1887 c 3xde
 871 1887 901 1868 946 1845 c 2
 1003 1816 l 2
 1029 1803 1046 1792 1062 1792 c 3xee
 1128 1792 1140 1835 1160 1887 c 1
 1283 1887 l 1xde
EndSplineSet
EndChar

StartChar: Odieresis
Encoding: 150 214 103
Width: 1612
VWidth: 3555
Flags: W
HStem: -28 163<469.943 858.517> 1358 164<696.057 1082.55> 1672 198<696 858 1088 1252>
VStem: 56 220<335.864 853.399> 658 200<1672 1872> 696 200<1670 1870> 1273 210<647.83 1154.12>
LayerCount: 3
Fore
SplineSet
896 1358 m 0,0,1
 672 1358 672 1358 512 1193 c 128,-1,2
 352 1028 352 1028 295 746 c 0,3,4
 241 458 241 458 337.5 296.5 c 128,-1,5
 434 135 434 135 658 135 c 0,6,7
 875 135 875 135 1036.5 296.5 c 128,-1,8
 1198 458 1198 458 1252 746 c 0,9,10
 1309 1028 1309 1028 1211 1193 c 128,-1,11
 1113 1358 1113 1358 896 1358 c 0,0,1
929 1522 m 0,12,13
 1085 1522 1085 1522 1200.5 1466.5 c 128,-1,14
 1316 1411 1316 1411 1385.5 1309.5 c 128,-1,15
 1455 1208 1455 1208 1475.5 1066 c 128,-1,16
 1496 924 1496 924 1462 746 c 256,17,18
 1425 569 1425 569 1348.5 427 c 128,-1,19
 1272 285 1272 285 1163.5 183.5 c 128,-1,20
 1055 82 1055 82 919 27 c 128,-1,21
 783 -28 783 -28 625 -28 c 0,22,23
 312 -28 312 -28 156 181 c 0,24,25
 10 394 10 394 78 746 c 0,26,27
 149 1102 149 1102 377 1309 c 0,28,29
 611 1522 611 1522 929 1522 c 0,12,13
1290 1870 m 1,30,-1
 1252 1672 l 1,31,-1
 1049 1672 l 1,32,-1
 1088 1870 l 1,33,-1
 1290 1870 l 1,30,-1
896 1870 m 1,34,-1
 858 1672 l 1,35,-1
 658 1672 l 1,36,-1
 696 1870 l 1,37,-1
 896 1870 l 1,34,-1
EndSplineSet
Layer: 2
SplineSet
1273 938 m 3xfa
 1273 1192 1136 1358 896 1358 c 3xf6
 505 1358 276 969 276 556 c 3
 276 296 409 135 658 135 c 3
 1047 135 1273 525 1273 938 c 3xfa
929 1522 m 3
 1283 1522 1483 1307 1483 954 c 3
 1483 459 1154 -28 625 -28 c 3
 280 -28 56 179 56 536 c 3
 56 1078 410 1522 929 1522 c 3
1290 1870 m 1
 1252 1672 l 1
 1049 1672 l 1
 1088 1870 l 1
 1290 1870 l 1
896 1870 m 1
 858 1672 l 1
 658 1672 l 1xfa
 696 1870 l 1
 896 1870 l 1
EndSplineSet
EndChar

StartChar: Udieresis
Encoding: 156 220 104
Width: 1499
VWidth: 3555
Flags: W
HStem: -28 163<400.558 810.54> 1473 20G<284.09 491 1227.11 1432> 1672 198<641 800 1031 1194>
VStem: 88 208<240.404 696.586> 288 203<1290 1493> 601 199<1672 1871> 641 197<1673 1870> 1231 201<1292 1493>
DStem2: -7.61609 -28 197.57 -28 0.189095 0.981959<490.847 1549.46> 936.57 -28 1138.38 -28 0.189095 0.981959<357.796 1549.23>
LayerCount: 3
Fore
SplineSet
491 1493 m 1,0,-1
 316 587 l 2,1,2
 267 349 267 349 335.5 242 c 128,-1,3
 404 135 404 135 597 135 c 0,4,5
 793 135 793 135 900 242 c 128,-1,6
 1007 349 1007 349 1055 587 c 2,7,-1
 1231 1493 l 1,8,-1
 1432 1493 l 1,9,-1
 1252 562 l 2,10,11
 1194 271 1194 271 1019.5 121.5 c 128,-1,12
 845 -28 845 -28 566 -28 c 256,13,14
 285 -28 285 -28 167.5 121.5 c 128,-1,15
 50 271 50 271 106 562 c 2,16,-1
 288 1493 l 1,17,-1
 491 1493 l 1,0,-1
1234 1870 m 1,18,-1
 1194 1672 l 1,19,-1
 991 1672 l 1,20,-1
 1031 1870 l 1,21,-1
 1234 1870 l 1,18,-1
838 1870 m 1,22,-1
 800 1672 l 1,23,-1
 601 1672 l 1,24,-1
 641 1870 l 1,25,-1
 838 1870 l 1,22,-1
EndSplineSet
Layer: 2
SplineSet
566 -28 m 259xf1
 267 -28 88 99 88 389 c 3xf1
 88 442 94 499 106 562 c 2
 288 1493 l 1
 491 1493 l 1xe9
 316 587 l 2
 303 521 296 462 296 411 c 3
 296 216 396 135 597 135 c 3
 897 135 1002 312 1055 587 c 2
 1231 1493 l 1
 1432 1493 l 1
 1252 562 l 2
 1184 207 971 -28 566 -28 c 259xf1
1234 1870 m 1
 1194 1672 l 1
 991 1672 l 1
 1031 1870 l 1
 1234 1870 l 1
838 1870 m 1xe3
 800 1672 l 1
 601 1672 l 1xe5
 641 1870 l 1
 838 1870 l 1xe3
EndSplineSet
EndChar

StartChar: aacute
Encoding: 161 225 105
Width: 1253
VWidth: 3555
Flags: W
HStem: -28 153<244.438 538.361> 0 21G<708 895.807> 566 142<332.322 814> 991 153<324.965 767.887>
VStem: -0 191<175.558 446.106> 852 179<709.87 916.524>
DStem2: 702.608 -28 886.608 -28 0.189095 0.981959<63.308 198.553 329.487 604.347 749.08 832.254>
LayerCount: 3
Fore
SplineSet
634 566 m 1,0,1
 410 566 410 566 315 514 c 128,-1,2
 220 462 220 462 196 339 c 0,3,4
 177 238 177 238 229 181.5 c 128,-1,5
 281 125 281 125 387 125 c 0,6,7
 547 125 547 125 659 233.5 c 128,-1,8
 771 342 771 342 807 523 c 2,9,-1
 814 566 l 1,10,-1
 634 566 l 1,0,1
892 0 m 1,11,-1
 708 0 l 1,12,-1
 740 167 l 1,13,14
 576 -28 576 -28 312 -28 c 0,15,16
 142 -28 142 -28 60.5 67.5 c 128,-1,17
 -21 163 -21 163 7 326 c 0,18,19
 82 708 82 708 583 708 c 2,20,-1
 842 708 l 1,21,-1
 845 726 l 2,22,23
 871 854 871 854 802 922.5 c 128,-1,24
 733 991 733 991 583 991 c 0,25,26
 387 991 387 991 203 899 c 1,27,-1
 234 1069 l 1,28,29
 339 1109 339 1109 439.5 1126.5 c 128,-1,30
 540 1144 540 1144 628 1144 c 0,31,32
 1113 1144 1113 1144 1014 641 c 2,33,-1
 892 0 l 1,11,-1
1069 1639 m 1,34,-1
 672 1262 l 1,35,-1
 523 1262 l 1,36,-1
 871 1639 l 1,37,-1
 1069 1639 l 1,34,-1
EndSplineSet
Layer: 2
SplineSet
191 288 m 3xbc
 191 177 274 125 387 125 c 3
 625 125 772 311 807 523 c 2
 814 566 l 1
 634 566 l 2
 370 566 191 524 191 288 c 3xbc
852 792 m 3
 852 936 737 991 583 991 c 3
 452 991 326 960 203 899 c 1
 234 1069 l 1
 352 1114 482 1144 628 1144 c 3
 897 1144 1031 1028 1031 797 c 3
 1031 750 1025 698 1014 641 c 2
 892 0 l 1
 708 0 l 1x7c
 740 167 l 1
 631 37 488 -28 312 -28 c 3
 127 -28 0 65 -0 247 c 3
 0 563 236 708 583 708 c 2
 842 708 l 1
 846 735 852 766 852 792 c 3
1069 1639 m 1
 672 1262 l 1
 523 1262 l 1
 871 1639 l 1
 1069 1639 l 1
EndSplineSet
EndChar

StartChar: agrave
Encoding: 160 224 106
Width: 1253
VWidth: 3555
Flags: W
HStem: -28 153<244.438 538.361> 0 21G<708 895.807> 566 142<332.322 814> 991 153<324.965 767.887>
VStem: -0 191<175.558 446.106> 852 179<709.87 916.524>
DStem2: 702.608 -28 886.608 -28 0.189095 0.981959<63.308 198.553 329.487 604.347 749.08 832.254>
LayerCount: 3
Fore
SplineSet
634 566 m 1,0,1
 410 566 410 566 315 514 c 128,-1,2
 220 462 220 462 196 339 c 0,3,4
 177 238 177 238 229 181.5 c 128,-1,5
 281 125 281 125 387 125 c 0,6,7
 547 125 547 125 659 233.5 c 128,-1,8
 771 342 771 342 807 523 c 2,9,-1
 814 566 l 1,10,-1
 634 566 l 1,0,1
892 0 m 1,11,-1
 708 0 l 1,12,-1
 740 167 l 1,13,14
 576 -28 576 -28 312 -28 c 0,15,16
 142 -28 142 -28 60.5 67.5 c 128,-1,17
 -21 163 -21 163 7 326 c 0,18,19
 82 708 82 708 583 708 c 2,20,-1
 842 708 l 1,21,-1
 845 726 l 2,22,23
 871 854 871 854 802 922.5 c 128,-1,24
 733 991 733 991 583 991 c 0,25,26
 387 991 387 991 203 899 c 1,27,-1
 234 1069 l 1,28,29
 339 1109 339 1109 439.5 1126.5 c 128,-1,30
 540 1144 540 1144 628 1144 c 0,31,32
 1113 1144 1113 1144 1014 641 c 2,33,-1
 892 0 l 1,11,-1
797 1266 m 1,34,-1
 648 1266 l 1,35,-1
 387 1639 l 1,36,-1
 590 1639 l 1,37,-1
 797 1266 l 1,34,-1
EndSplineSet
Layer: 2
SplineSet
191 288 m 3xbc
 191 177 274 125 387 125 c 3
 625 125 772 311 807 523 c 2
 814 566 l 1
 634 566 l 2
 370 566 191 524 191 288 c 3xbc
852 792 m 3
 852 936 737 991 583 991 c 3
 452 991 326 960 203 899 c 1
 234 1069 l 1
 352 1114 482 1144 628 1144 c 3
 897 1144 1031 1028 1031 797 c 3
 1031 750 1025 698 1014 641 c 2
 892 0 l 1
 708 0 l 1x7c
 740 167 l 1
 631 37 488 -28 312 -28 c 3
 127 -28 0 65 -0 247 c 3
 0 563 236 708 583 708 c 2
 842 708 l 1
 846 735 852 766 852 792 c 3
797 1266 m 1
 648 1266 l 1
 387 1639 l 1
 590 1639 l 1
 797 1266 l 1
EndSplineSet
EndChar

StartChar: acircumflex
Encoding: 162 226 107
Width: 1253
VWidth: 3555
Flags: W
HStem: -28 153<244.438 538.361> 0 21G<708 895.807> 566 142<332.322 814> 991 153<324.965 767.887>
VStem: -0 191<175.558 446.106> 345 139<1262 1401> 852 179<709.87 916.524>
DStem2: 702.608 -28 886.608 -28 0.189095 0.981959<63.308 198.553 329.487 604.347 749.08 832.254>
LayerCount: 3
Fore
SplineSet
634 566 m 1,0,1
 410 566 410 566 315 514 c 128,-1,2
 220 462 220 462 196 339 c 0,3,4
 177 238 177 238 229 181.5 c 128,-1,5
 281 125 281 125 387 125 c 0,6,7
 547 125 547 125 659 233.5 c 128,-1,8
 771 342 771 342 807 523 c 2,9,-1
 814 566 l 1,10,-1
 634 566 l 1,0,1
892 0 m 1,11,-1
 708 0 l 1,12,-1
 740 167 l 1,13,14
 576 -28 576 -28 312 -28 c 0,15,16
 142 -28 142 -28 60.5 67.5 c 128,-1,17
 -21 163 -21 163 7 326 c 0,18,19
 82 708 82 708 583 708 c 2,20,-1
 842 708 l 1,21,-1
 845 726 l 2,22,23
 871 854 871 854 802 922.5 c 128,-1,24
 733 991 733 991 583 991 c 0,25,26
 387 991 387 991 203 899 c 1,27,-1
 234 1069 l 1,28,29
 339 1109 339 1109 439.5 1126.5 c 128,-1,30
 540 1144 540 1144 628 1144 c 0,31,32
 1113 1144 1113 1144 1014 641 c 2,33,-1
 892 0 l 1,11,-1
807 1639 m 1,34,-1
 981 1262 l 1,35,-1
 842 1262 l 1,36,-1
 708 1507 l 1,37,-1
 484 1262 l 1,38,-1
 345 1262 l 1,39,-1
 661 1639 l 1,40,-1
 807 1639 l 1,34,-1
EndSplineSet
Layer: 2
SplineSet
191 288 m 3xbe
 191 177 274 125 387 125 c 3
 625 125 772 311 807 523 c 2
 814 566 l 1
 634 566 l 2
 370 566 191 524 191 288 c 3xbe
852 792 m 3
 852 936 737 991 583 991 c 3
 452 991 326 960 203 899 c 1
 234 1069 l 1
 352 1114 482 1144 628 1144 c 3
 897 1144 1031 1028 1031 797 c 3
 1031 750 1025 698 1014 641 c 2
 892 0 l 1
 708 0 l 1x7e
 740 167 l 1
 631 37 488 -28 312 -28 c 3
 127 -28 0 65 -0 247 c 3
 0 563 236 708 583 708 c 2
 842 708 l 1
 846 735 852 766 852 792 c 3
807 1639 m 1
 981 1262 l 1
 842 1262 l 1
 708 1507 l 1
 484 1262 l 1
 345 1262 l 1
 661 1639 l 1
 807 1639 l 1
EndSplineSet
EndChar

StartChar: adieresis
Encoding: 164 228 108
Width: 1253
VWidth: 3555
Flags: W
HStem: -28 153<244.438 538.361> 0 21G<708 895.807> 566 142<332.322 814> 991 153<324.965 767.887> 1351 203<420 580 811 974>
VStem: -0 191<175.558 446.106> 380 200<1351 1551> 420 198<1356 1554> 771 203<1351 1554> 811 203<1351 1554> 852 179<709.87 916.524>
DStem2: 702.608 -28 886.608 -28 0.189095 0.981959<63.308 198.553 329.487 604.347 749.08 832.254>
LayerCount: 3
Fore
SplineSet
634 566 m 1,0,1
 410 566 410 566 315 514 c 128,-1,2
 220 462 220 462 196 339 c 0,3,4
 177 238 177 238 229 181.5 c 128,-1,5
 281 125 281 125 387 125 c 0,6,7
 547 125 547 125 659 233.5 c 128,-1,8
 771 342 771 342 807 523 c 2,9,-1
 814 566 l 1,10,-1
 634 566 l 1,0,1
892 0 m 1,11,-1
 708 0 l 1,12,-1
 740 167 l 1,13,14
 576 -28 576 -28 312 -28 c 0,15,16
 142 -28 142 -28 60.5 67.5 c 128,-1,17
 -21 163 -21 163 7 326 c 0,18,19
 82 708 82 708 583 708 c 2,20,-1
 842 708 l 1,21,-1
 845 726 l 2,22,23
 871 854 871 854 802 922.5 c 128,-1,24
 733 991 733 991 583 991 c 0,25,26
 387 991 387 991 203 899 c 1,27,-1
 234 1069 l 1,28,29
 339 1109 339 1109 439.5 1126.5 c 128,-1,30
 540 1144 540 1144 628 1144 c 0,31,32
 1113 1144 1113 1144 1014 641 c 2,33,-1
 892 0 l 1,11,-1
1014 1554 m 1,34,-1
 974 1351 l 1,35,-1
 771 1351 l 1,36,-1
 811 1554 l 1,37,-1
 1014 1554 l 1,34,-1
618 1554 m 1,38,-1
 580 1351 l 1,39,-1
 380 1351 l 1,40,-1
 420 1554 l 1,41,-1
 618 1554 l 1,38,-1
EndSplineSet
Layer: 2
SplineSet
191 288 m 3xbc
 191 177 274 125 387 125 c 3
 625 125 772 311 807 523 c 2
 814 566 l 1
 634 566 l 2
 370 566 191 524 191 288 c 3xbc
852 792 m 3xbc20
 852 936 737 991 583 991 c 3
 452 991 326 960 203 899 c 1
 234 1069 l 1
 352 1114 482 1144 628 1144 c 3
 897 1144 1031 1028 1031 797 c 3xbc20
 1031 750 1025 698 1014 641 c 2
 892 0 l 1
 708 0 l 1x7c40
 740 167 l 1
 631 37 488 -28 312 -28 c 3
 127 -28 0 65 -0 247 c 3
 0 563 236 708 583 708 c 2
 842 708 l 1
 846 735 852 766 852 792 c 3xbc20
1014 1554 m 1x3c40
 974 1351 l 1
 771 1351 l 1x3c80
 811 1554 l 1
 1014 1554 l 1x3c40
618 1554 m 1x3d
 580 1351 l 1
 380 1351 l 1x3e
 420 1554 l 1
 618 1554 l 1x3d
EndSplineSet
EndChar

StartChar: atilde
Encoding: 163 227 109
Width: 1253
VWidth: 3555
Flags: W
HStem: -28 153<244.438 538.361> 0 21G<708 895.807> 566 142<332.322 814> 991 153<324.965 767.887> 1312 127<757.146 896.417> 1465 129<505.172 643.061>
VStem: -0 191<175.558 446.106> 342 123<1312 1435> 852 179<709.87 916.524> 932 123<1471.44 1594>
DStem2: 702.608 -28 886.608 -28 0.189095 0.981959<63.308 198.553 329.487 604.347 749.08 832.254>
LayerCount: 3
Fore
SplineSet
634 566 m 1,0,1
 410 566 410 566 315 514 c 128,-1,2
 220 462 220 462 196 339 c 0,3,4
 177 238 177 238 229 181.5 c 128,-1,5
 281 125 281 125 387 125 c 0,6,7
 547 125 547 125 659 233.5 c 128,-1,8
 771 342 771 342 807 523 c 2,9,-1
 814 566 l 1,10,-1
 634 566 l 1,0,1
892 0 m 1,11,-1
 708 0 l 1,12,-1
 740 167 l 1,13,14
 576 -28 576 -28 312 -28 c 0,15,16
 142 -28 142 -28 60.5 67.5 c 128,-1,17
 -21 163 -21 163 7 326 c 0,18,19
 82 708 82 708 583 708 c 2,20,-1
 842 708 l 1,21,-1
 845 726 l 2,22,23
 871 854 871 854 802 922.5 c 128,-1,24
 733 991 733 991 583 991 c 0,25,26
 387 991 387 991 203 899 c 1,27,-1
 234 1069 l 1,28,29
 339 1109 339 1109 439.5 1126.5 c 128,-1,30
 540 1144 540 1144 628 1144 c 0,31,32
 1113 1144 1113 1144 1014 641 c 2,33,-1
 892 0 l 1,11,-1
637 1429 m 1,34,35
 597 1465 597 1465 569 1465 c 0,36,37
 498 1465 498 1465 465 1312 c 1,38,-1
 342 1312 l 1,39,40
 394 1594 394 1594 590 1594 c 0,41,42
 665 1594 665 1594 715 1533 c 2,43,-1
 764 1476 l 2,44,45
 800 1439 800 1439 821 1439 c 0,46,47
 865 1439 865 1439 889 1474.5 c 128,-1,48
 913 1510 913 1510 932 1594 c 1,49,-1
 1055 1594 l 1,50,51
 995 1312 995 1312 804 1312 c 0,52,53
 729 1312 729 1312 679 1373 c 2,54,-1
 637 1429 l 1,34,35
EndSplineSet
Layer: 2
SplineSet
191 288 m 3xbf
 191 177 274 125 387 125 c 3
 625 125 772 311 807 523 c 2
 814 566 l 1
 634 566 l 2
 370 566 191 524 191 288 c 3xbf
852 792 m 3xbf80
 852 936 737 991 583 991 c 3
 452 991 326 960 203 899 c 1
 234 1069 l 1
 352 1114 482 1144 628 1144 c 3
 897 1144 1031 1028 1031 797 c 3
 1031 750 1025 698 1014 641 c 2
 892 0 l 1
 708 0 l 1x7f80
 740 167 l 1
 631 37 488 -28 312 -28 c 3
 127 -28 0 65 -0 247 c 3
 0 563 236 708 583 708 c 2
 842 708 l 1
 846 735 852 766 852 792 c 3xbf80
637 1429 m 2
 615 1458 588 1465 569 1465 c 3
 522 1465 487 1414 465 1312 c 1
 342 1312 l 1
 377 1500 459 1594 590 1594 c 3
 640 1594 681 1573 715 1533 c 2
 764 1476 l 2
 787 1450 807 1439 821 1439 c 3
 898 1439 913 1514 932 1594 c 1
 1055 1594 l 1x3f40
 1015 1406 931 1312 804 1312 c 3
 754 1312 711 1331 679 1373 c 2
 637 1429 l 2
EndSplineSet
EndChar

StartChar: aring
Encoding: 165 229 110
Width: 1253
VWidth: 3555
Flags: W
HStem: -28 153<244.438 538.361> 0 21G<708 895.807> 566 142<332.322 814> 991 153<324.965 767.887> 1248 125<582.609 798.955> 1679 123<628.119 841.087>
VStem: -0 191<175.558 446.106> 432 126<1400.11 1607.05> 852 179<709.87 916.524> 868 122<1442 1651.97>
DStem2: 702.608 -28 886.608 -28 0.189095 0.981959<63.308 198.553 329.487 604.347 749.08 832.254>
LayerCount: 3
Fore
SplineSet
634 566 m 1,0,1
 410 566 410 566 315 514 c 128,-1,2
 220 462 220 462 196 339 c 0,3,4
 177 238 177 238 229 181.5 c 128,-1,5
 281 125 281 125 387 125 c 0,6,7
 547 125 547 125 659 233.5 c 128,-1,8
 771 342 771 342 807 523 c 2,9,-1
 814 566 l 1,10,-1
 634 566 l 1,0,1
892 0 m 1,11,-1
 708 0 l 1,12,-1
 740 167 l 1,13,14
 576 -28 576 -28 312 -28 c 0,15,16
 142 -28 142 -28 60.5 67.5 c 128,-1,17
 -21 163 -21 163 7 326 c 0,18,19
 82 708 82 708 583 708 c 2,20,-1
 842 708 l 1,21,-1
 845 726 l 2,22,23
 871 854 871 854 802 922.5 c 128,-1,24
 733 991 733 991 583 991 c 0,25,26
 387 991 387 991 203 899 c 1,27,-1
 234 1069 l 1,28,29
 339 1109 339 1109 439.5 1126.5 c 128,-1,30
 540 1144 540 1144 628 1144 c 0,31,32
 1113 1144 1113 1144 1014 641 c 2,33,-1
 892 0 l 1,11,-1
865 1529 m 0,34,35
 878 1588 878 1588 842.5 1633.5 c 128,-1,36
 807 1679 807 1679 740 1679 c 0,37,38
 675 1679 675 1679 625.5 1633.5 c 128,-1,39
 576 1588 576 1588 562 1529 c 0,40,41
 547 1462 547 1462 582.5 1417.5 c 128,-1,42
 618 1373 618 1373 682 1373 c 0,43,44
 750 1373 750 1373 799.5 1417.5 c 128,-1,45
 849 1462 849 1462 865 1529 c 0,34,35
984 1529 m 0,46,47
 963 1411 963 1411 867 1329.5 c 128,-1,48
 771 1248 771 1248 658 1248 c 0,49,50
 540 1248 540 1248 478.5 1329.5 c 128,-1,51
 417 1411 417 1411 437 1529 c 0,52,53
 458 1639 458 1639 553 1720.5 c 128,-1,54
 648 1802 648 1802 764 1802 c 0,55,56
 878 1802 878 1802 942.5 1720.5 c 128,-1,57
 1007 1639 1007 1639 984 1529 c 0,46,47
EndSplineSet
Layer: 2
SplineSet
191 288 m 3xbf
 191 177 274 125 387 125 c 3
 625 125 772 311 807 523 c 2
 814 566 l 1
 634 566 l 2
 370 566 191 524 191 288 c 3xbf
852 792 m 3xbf80
 852 936 737 991 583 991 c 3
 452 991 326 960 203 899 c 1
 234 1069 l 1
 352 1114 482 1144 628 1144 c 3
 897 1144 1031 1028 1031 797 c 3
 1031 750 1025 698 1014 641 c 2
 892 0 l 1
 708 0 l 1x7f80
 740 167 l 1
 631 37 488 -28 312 -28 c 3
 127 -28 0 65 -0 247 c 3
 0 563 236 708 583 708 c 2
 842 708 l 1
 846 735 852 766 852 792 c 3xbf80
558 1491 m 3
 558 1419 613 1373 682 1373 c 3
 782 1373 868 1459 868 1560 c 3x3f40
 868 1631 811 1679 740 1679 c 3
 642 1679 558 1589 558 1491 c 3
990 1585 m 3
 990 1406 834 1248 658 1248 c 3
 526 1248 432 1339 432 1473 c 3
 432 1649 589 1802 764 1802 c 3
 888 1802 990 1712 990 1585 c 3
EndSplineSet
EndChar

StartChar: ccedilla
Encoding: 167 231 111
Width: 1126
VWidth: 3555
Flags: W
HStem: -394 123<201.729 472.995> -28 156<349.682 474.175> 991 153<504.252 918.714>
VStem: 26 199<250.298 670.827> 496 135<-246.053 -41.6044>
LayerCount: 3
Back
SplineSet
479 -28 m 3
 201 -28 26 122 26 401 c 3
 26 835 321 1144 722 1144 c 3
 838 1144 940 1122 1028 1078 c 1
 995 906 l 1
 908 963 810 991 700 991 c 3
 401 991 225 743 225 433 c 3
 225 235 332 128 529 128 c 3
 659 128 769 161 861 214 c 1
 828 43 l 1
 715 -4 598 -28 479 -28 c 3
207 -238 m 1
 250 -261 293 -271 359 -271 c 3
 432 -271 496 -237 496 -162 c 3
 496 -126 478 -72 441 0 c 1
 562 0 l 1
 599 -61 631 -108 631 -184 c 3
 631 -328 515 -394 356 -394 c 3
 288 -394 239 -383 181 -373 c 1
 207 -238 l 1
EndSplineSet
Fore
SplineSet
576 -23 m 1,0,1
 631 -113 631 -113 631 -184 c 259,2,3
 631 -288 631 -288 556 -341 c 128,-1,4
 481 -394 481 -394 356 -394 c 259,5,6
 303 -394 303 -394 181 -373 c 1,7,-1
 207 -238 l 1,8,9
 269 -271 269 -271 359 -271 c 259,10,11
 418 -271 418 -271 457 -243 c 128,-1,12
 496 -215 496 -215 496 -162 c 259,13,14
 496 -113 496 -113 455 -28 c 1,15,16
 254 -21 254 -21 140 90 c 128,-1,17
 26 201 26 201 26 401 c 259,18,19
 26 615 26 615 116 785 c 128,-1,20
 206 955 206 955 365 1049.5 c 128,-1,21
 524 1144 524 1144 722 1144 c 259,22,23
 896 1144 896 1144 1028 1078 c 1,24,-1
 995 906 l 1,25,26
 865 991 865 991 700 991 c 259,27,28
 555 991 555 991 445.5 916 c 128,-1,29
 336 841 336 841 280.5 715 c 128,-1,30
 225 589 225 589 225 433 c 259,31,32
 225 285 225 285 303 206.5 c 128,-1,33
 381 128 381 128 529 128 c 259,34,35
 712 128 712 128 861 214 c 1,36,-1
 828 43 l 1,37,38
 700 -10 700 -10 576 -23 c 1,0,1
EndSplineSet
Layer: 2
SplineSet
207 -238 m 1
 250 -261 293 -271 359 -271 c 3
 432 -271 496 -237 496 -162 c 3
 496 -131 483 -86 455 -28 c 1
 191 -19 26 130 26 401 c 0
 26 835 321 1144 722 1144 c 3
 838 1144 940 1122 1028 1078 c 1
 995 906 l 1
 908 963 810 991 700 991 c 3
 401 991 225 743 225 433 c 3
 225 235 332 128 529 128 c 3
 659 128 769 161 861 214 c 1
 828 43 l 1
 746 9 662 -14 576 -23 c 1
 607 -74 631 -118 631 -184 c 0
 631 -328 515 -394 356 -394 c 3
 288 -394 239 -383 181 -373 c 1
 207 -238 l 1
EndSplineSet
EndChar

StartChar: eacute
Encoding: 169 233 112
Width: 1262
VWidth: 3555
Flags: W
HStem: -28 156<348.973 822.464> 516 142<260 926.308> 991 153<487.077 836.575>
VStem: 27 193<257.067 506.682> 929 179<662.025 896.688>
LayerCount: 3
Fore
SplineSet
1073 516 m 1,0,-1
 224 516 l 1,1,2
 184 128 184 128 550 128 c 0,3,4
 764 128 764 128 974 231 c 1,5,-1
 943 57 l 1,6,7
 729 -28 729 -28 512 -28 c 0,8,9
 245 -28 245 -28 117.5 126.5 c 128,-1,10
 -10 281 -10 281 43 550 c 0,11,12
 95 828 95 828 271.5 986 c 128,-1,13
 448 1144 448 1144 705 1144 c 0,14,15
 932 1144 932 1144 1036.5 1001 c 128,-1,16
 1141 858 1141 858 1092 608 c 2,17,-1
 1073 516 l 1,0,-1
920 661 m 1,18,19
 950 814 950 814 884 902.5 c 128,-1,20
 818 991 818 991 679 991 c 0,21,22
 526 991 526 991 416 906 c 128,-1,23
 306 821 306 821 260 658 c 1,24,-1
 920 661 l 1,18,19
1127 1639 m 1,25,-1
 729 1262 l 1,26,-1
 580 1262 l 1,27,-1
 929 1639 l 1,28,-1
 1127 1639 l 1,25,-1
EndSplineSet
Layer: 2
SplineSet
705 1144 m 3
 952 1144 1108 1006 1108 757 c 3
 1108 711 1102 661 1092 608 c 2
 1073 516 l 1
 224 516 l 1
 221 491 220 466 220 443 c 3
 220 233 330 128 550 128 c 3
 693 128 834 162 974 231 c 1
 943 57 l 1
 800 0 657 -28 512 -28 c 3
 225 -28 27 118 27 402 c 3
 27 822 297 1144 705 1144 c 3
929 750 m 3
 929 904 831 991 679 991 c 3
 450 991 314 850 260 658 c 1
 920 661 l 1
 926 693 929 722 929 750 c 3
1127 1639 m 1
 729 1262 l 1
 580 1262 l 1
 929 1639 l 1
 1127 1639 l 1
EndSplineSet
EndChar

StartChar: egrave
Encoding: 168 232 113
Width: 1262
VWidth: 3555
Flags: W
HStem: -28 156<348.973 822.464> 516 142<260 926.308> 991 153<487.077 836.575>
VStem: 27 193<257.067 506.682> 929 179<662.025 896.688>
LayerCount: 3
Fore
SplineSet
1073 516 m 1,0,-1
 224 516 l 1,1,2
 184 128 184 128 550 128 c 0,3,4
 764 128 764 128 974 231 c 1,5,-1
 943 57 l 1,6,7
 729 -28 729 -28 512 -28 c 0,8,9
 245 -28 245 -28 117.5 126.5 c 128,-1,10
 -10 281 -10 281 43 550 c 0,11,12
 95 828 95 828 271.5 986 c 128,-1,13
 448 1144 448 1144 705 1144 c 0,14,15
 932 1144 932 1144 1036.5 1001 c 128,-1,16
 1141 858 1141 858 1092 608 c 2,17,-1
 1073 516 l 1,0,-1
920 661 m 1,18,19
 950 814 950 814 884 902.5 c 128,-1,20
 818 991 818 991 679 991 c 0,21,22
 526 991 526 991 416 906 c 128,-1,23
 306 821 306 821 260 658 c 1,24,-1
 920 661 l 1,18,19
854 1266 m 1,25,-1
 705 1266 l 1,26,-1
 444 1639 l 1,27,-1
 648 1639 l 1,28,-1
 854 1266 l 1,25,-1
EndSplineSet
Layer: 2
SplineSet
705 1144 m 3
 952 1144 1108 1006 1108 757 c 3
 1108 711 1102 661 1092 608 c 2
 1073 516 l 1
 224 516 l 1
 221 491 220 466 220 443 c 3
 220 233 330 128 550 128 c 3
 693 128 834 162 974 231 c 1
 943 57 l 1
 800 0 657 -28 512 -28 c 3
 225 -28 27 118 27 402 c 3
 27 822 297 1144 705 1144 c 3
929 750 m 3
 929 904 831 991 679 991 c 3
 450 991 314 850 260 658 c 1
 920 661 l 1
 926 693 929 722 929 750 c 3
854 1266 m 1
 705 1266 l 1
 444 1639 l 1
 648 1639 l 1
 854 1266 l 1
EndSplineSet
EndChar

StartChar: ecircumflex
Encoding: 170 234 114
Width: 1262
VWidth: 3555
Flags: W
HStem: -28 156<348.973 822.464> 516 142<260 926.308> 991 153<487.077 836.575>
VStem: 27 193<257.067 506.682> 401 139<1262 1401> 929 179<662.025 896.688>
DStem2: 401 1262 540 1262 0.64476 0.764385<89.6216 421.322>
LayerCount: 3
Fore
SplineSet
1073 516 m 1,0,-1
 224 516 l 1,1,2
 184 128 184 128 550 128 c 0,3,4
 764 128 764 128 974 231 c 1,5,-1
 943 57 l 1,6,7
 729 -28 729 -28 512 -28 c 0,8,9
 245 -28 245 -28 117.5 126.5 c 128,-1,10
 -10 281 -10 281 43 550 c 0,11,12
 95 828 95 828 271.5 986 c 128,-1,13
 448 1144 448 1144 705 1144 c 0,14,15
 932 1144 932 1144 1036.5 1001 c 128,-1,16
 1141 858 1141 858 1092 608 c 2,17,-1
 1073 516 l 1,0,-1
920 661 m 1,18,19
 950 814 950 814 884 902.5 c 128,-1,20
 818 991 818 991 679 991 c 0,21,22
 526 991 526 991 416 906 c 128,-1,23
 306 821 306 821 260 658 c 1,24,-1
 920 661 l 1,18,19
865 1639 m 1,25,-1
 1038 1262 l 1,26,-1
 899 1262 l 1,27,-1
 764 1507 l 1,28,-1
 540 1262 l 1,29,-1
 401 1262 l 1,30,-1
 719 1639 l 1,31,-1
 865 1639 l 1,25,-1
EndSplineSet
Layer: 2
SplineSet
705 1144 m 3
 952 1144 1108 1006 1108 757 c 3
 1108 711 1102 661 1092 608 c 2
 1073 516 l 1
 224 516 l 1
 221 491 220 466 220 443 c 3
 220 233 330 128 550 128 c 3
 693 128 834 162 974 231 c 1
 943 57 l 1
 800 0 657 -28 512 -28 c 3
 225 -28 27 118 27 402 c 3
 27 822 297 1144 705 1144 c 3
929 750 m 3
 929 904 831 991 679 991 c 3
 450 991 314 850 260 658 c 1
 920 661 l 1
 926 693 929 722 929 750 c 3
865 1639 m 1
 1038 1262 l 1
 899 1262 l 1
 764 1507 l 1
 540 1262 l 1
 401 1262 l 1
 719 1639 l 1
 865 1639 l 1
EndSplineSet
EndChar

StartChar: edieresis
Encoding: 171 235 115
Width: 1262
VWidth: 3555
Flags: W
HStem: -28 156<348.973 822.464> 516 142<260 926.308> 991 153<487.077 836.575> 1351 203<476 637 868 1031>
VStem: 27 193<257.067 506.682> 437 200<1351 1551> 476 199<1355 1554> 828 203<1351 1554> 868 201<1353 1554> 929 179<662.025 896.688>
LayerCount: 3
Fore
SplineSet
1073 516 m 1,0,-1
 224 516 l 1,1,2
 184 128 184 128 550 128 c 0,3,4
 764 128 764 128 974 231 c 1,5,-1
 943 57 l 1,6,7
 729 -28 729 -28 512 -28 c 0,8,9
 245 -28 245 -28 117.5 126.5 c 128,-1,10
 -10 281 -10 281 43 550 c 0,11,12
 95 828 95 828 271.5 986 c 128,-1,13
 448 1144 448 1144 705 1144 c 0,14,15
 932 1144 932 1144 1036.5 1001 c 128,-1,16
 1141 858 1141 858 1092 608 c 2,17,-1
 1073 516 l 1,0,-1
920 661 m 1,18,19
 950 814 950 814 884 902.5 c 128,-1,20
 818 991 818 991 679 991 c 0,21,22
 526 991 526 991 416 906 c 128,-1,23
 306 821 306 821 260 658 c 1,24,-1
 920 661 l 1,18,19
1069 1554 m 1,25,-1
 1031 1351 l 1,26,-1
 828 1351 l 1,27,-1
 868 1554 l 1,28,-1
 1069 1554 l 1,25,-1
675 1554 m 1,29,-1
 637 1351 l 1,30,-1
 437 1351 l 1,31,-1
 476 1554 l 1,32,-1
 675 1554 l 1,29,-1
EndSplineSet
Layer: 2
SplineSet
705 1144 m 3xf840
 952 1144 1108 1006 1108 757 c 3
 1108 711 1102 661 1092 608 c 2
 1073 516 l 1
 224 516 l 1
 221 491 220 466 220 443 c 3
 220 233 330 128 550 128 c 3
 693 128 834 162 974 231 c 1
 943 57 l 1
 800 0 657 -28 512 -28 c 3
 225 -28 27 118 27 402 c 3
 27 822 297 1144 705 1144 c 3xf840
929 750 m 3
 929 904 831 991 679 991 c 3
 450 991 314 850 260 658 c 1
 920 661 l 1
 926 693 929 722 929 750 c 3
1069 1554 m 1xf880
 1031 1351 l 1
 828 1351 l 1xf9
 868 1554 l 1
 1069 1554 l 1xf880
675 1554 m 1xfa
 637 1351 l 1
 437 1351 l 1xfc
 476 1554 l 1
 675 1554 l 1xfa
EndSplineSet
EndChar

StartChar: iacute
Encoding: 173 237 116
Width: 571
VWidth: 3555
Flags: W
HStem: 0 21G<17 203.875> 1100 20G<230.125 417>
VStem: 17 183<0 183> 234 183<937 1120>
DStem2: 17 0 200 0 0.189095 0.981959<34.6045 1140.83>
LayerCount: 3
Fore
SplineSet
417 1120 m 1,0,-1
 200 0 l 1,1,-1
 17 0 l 1,2,-1
 234 1120 l 1,3,-1
 417 1120 l 1,0,-1
774 1639 m 1,4,-1
 377 1262 l 1,5,-1
 227 1262 l 1,6,-1
 576 1639 l 1,7,-1
 774 1639 l 1,4,-1
EndSplineSet
Layer: 2
SplineSet
417 1120 m 1
 200 0 l 1
 17 0 l 1
 234 1120 l 1
 417 1120 l 1
774 1639 m 1
 377 1262 l 1
 227 1262 l 1
 576 1639 l 1
 774 1639 l 1
EndSplineSet
EndChar

StartChar: igrave
Encoding: 172 236 117
Width: 571
VWidth: 3555
Flags: W
HStem: 0 21G<17 203.875> 1100 20G<230.125 417>
VStem: 17 183<0 183> 234 183<937 1120>
DStem2: 17 0 200 0 0.189095 0.981959<34.6045 1140.83>
LayerCount: 3
Fore
SplineSet
417 1120 m 1,0,-1
 200 0 l 1,1,-1
 17 0 l 1,2,-1
 234 1120 l 1,3,-1
 417 1120 l 1,0,-1
502 1266 m 1,4,-1
 352 1266 l 1,5,-1
 92 1639 l 1,6,-1
 295 1639 l 1,7,-1
 502 1266 l 1,4,-1
EndSplineSet
Layer: 2
SplineSet
417 1120 m 1
 200 0 l 1
 17 0 l 1
 234 1120 l 1
 417 1120 l 1
502 1266 m 1
 352 1266 l 1
 92 1639 l 1
 295 1639 l 1
 502 1266 l 1
EndSplineSet
EndChar

StartChar: icircumflex
Encoding: 174 238 118
Width: 571
VWidth: 3555
Flags: W
HStem: 0 21G<17 203.875> 1100 20G<230.125 417>
VStem: 17 183<0 183> 50 139<1262 1401> 234 183<937 1120>
DStem2: 17 0 200 0 0.189095 0.981959<34.6045 1140.83>
LayerCount: 3
Fore
SplineSet
417 1120 m 1,0,-1
 200 0 l 1,1,-1
 17 0 l 1,2,-1
 234 1120 l 1,3,-1
 417 1120 l 1,0,-1
512 1639 m 1,4,-1
 686 1262 l 1,5,-1
 547 1262 l 1,6,-1
 413 1507 l 1,7,-1
 189 1262 l 1,8,-1
 50 1262 l 1,9,-1
 366 1639 l 1,10,-1
 512 1639 l 1,4,-1
EndSplineSet
Layer: 2
SplineSet
417 1120 m 1xe8
 200 0 l 1
 17 0 l 1
 234 1120 l 1
 417 1120 l 1xe8
512 1639 m 1
 686 1262 l 1
 547 1262 l 1
 413 1507 l 1
 189 1262 l 1
 50 1262 l 1xd8
 366 1639 l 1
 512 1639 l 1
EndSplineSet
EndChar

StartChar: idieresis
Encoding: 175 239 119
Width: 571
VWidth: 3555
Flags: W
HStem: 0 21G<17 203.875> 1100 20G<230.125 417> 1351 203<125 285 516 679>
VStem: 17 183<0 183> 85 200<1351 1551> 125 198<1356 1554> 234 183<937 1120> 476 203<1351 1554> 516 203<1351 1554>
DStem2: 17 0 200 0 0.189095 0.981959<34.6045 1140.83>
LayerCount: 3
Fore
SplineSet
417 1120 m 1,0,-1
 200 0 l 1,1,-1
 17 0 l 1,2,-1
 234 1120 l 1,3,-1
 417 1120 l 1,0,-1
719 1554 m 1,4,-1
 679 1351 l 1,5,-1
 476 1351 l 1,6,-1
 516 1554 l 1,7,-1
 719 1554 l 1,4,-1
323 1554 m 1,8,-1
 285 1351 l 1,9,-1
 85 1351 l 1,10,-1
 125 1554 l 1,11,-1
 323 1554 l 1,8,-1
EndSplineSet
Layer: 2
SplineSet
417 1120 m 1xf2
 200 0 l 1
 17 0 l 1
 234 1120 l 1
 417 1120 l 1xf2
719 1554 m 1xe080
 679 1351 l 1
 476 1351 l 1xe1
 516 1554 l 1
 719 1554 l 1xe080
323 1554 m 1xe4
 285 1351 l 1
 85 1351 l 1xe8
 125 1554 l 1
 323 1554 l 1xe4
EndSplineSet
EndChar

StartChar: ntilde
Encoding: 177 241 120
Width: 1300
VWidth: 3555
Flags: W
HStem: 0 21G<10 199.785 764 949.888> 988 156<565.895 849.12> 1100 20G<223.125 413> 1312 127<828.146 967.417> 1465 129<576.172 714.061>
VStem: 10 186<0 186> 413 123<1312 1435> 764 182<0 182> 905 188<531.391 929.163> 1003 123<1471.44 1594>
DStem2: 10 0 196 0 0.189095 0.981959<35.1718 900.759 1002.26 1140.83> 764 0 946 0 0.189095 0.981959<34.4154 797.849>
LayerCount: 3
Fore
SplineSet
946 0 m 1,0,-1
 764 0 l 1,1,-1
 892 668 l 2,2,3
 957 988 957 988 708 988 c 0,4,5
 554 988 554 988 451.5 896 c 128,-1,6
 349 804 349 804 316 634 c 2,7,-1
 196 0 l 1,8,-1
 10 0 l 1,9,-1
 227 1120 l 1,10,-1
 413 1120 l 1,11,-1
 377 950 l 1,12,13
 465 1049 465 1049 561.5 1096.5 c 128,-1,14
 658 1144 658 1144 774 1144 c 0,15,16
 970 1144 970 1144 1045 1025 c 128,-1,17
 1120 906 1120 906 1078 679 c 2,18,-1
 946 0 l 1,0,-1
708 1429 m 1,19,20
 668 1465 668 1465 641 1465 c 0,21,22
 569 1465 569 1465 536 1312 c 1,23,-1
 413 1312 l 1,24,25
 465 1594 465 1594 661 1594 c 0,26,27
 736 1594 736 1594 786 1533 c 2,28,-1
 835 1476 l 2,29,30
 871 1439 871 1439 892 1439 c 0,31,32
 936 1439 936 1439 960 1474.5 c 128,-1,33
 984 1510 984 1510 1003 1594 c 1,34,-1
 1127 1594 l 1,35,36
 1066 1312 1066 1312 875 1312 c 0,37,38
 800 1312 800 1312 750 1373 c 2,39,-1
 708 1429 l 1,19,20
EndSplineSet
Layer: 2
SplineSet
708 1429 m 2x9e40
 686 1458 659 1465 640 1465 c 3
 593 1465 558 1414 536 1312 c 1
 413 1312 l 1
 448 1500 530 1594 661 1594 c 3
 711 1594 752 1573 786 1533 c 2
 835 1476 l 2
 858 1450 878 1439 892 1439 c 3
 969 1439 984 1514 1003 1594 c 1
 1126 1594 l 1
 1086 1406 1002 1312 875 1312 c 3
 825 1312 782 1331 750 1373 c 2
 708 1429 l 2x9e40
774 1144 m 3xde80
 986 1144 1093 1038 1093 828 c 3xde80
 1093 783 1088 733 1078 679 c 2
 946 0 l 1
 764 0 l 1xdf
 892 668 l 2
 901 712 905 752 905 787 c 3
 905 921 840 988 708 988 c 3xde80
 481 988 355 836 316 634 c 2
 196 0 l 1
 10 0 l 1
 227 1120 l 1
 413 1120 l 1xbe80
 377 950 l 1
 475 1061 588 1144 774 1144 c 3xde80
EndSplineSet
EndChar

StartChar: oacute
Encoding: 179 243 121
Width: 1253
VWidth: 3555
Flags: W
HStem: -28 156<324.006 637.218> 991 153<472.581 785.867>
VStem: 25 198<230.855 681.173> 893 194<439.003 880.44>
LayerCount: 3
Fore
SplineSet
641 991 m 256,0,1
 491 991 491 991 384.5 877.5 c 128,-1,2
 278 764 278 764 238 562 c 256,3,4
 200 359 200 359 259.5 243.5 c 128,-1,5
 319 128 319 128 469 128 c 256,6,7
 618 128 618 128 728 243.5 c 128,-1,8
 838 359 838 359 878 562 c 0,9,10
 917 757 917 757 853.5 874 c 128,-1,11
 790 991 790 991 641 991 c 256,0,1
668 1144 m 256,12,13
 913 1144 913 1144 1018 991 c 128,-1,14
 1123 838 1123 838 1069 562 c 256,15,16
 1017 285 1017 285 851.5 128.5 c 128,-1,17
 686 -28 686 -28 441 -28 c 256,18,19
 196 -28 196 -28 93 128.5 c 128,-1,20
 -10 285 -10 285 43 562 c 256,21,22
 95 838 95 838 259.5 991 c 128,-1,23
 424 1144 424 1144 668 1144 c 256,12,13
1102 1639 m 1,24,-1
 705 1262 l 1,25,-1
 554 1262 l 1,26,-1
 903 1639 l 1,27,-1
 1102 1639 l 1,24,-1
EndSplineSet
Layer: 2
SplineSet
893 699 m 3
 893 873 805 991 641 991 c 259
 370 991 223 706 223 417 c 3
 223 242 303 128 469 128 c 259
 738 128 893 413 893 699 c 3
441 -28 m 259
 175 -28 25 120 25 388 c 3
 25 810 262 1144 668 1144 c 259
 933 1144 1087 1001 1087 735 c 3
 1087 314 848 -28 441 -28 c 259
1102 1639 m 1
 705 1262 l 1
 554 1262 l 1
 903 1639 l 1
 1102 1639 l 1
EndSplineSet
EndChar

StartChar: ograve
Encoding: 178 242 122
Width: 1253
VWidth: 3555
Flags: W
HStem: -28 156<324.006 637.218> 991 153<472.581 785.867>
VStem: 25 198<230.855 681.173> 893 194<439.003 880.44>
LayerCount: 3
Fore
SplineSet
641 991 m 256,0,1
 491 991 491 991 384.5 877.5 c 128,-1,2
 278 764 278 764 238 562 c 256,3,4
 200 359 200 359 259.5 243.5 c 128,-1,5
 319 128 319 128 469 128 c 256,6,7
 618 128 618 128 728 243.5 c 128,-1,8
 838 359 838 359 878 562 c 0,9,10
 917 757 917 757 853.5 874 c 128,-1,11
 790 991 790 991 641 991 c 256,0,1
668 1144 m 256,12,13
 913 1144 913 1144 1018 991 c 128,-1,14
 1123 838 1123 838 1069 562 c 256,15,16
 1017 285 1017 285 851.5 128.5 c 128,-1,17
 686 -28 686 -28 441 -28 c 256,18,19
 196 -28 196 -28 93 128.5 c 128,-1,20
 -10 285 -10 285 43 562 c 256,21,22
 95 838 95 838 259.5 991 c 128,-1,23
 424 1144 424 1144 668 1144 c 256,12,13
828 1266 m 1,24,-1
 679 1266 l 1,25,-1
 420 1639 l 1,26,-1
 621 1639 l 1,27,-1
 828 1266 l 1,24,-1
EndSplineSet
Layer: 2
SplineSet
893 699 m 3
 893 873 805 991 641 991 c 259
 370 991 223 706 223 417 c 3
 223 242 303 128 469 128 c 259
 738 128 893 413 893 699 c 3
441 -28 m 259
 175 -28 25 120 25 388 c 3
 25 810 262 1144 668 1144 c 259
 933 1144 1087 1001 1087 735 c 3
 1087 314 848 -28 441 -28 c 259
828 1266 m 1
 679 1266 l 1
 420 1639 l 1
 621 1639 l 1
 828 1266 l 1
EndSplineSet
EndChar

StartChar: ocircumflex
Encoding: 180 244 123
Width: 1253
VWidth: 3555
Flags: W
HStem: -28 156<324.006 637.218> 991 153<472.581 785.867>
VStem: 25 198<230.855 681.173> 377 139<1262 1401> 893 194<439.003 880.44>
LayerCount: 3
Fore
SplineSet
641 991 m 256,0,1
 491 991 491 991 384.5 877.5 c 128,-1,2
 278 764 278 764 238 562 c 256,3,4
 200 359 200 359 259.5 243.5 c 128,-1,5
 319 128 319 128 469 128 c 256,6,7
 618 128 618 128 728 243.5 c 128,-1,8
 838 359 838 359 878 562 c 0,9,10
 917 757 917 757 853.5 874 c 128,-1,11
 790 991 790 991 641 991 c 256,0,1
668 1144 m 256,12,13
 913 1144 913 1144 1018 991 c 128,-1,14
 1123 838 1123 838 1069 562 c 256,15,16
 1017 285 1017 285 851.5 128.5 c 128,-1,17
 686 -28 686 -28 441 -28 c 256,18,19
 196 -28 196 -28 93 128.5 c 128,-1,20
 -10 285 -10 285 43 562 c 256,21,22
 95 838 95 838 259.5 991 c 128,-1,23
 424 1144 424 1144 668 1144 c 256,12,13
838 1639 m 1,24,-1
 1014 1262 l 1,25,-1
 875 1262 l 1,26,-1
 740 1507 l 1,27,-1
 516 1262 l 1,28,-1
 377 1262 l 1,29,-1
 693 1639 l 1,30,-1
 838 1639 l 1,24,-1
EndSplineSet
Layer: 2
SplineSet
893 699 m 3
 893 873 805 991 641 991 c 259
 370 991 223 706 223 417 c 3
 223 242 303 128 469 128 c 259
 738 128 893 413 893 699 c 3
441 -28 m 259
 175 -28 25 120 25 388 c 3
 25 810 262 1144 668 1144 c 259
 933 1144 1087 1001 1087 735 c 3
 1087 314 848 -28 441 -28 c 259
838 1639 m 1
 1014 1262 l 1
 875 1262 l 1
 740 1507 l 1
 516 1262 l 1
 377 1262 l 1
 693 1639 l 1
 838 1639 l 1
EndSplineSet
EndChar

StartChar: odieresis
Encoding: 182 246 124
Width: 1253
VWidth: 3555
Flags: W
HStem: -28 156<324.006 637.218> 991 153<472.581 785.867> 1351 203<451 611 842 1007>
VStem: 25 198<230.855 681.173> 413 198<1351 1549> 451 200<1354 1554> 804 203<1351 1554> 842 203<1351 1554> 893 194<439.003 880.44>
LayerCount: 3
Fore
SplineSet
641 991 m 256,0,1
 491 991 491 991 384.5 877.5 c 128,-1,2
 278 764 278 764 238 562 c 256,3,4
 200 359 200 359 259.5 243.5 c 128,-1,5
 319 128 319 128 469 128 c 256,6,7
 618 128 618 128 728 243.5 c 128,-1,8
 838 359 838 359 878 562 c 0,9,10
 917 757 917 757 853.5 874 c 128,-1,11
 790 991 790 991 641 991 c 256,0,1
668 1144 m 256,12,13
 913 1144 913 1144 1018 991 c 128,-1,14
 1123 838 1123 838 1069 562 c 256,15,16
 1017 285 1017 285 851.5 128.5 c 128,-1,17
 686 -28 686 -28 441 -28 c 256,18,19
 196 -28 196 -28 93 128.5 c 128,-1,20
 -10 285 -10 285 43 562 c 256,21,22
 95 838 95 838 259.5 991 c 128,-1,23
 424 1144 424 1144 668 1144 c 256,12,13
1045 1554 m 1,24,-1
 1007 1351 l 1,25,-1
 804 1351 l 1,26,-1
 842 1554 l 1,27,-1
 1045 1554 l 1,24,-1
651 1554 m 1,28,-1
 611 1351 l 1,29,-1
 413 1351 l 1,30,-1
 451 1554 l 1,31,-1
 651 1554 l 1,28,-1
EndSplineSet
Layer: 2
SplineSet
893 699 m 3xf080
 893 873 805 991 641 991 c 259
 370 991 223 706 223 417 c 3
 223 242 303 128 469 128 c 259
 738 128 893 413 893 699 c 3xf080
441 -28 m 259
 175 -28 25 120 25 388 c 3
 25 810 262 1144 668 1144 c 259
 933 1144 1087 1001 1087 735 c 3
 1087 314 848 -28 441 -28 c 259
1045 1554 m 1xf1
 1007 1351 l 1
 804 1351 l 1xf2
 842 1554 l 1
 1045 1554 l 1xf1
651 1554 m 1xf4
 611 1351 l 1
 413 1351 l 1xf8
 451 1554 l 1
 651 1554 l 1xf4
EndSplineSet
EndChar

StartChar: otilde
Encoding: 181 245 125
Width: 1253
VWidth: 3555
Flags: W
HStem: -28 156<324.006 637.218> 991 153<472.581 785.867> 1312 127<790.146 929.417> 1465 129<538.172 676.061>
VStem: 25 198<230.855 681.173> 375 123<1312 1435> 893 194<439.003 880.44> 965 123<1471.44 1594>
LayerCount: 3
Fore
SplineSet
641 991 m 256,0,1
 491 991 491 991 384.5 877.5 c 128,-1,2
 278 764 278 764 238 562 c 256,3,4
 200 359 200 359 259.5 243.5 c 128,-1,5
 319 128 319 128 469 128 c 256,6,7
 618 128 618 128 728 243.5 c 128,-1,8
 838 359 838 359 878 562 c 0,9,10
 917 757 917 757 853.5 874 c 128,-1,11
 790 991 790 991 641 991 c 256,0,1
668 1144 m 256,12,13
 913 1144 913 1144 1018 991 c 128,-1,14
 1123 838 1123 838 1069 562 c 256,15,16
 1017 285 1017 285 851.5 128.5 c 128,-1,17
 686 -28 686 -28 441 -28 c 256,18,19
 196 -28 196 -28 93 128.5 c 128,-1,20
 -10 285 -10 285 43 562 c 256,21,22
 95 838 95 838 259.5 991 c 128,-1,23
 424 1144 424 1144 668 1144 c 256,12,13
668 1429 m 1,24,25
 628 1465 628 1465 601 1465 c 0,26,27
 529 1465 529 1465 498 1312 c 1,28,-1
 373 1312 l 1,29,30
 427 1594 427 1594 621 1594 c 0,31,32
 696 1594 696 1594 746 1533 c 2,33,-1
 797 1476 l 2,34,35
 832 1439 832 1439 854 1439 c 0,36,37
 896 1439 896 1439 921 1474.5 c 128,-1,38
 946 1510 946 1510 963 1594 c 1,39,-1
 1088 1594 l 1,40,41
 1028 1312 1028 1312 835 1312 c 0,42,43
 760 1312 760 1312 712 1373 c 2,44,-1
 668 1429 l 1,24,25
EndSplineSet
Layer: 2
SplineSet
670 1429 m 2xfd
 648 1458 621 1465 602 1465 c 3
 555 1465 520 1414 498 1312 c 1
 375 1312 l 1
 410 1500 492 1594 623 1594 c 3
 673 1594 714 1573 748 1533 c 2
 797 1476 l 2
 820 1450 840 1439 854 1439 c 3
 931 1439 946 1514 965 1594 c 1
 1088 1594 l 1
 1048 1406 964 1312 837 1312 c 3
 787 1312 744 1331 712 1373 c 2
 670 1429 l 2xfd
893 699 m 3xfe
 893 873 805 991 641 991 c 259
 370 991 223 706 223 417 c 3
 223 242 303 128 469 128 c 259
 738 128 893 413 893 699 c 3xfe
441 -28 m 259
 175 -28 25 120 25 388 c 3
 25 810 262 1144 668 1144 c 259
 933 1144 1087 1001 1087 735 c 3
 1087 314 848 -28 441 -28 c 259
EndSplineSet
EndChar

StartChar: uacute
Encoding: 186 250 126
Width: 1300
VWidth: 3555
Flags: W
HStem: -28 160<313.881 589.44> 0 21G<753 939.875> 1100 20G<206.095 398 966.044 1153>
VStem: 61 193<191.304 584.102> 210 188<932 1120> 970 183<937 1120>
DStem2: -12.8929 -28 174.759 -28 0.189095 0.981959<408.488 1169.44> 747.608 -28 930.608 -28 0.189095 0.981959<63.1189 201.688 322.29 1169.34>
LayerCount: 3
Fore
SplineSet
210 1120 m 1,0,-1
 398 1120 l 1,1,-1
 267 451 l 2,2,3
 203 132 203 132 455 132 c 0,4,5
 604 132 604 132 709 227.5 c 128,-1,6
 814 323 814 323 845 488 c 2,7,-1
 970 1120 l 1,8,-1
 1153 1120 l 1,9,-1
 936 0 l 1,10,-1
 753 0 l 1,11,-1
 786 170 l 1,12,13
 693 71 693 71 597.5 21.5 c 128,-1,14
 502 -28 502 -28 384 -28 c 0,15,16
 -14 -28 -14 -28 78 444 c 2,17,-1
 210 1120 l 1,0,-1
1113 1639 m 1,18,-1
 715 1262 l 1,19,-1
 566 1262 l 1,20,-1
 913 1639 l 1,21,-1
 1113 1639 l 1,18,-1
EndSplineSet
Layer: 2
SplineSet
210 1120 m 1xac
 398 1120 l 1xac
 267 451 l 2
 258 408 254 369 254 335 c 3
 254 200 321 132 455 132 c 3xb4
 675 132 806 292 845 488 c 2
 970 1120 l 1
 1153 1120 l 1
 936 0 l 1
 753 0 l 1x74
 786 170 l 1
 683 60 572 -28 384 -28 c 3
 168 -28 61 75 61 283 c 3xb4
 61 331 66 385 78 444 c 2
 210 1120 l 1xac
1113 1639 m 1
 715 1262 l 1
 566 1262 l 1
 913 1639 l 1
 1113 1639 l 1
EndSplineSet
EndChar

StartChar: ugrave
Encoding: 185 249 127
Width: 1300
VWidth: 3555
Flags: W
HStem: -28 160<313.881 589.44> 0 21G<753 939.875> 1100 20G<206.095 398 966.044 1153>
VStem: 61 193<191.304 584.102> 210 188<932 1120> 970 183<937 1120>
DStem2: -12.8929 -28 174.759 -28 0.189095 0.981959<408.488 1169.44> 747.608 -28 930.608 -28 0.189095 0.981959<63.1189 201.688 322.29 1169.34>
LayerCount: 3
Fore
SplineSet
210 1120 m 1,0,-1
 398 1120 l 1,1,-1
 267 451 l 2,2,3
 203 132 203 132 455 132 c 0,4,5
 604 132 604 132 709 227.5 c 128,-1,6
 814 323 814 323 845 488 c 2,7,-1
 970 1120 l 1,8,-1
 1153 1120 l 1,9,-1
 936 0 l 1,10,-1
 753 0 l 1,11,-1
 786 170 l 1,12,13
 693 71 693 71 597.5 21.5 c 128,-1,14
 502 -28 502 -28 384 -28 c 0,15,16
 -14 -28 -14 -28 78 444 c 2,17,-1
 210 1120 l 1,0,-1
838 1266 m 1,18,-1
 689 1266 l 1,19,-1
 431 1639 l 1,20,-1
 634 1639 l 1,21,-1
 838 1266 l 1,18,-1
EndSplineSet
Layer: 2
SplineSet
210 1120 m 1xac
 398 1120 l 1xac
 267 451 l 2
 258 408 254 369 254 335 c 3
 254 200 321 132 455 132 c 3xb4
 675 132 806 292 845 488 c 2
 970 1120 l 1
 1153 1120 l 1
 936 0 l 1
 753 0 l 1x74
 786 170 l 1
 683 60 572 -28 384 -28 c 3
 168 -28 61 75 61 283 c 3xb4
 61 331 66 385 78 444 c 2
 210 1120 l 1xac
838 1266 m 1
 689 1266 l 1
 431 1639 l 1
 634 1639 l 1
 838 1266 l 1
EndSplineSet
EndChar

StartChar: ucircumflex
Encoding: 187 251 128
Width: 1300
VWidth: 3555
Flags: W
HStem: -28 160<313.881 589.44> 0 21G<753 939.875> 1100 20G<206.095 398 966.044 1153>
VStem: 61 193<191.304 584.102> 210 188<932 1120> 387 139<1262 1401> 970 183<937 1120>
DStem2: -12.8929 -28 174.759 -28 0.189095 0.981959<408.488 1169.44> 387 1262 526 1262 0.64476 0.764385<89.6216 421.322> 747.608 -28 930.608 -28 0.189095 0.981959<63.1189 201.688 322.29 1169.34>
LayerCount: 3
Fore
SplineSet
210 1120 m 1,0,-1
 398 1120 l 1,1,-1
 267 451 l 2,2,3
 203 132 203 132 455 132 c 0,4,5
 604 132 604 132 709 227.5 c 128,-1,6
 814 323 814 323 845 488 c 2,7,-1
 970 1120 l 1,8,-1
 1153 1120 l 1,9,-1
 936 0 l 1,10,-1
 753 0 l 1,11,-1
 786 170 l 1,12,13
 693 71 693 71 597.5 21.5 c 128,-1,14
 502 -28 502 -28 384 -28 c 0,15,16
 -14 -28 -14 -28 78 444 c 2,17,-1
 210 1120 l 1,0,-1
849 1639 m 1,18,-1
 1024 1262 l 1,19,-1
 885 1262 l 1,20,-1
 750 1507 l 1,21,-1
 526 1262 l 1,22,-1
 387 1262 l 1,23,-1
 705 1639 l 1,24,-1
 849 1639 l 1,18,-1
EndSplineSet
Layer: 2
SplineSet
210 1120 m 1xaa
 398 1120 l 1xaa
 267 451 l 2
 258 408 254 369 254 335 c 3
 254 200 321 132 455 132 c 3xb2
 675 132 806 292 845 488 c 2
 970 1120 l 1
 1153 1120 l 1
 936 0 l 1
 753 0 l 1x72
 786 170 l 1
 683 60 572 -28 384 -28 c 3
 168 -28 61 75 61 283 c 3xb2
 61 331 66 385 78 444 c 2
 210 1120 l 1xaa
849 1639 m 1
 1024 1262 l 1
 885 1262 l 1
 750 1507 l 1
 526 1262 l 1
 387 1262 l 1x26
 705 1639 l 1
 849 1639 l 1
EndSplineSet
EndChar

StartChar: udieresis
Encoding: 188 252 129
Width: 1300
VWidth: 3555
Flags: W
HStem: -28 160<313.881 589.44> 0 21G<753 939.875> 1100 20G<206.095 398 966.044 1153> 1351 203<462 621 854 1017>
VStem: 61 193<191.304 584.102> 210 188<932 1120> 424 197<1351 1548> 462 199<1355 1554> 814 203<1351 1554> 854 201<1353 1554> 970 183<937 1120>
DStem2: -12.8929 -28 174.759 -28 0.189095 0.981959<408.488 1169.44> 747.608 -28 930.608 -28 0.189095 0.981959<63.1189 201.688 322.29 1169.34>
LayerCount: 3
Fore
SplineSet
210 1120 m 1,0,-1
 398 1120 l 1,1,-1
 267 451 l 2,2,3
 203 132 203 132 455 132 c 0,4,5
 604 132 604 132 709 227.5 c 128,-1,6
 814 323 814 323 845 488 c 2,7,-1
 970 1120 l 1,8,-1
 1153 1120 l 1,9,-1
 936 0 l 1,10,-1
 753 0 l 1,11,-1
 786 170 l 1,12,13
 693 71 693 71 597.5 21.5 c 128,-1,14
 502 -28 502 -28 384 -28 c 0,15,16
 -14 -28 -14 -28 78 444 c 2,17,-1
 210 1120 l 1,0,-1
1055 1554 m 1,18,-1
 1017 1351 l 1,19,-1
 814 1351 l 1,20,-1
 854 1554 l 1,21,-1
 1055 1554 l 1,18,-1
661 1554 m 1,22,-1
 621 1351 l 1,23,-1
 424 1351 l 1,24,-1
 462 1554 l 1,25,-1
 661 1554 l 1,22,-1
EndSplineSet
Layer: 2
SplineSet
210 1120 m 1xb4
 398 1120 l 1xb4
 267 451 l 2
 258 408 254 369 254 335 c 3
 254 200 321 132 455 132 c 3xb8
 675 132 806 292 845 488 c 2
 970 1120 l 1
 1153 1120 l 1
 936 0 l 1
 753 0 l 1x7820
 786 170 l 1
 683 60 572 -28 384 -28 c 3
 168 -28 61 75 61 283 c 3xb820
 61 331 66 385 78 444 c 2
 210 1120 l 1xb4
1055 1554 m 1x3040
 1017 1351 l 1
 814 1351 l 1x3080
 854 1554 l 1
 1055 1554 l 1x3040
661 1554 m 1x31
 621 1351 l 1
 424 1351 l 1x32
 462 1554 l 1
 661 1554 l 1x31
EndSplineSet
EndChar

StartChar: dagger
Encoding: 328 8224 130
Width: 1022
VWidth: 3555
Flags: W
HStem: 920 153<85 424 628 970> 1473 20G<529.095 712>
VStem: 207 177<-200 -23> 533 179<1314 1493>
DStem2: 207 -200 384 -200 0.189095 0.981959<33.4699 1140.83 1329.64 1724.1>
LayerCount: 3
Fore
SplineSet
712 1493 m 1,0,-1
 628 1073 l 1,1,-1
 998 1073 l 1,2,-1
 970 920 l 1,3,-1
 601 920 l 1,4,-1
 384 -200 l 1,5,-1
 207 -200 l 1,6,-1
 424 920 l 1,7,-1
 57 920 l 1,8,-1
 85 1073 l 1,9,-1
 451 1073 l 1,10,-1
 533 1493 l 1,11,-1
 712 1493 l 1,0,-1
EndSplineSet
Layer: 2
SplineSet
712 1493 m 1
 628 1073 l 1
 998 1073 l 1
 970 920 l 1
 601 920 l 1
 384 -200 l 1
 207 -200 l 1
 424 920 l 1
 57 920 l 1
 85 1073 l 1
 451 1073 l 1
 533 1493 l 1
 712 1493 l 1
EndSplineSet
EndChar

StartChar: degree
Encoding: 112 176 131
Width: 1022
VWidth: 3555
Flags: W
HStem: 885 129<418.219 662.472> 1391 131<473.759 721.409>
VStem: 240 134<1057.39 1291.55> 762 130<1114.36 1347.92>
LayerCount: 3
Fore
SplineSet
762 1245 m 259,0,1
 762 1311 762 1311 717 1351 c 128,-1,2
 672 1391 672 1391 604 1391 c 259,3,4
 513 1391 513 1391 443.5 1323.5 c 128,-1,5
 374 1256 374 1256 374 1165 c 259,6,7
 374 1099 374 1099 418.5 1056.5 c 128,-1,8
 463 1014 463 1014 529 1014 c 259,9,10
 624 1014 624 1014 693 1082 c 128,-1,11
 762 1150 762 1150 762 1245 c 259,0,1
505 885 m 259,12,13
 393 885 393 885 316.5 953 c 128,-1,14
 240 1021 240 1021 240 1131 c 259,15,16
 240 1232 240 1232 294.5 1323 c 128,-1,17
 349 1414 349 1414 439 1468 c 128,-1,18
 529 1522 529 1522 628 1522 c 259,19,20
 744 1522 744 1522 818 1451.5 c 128,-1,21
 892 1381 892 1381 892 1264 c 259,22,23
 892 1171 892 1171 839.5 1083.5 c 128,-1,24
 787 996 787 996 696.5 940.5 c 128,-1,25
 606 885 606 885 505 885 c 259,12,13
EndSplineSet
Layer: 2
SplineSet
762 1245 m 3
 762 1335 693 1391 604 1391 c 3
 484 1391 374 1288 374 1165 c 3
 374 1076 442 1014 529 1014 c 3
 655 1014 762 1118 762 1245 c 3
505 885 m 3
 359 885 240 981 240 1131 c 3
 240 1338 426 1522 628 1522 c 3
 780 1522 892 1422 892 1264 c 3
 892 1076 714 885 505 885 c 3
EndSplineSet
EndChar

StartChar: cent
Encoding: 98 162 132
Width: 1303
VWidth: 3555
Flags: W
HStem: -24 156<397.411 498 621 836.355> 988 156<556.334 696 821 991.191>
VStem: 83 201<248.458 678.348> 441 95<-312 -217> 783 95<1341 1436>
DStem2: 441 -312 536 -312 0.189095 0.981959<17.9641 293.583 466.099 1324.77 1501.59 1781.13>
LayerCount: 3
Fore
SplineSet
696 988 m 1,0,1
 506 966 506 966 395 807.5 c 128,-1,2
 284 649 284 649 284 423 c 259,3,4
 284 293 284 293 347 219.5 c 128,-1,5
 410 146 410 146 529 132 c 1,6,-1
 696 988 l 1,0,1
498 -24 m 1,7,8
 303 -7 303 -7 193 101.5 c 128,-1,9
 83 210 83 210 83 407 c 259,10,11
 83 719 83 719 260 919 c 128,-1,12
 437 1119 437 1119 726 1144 c 1,13,-1
 783 1436 l 1,14,-1
 878 1436 l 1,15,-1
 821 1144 l 1,16,17
 968 1141 968 1141 1092 1078 c 1,18,-1
 1059 906 l 1,19,20
 937 988 937 988 793 991 c 1,21,-1
 621 128 l 1,22,23
 769 133 769 133 924 214 c 1,24,-1
 892 43 l 1,25,26
 773 -13 773 -13 594 -28 c 1,27,-1
 536 -312 l 1,28,-1
 441 -312 l 1,29,-1
 498 -24 l 1,7,8
EndSplineSet
Layer: 2
SplineSet
696 988 m 1
 436 958 284 717 284 423 c 3
 284 248 372 150 529 132 c 1
 696 988 l 1
498 -24 m 1
 245 -2 83 138 83 407 c 3
 83 827 344 1111 726 1144 c 1
 783 1436 l 1
 878 1436 l 1
 821 1144 l 1
 918 1142 1009 1120 1092 1078 c 1
 1059 906 l 1
 977 961 888 989 793 991 c 1
 621 128 l 1
 718 131 819 159 924 214 c 1
 892 43 l 1
 802 1 710 -18 594 -28 c 1
 536 -312 l 1
 441 -312 l 1
 498 -24 l 1
EndSplineSet
EndChar

StartChar: sterling
Encoding: 99 163 133
Width: 1303
VWidth: 3555
Flags: W
HStem: 0 167<-17 220 420 946> 637 142<135 309 536 899> 1361 161<732.321 1109.71>
DStem2: 187.841 0 387.841 0 0.189095 0.981959<207.887 648.418 830.781 1324.84>
LayerCount: 3
Fore
SplineSet
1174 1283 m 1,0,1
 1106 1323 1106 1323 1040 1342 c 128,-1,2
 974 1361 974 1361 917 1361 c 259,3,4
 767 1361 767 1361 692.5 1284.5 c 128,-1,5
 618 1208 618 1208 580 991 c 2,6,-1
 536 779 l 1,7,-1
 929 779 l 1,8,-1
 899 637 l 1,9,-1
 509 637 l 1,10,-1
 420 167 l 1,11,-1
 977 167 l 1,12,-1
 946 0 l 1,13,-1
 -50 0 l 1,14,-1
 -17 167 l 1,15,-1
 220 167 l 1,16,-1
 309 637 l 1,17,-1
 106 637 l 1,18,-1
 135 779 l 1,19,-1
 339 779 l 1,20,-1
 384 1017 l 2,21,22
 434 1276 434 1276 565 1399 c 128,-1,23
 696 1522 696 1522 932 1522 c 259,24,25
 988 1522 988 1522 1061 1505.5 c 128,-1,26
 1134 1489 1134 1489 1205 1462 c 1,27,-1
 1174 1283 l 1,0,1
EndSplineSet
Layer: 2
SplineSet
1174 1283 m 1
 1101 1326 1017 1361 917 1361 c 3
 669 1361 630 1230 580 991 c 2
 536 779 l 1
 929 779 l 1
 899 637 l 1
 509 637 l 1
 420 167 l 1
 977 167 l 1
 946 0 l 1
 -50 0 l 1
 -17 167 l 1
 220 167 l 1
 309 637 l 1
 106 637 l 1
 135 779 l 1
 339 779 l 1
 384 1017 l 2
 443 1328 584 1522 932 1522 c 3
 1025 1522 1129 1491 1205 1462 c 1
 1174 1283 l 1
EndSplineSet
EndChar

StartChar: section
Encoding: 103 167 134
Width: 1022
VWidth: 3555
Flags: W
HStem: -196 146<70.4937 455.611> 1377 145<470.612 837.738>
VStem: 47 169<615.949 834.736> 211 191<1117.22 1309.95> 527 185<17.9075 224.611> 708 171<509.966 727.521>
LayerCount: 3
Fore
SplineSet
384 939 m 1,0,1
 273 866 273 866 244.5 821.5 c 128,-1,2
 216 777 216 777 216 719 c 259,3,4
 216 612 216 612 406 492 c 0,5,6
 455 461 455 461 495 438 c 128,-1,7
 535 415 535 415 543 410 c 1,8,9
 708 514 708 514 708 620 c 259,10,11
 708 734 708 734 486 876 c 0,12,13
 446 902 446 902 384 939 c 1,0,1
-3 24 m 1,14,15
 172 -50 172 -50 278 -50 c 259,16,17
 389 -50 389 -50 458 -5 c 128,-1,18
 527 40 527 40 527 126 c 259,19,20
 527 225 527 225 345 335 c 256,21,22
 172 440 172 440 109.5 512 c 128,-1,23
 47 584 47 584 47 665 c 259,24,25
 47 891 47 891 295 1007 c 1,26,27
 211 1082 211 1082 211 1181 c 259,28,29
 211 1284 211 1284 273 1363.5 c 128,-1,30
 335 1443 335 1443 432 1482.5 c 128,-1,31
 529 1522 529 1522 641 1522 c 259,32,33
 790 1522 790 1522 939 1465 c 1,34,-1
 906 1302 l 1,35,36
 750 1377 750 1377 634 1377 c 259,37,38
 539 1377 539 1377 470.5 1332.5 c 128,-1,39
 402 1288 402 1288 402 1209 c 259,40,41
 402 1126 402 1126 569 1021 c 256,42,43
 762 900 762 900 820.5 826 c 128,-1,44
 879 752 879 752 879 672 c 259,45,46
 879 463 879 463 634 342 c 1,47,48
 674 300 674 300 693 261 c 128,-1,49
 712 222 712 222 712 164 c 259,50,51
 712 56 712 56 649 -27.5 c 128,-1,52
 586 -111 586 -111 486.5 -153.5 c 128,-1,53
 387 -196 387 -196 271 -196 c 259,54,55
 173 -196 173 -196 104.5 -178 c 128,-1,56
 36 -160 36 -160 -35 -139 c 1,57,-1
 -3 24 l 1,14,15
EndSplineSet
Layer: 2
SplineSet
384 939 m 1xe4
 302 885 216 833 216 719 c 3
 216 588 424 480 543 410 c 1
 622 460 708 528 708 620 c 3
 708 736 560 833 384 939 c 1xe4
295 1007 m 1
 248 1049 211 1102 211 1181 c 3
 211 1395 420 1522 641 1522 c 3
 740 1522 840 1503 939 1465 c 1
 906 1302 l 1
 822 1343 739 1377 634 1377 c 3
 517 1377 402 1321 402 1209 c 3
 402 1153 458 1091 569 1021 c 0
 727 922 879 822 879 672 c 3xd4
 879 514 774 411 634 342 c 1
 683 291 712 246 712 164 c 3
 712 -60 500 -196 271 -196 c 3
 156 -196 62 -167 -35 -139 c 1
 -3 24 l 1
 85 -13 172 -50 278 -50 c 3
 419 -50 527 6 527 126 c 3xc8
 527 191 467 261 345 335 c 0
 221 410 47 516 47 665 c 3
 47 832 150 939 295 1007 c 1
EndSplineSet
EndChar

StartChar: bullet
Encoding: 330 8226 135
Width: 1208
VWidth: 3555
Flags: W
HStem: 465 594<466.713 680.833>
VStem: 271 607<660.207 867.29>
LayerCount: 3
Fore
SplineSet
271 696 m 259,0,1
 271 844 271 844 379 951.5 c 128,-1,2
 487 1059 487 1059 634 1059 c 259,3,4
 737 1059 737 1059 807.5 992.5 c 128,-1,5
 878 926 878 926 878 823 c 259,6,7
 878 685 878 685 770.5 575 c 128,-1,8
 663 465 663 465 516 465 c 259,9,10
 413 465 413 465 342 529.5 c 128,-1,11
 271 594 271 594 271 696 c 259,0,1
EndSplineSet
Layer: 2
SplineSet
271 696 m 3
 271 893 438 1059 634 1059 c 3
 769 1059 878 963 878 823 c 3
 878 643 716 465 516 465 c 3
 381 465 271 557 271 696 c 3
EndSplineSet
EndChar

StartChar: paragraph
Encoding: 118 182 136
Width: 1303
VWidth: 3555
Flags: W
HStem: 1373 120<838 1031>
VStem: 391 142<-200 -58> 726 139<-200 -61>
DStem2: 391 -200 533 -200 0.189095 0.981959<26.8516 863.524> 726 -200 865 -200 0.189095 0.981959<26.2843 1602.3>
LayerCount: 3
Fore
SplineSet
1191 1493 m 1,0,-1
 865 -200 l 1,1,-1
 726 -200 l 1,2,-1
 1031 1373 l 1,3,-1
 838 1373 l 1,4,-1
 533 -200 l 1,5,-1
 391 -200 l 1,6,-1
 554 648 l 1,7,8
 381 662 381 662 278 743.5 c 128,-1,9
 175 825 175 825 175 980 c 259,10,11
 175 1133 175 1133 251.5 1251 c 128,-1,12
 328 1369 328 1369 457 1431 c 128,-1,13
 586 1493 586 1493 743 1493 c 2,14,-1
 1191 1493 l 1,0,-1
EndSplineSet
Layer: 2
SplineSet
1191 1493 m 1
 865 -200 l 1
 726 -200 l 1
 1031 1373 l 1
 838 1373 l 1
 533 -200 l 1
 391 -200 l 1
 554 648 l 1
 338 665 175 763 175 980 c 3
 175 1294 429 1493 743 1493 c 2
 1191 1493 l 1
EndSplineSet
EndChar

StartChar: germandbls
Encoding: 159 223 137
Width: 1293
VWidth: 3555
Flags: W
HStem: -28 153<384.493 794.344> 0 21G<10 199.898> 1408 149<559.88 889.001>
VStem: 10 186<0 186> 558 185<756.219 969.746> 892 197<216.696 460.855> 947 175<1187.53 1349.09>
DStem2: 4.60805 -28 190.608 -28 0.189095 0.981959<63.6862 1399.12> 885 675 689 576 0.821109 -0.570771<-199.225 167.241>
LayerCount: 3
Fore
SplineSet
231 1137 m 2,0,1
 270 1338 270 1338 405 1447.5 c 128,-1,2
 540 1557 540 1557 767 1557 c 259,3,4
 1122 1557 1122 1557 1122 1238 c 259,5,6
 1122 1173 1122 1173 1109 1102 c 1,7,8
 919 1093 919 1093 831 1020 c 128,-1,9
 743 947 743 947 743 855 c 259,10,11
 743 781 743 781 835 712 c 2,12,-1
 885 675 l 2,13,14
 1039 561 1039 561 1064 505.5 c 128,-1,15
 1089 450 1089 450 1089 393 c 259,16,17
 1089 209 1089 209 957.5 90.5 c 128,-1,18
 826 -28 826 -28 576 -28 c 259,19,20
 466 -28 466 -28 309 17 c 1,21,-1
 345 184 l 1,22,23
 489 125 489 125 615 125 c 259,24,25
 741 125 741 125 816.5 182 c 128,-1,26
 892 239 892 239 892 350 c 259,27,28
 892 405 892 405 868 436.5 c 128,-1,29
 844 468 844 468 771 519 c 2,30,-1
 689 576 l 2,31,32
 622 622 622 622 590 668.5 c 128,-1,33
 558 715 558 715 558 790 c 259,34,35
 558 960 558 960 669.5 1061 c 128,-1,36
 781 1162 781 1162 946 1191 c 1,37,38
 947 1201 947 1201 947 1220 c 259,39,40
 947 1408 947 1408 733 1408 c 259,41,42
 598 1408 598 1408 520 1335.5 c 128,-1,43
 442 1263 442 1263 417 1134 c 2,44,-1
 196 0 l 1,45,-1
 10 0 l 1,46,-1
 231 1137 l 2,0,1
EndSplineSet
Layer: 2
SplineSet
231 1137 m 2x7a
 282 1399 459 1557 767 1557 c 3
 1004 1557 1122 1451 1122 1238 c 3x7a
 1122 1197 1118 1151 1109 1102 c 1
 934 1094 743 1022 743 855 c 3
 743 806 774 758 835 712 c 2
 885 675 l 2
 981 604 1089 538 1089 393 c 3
 1089 110 865 -28 576 -28 c 3
 477 -28 393 -7 309 17 c 1
 345 184 l 1
 440 145 530 125 615 125 c 3
 775 125 892 196 892 350 c 3xbc
 892 439 849 464 771 519 c 2
 689 576 l 2
 610 630 558 683 558 790 c 3
 558 1023 737 1155 946 1191 c 1
 947 1201 947 1211 947 1220 c 3
 947 1345 876 1408 733 1408 c 3
 546 1408 449 1298 417 1134 c 2
 196 0 l 1
 10 0 l 1
 231 1137 l 2x7a
EndSplineSet
EndChar

StartChar: registered
Encoding: 110 174 138
Width: 2050
VWidth: 3555
Flags: W
HStem: 0 102<649.229 1103.83> 696 101<849 1001.97> 1073 104<903 1181.73> 1384 102<877.134 1331.49>
VStem: 232 101<415.345 856.094> 608 152<339 491> 1205 160<847.428 1047.62> 1646 97<633.134 1077.58>
DStem2: 542.719 0 694.719 0 0.189095 0.981959<373.971 738.145 840.537 1121.77> 1224 562 1052 543 0.381375 -0.92442<-187.924 174.492>
LayerCount: 3
Fore
SplineSet
1094 1384 m 259,0,1
 965 1384 965 1384 821.5 1319.5 c 128,-1,2
 678 1255 678 1255 571 1150.5 c 128,-1,3
 464 1046 464 1046 398.5 905.5 c 128,-1,4
 333 765 333 765 333 619 c 259,5,6
 333 473 333 473 406.5 353.5 c 128,-1,7
 480 234 480 234 601.5 168 c 128,-1,8
 723 102 723 102 868 102 c 259,9,10
 1013 102 1013 102 1156.5 166 c 128,-1,11
 1300 230 1300 230 1407 335.5 c 128,-1,12
 1514 441 1514 441 1580 583.5 c 128,-1,13
 1646 726 1646 726 1646 856 c 259,14,15
 1646 1100 1646 1100 1491 1242 c 128,-1,16
 1336 1384 1336 1384 1094 1384 c 259,0,1
800.5 1412.5 m 128,-1,18
 966 1486 966 1486 1114 1486 c 259,19,20
 1393 1486 1393 1486 1568 1327 c 128,-1,21
 1743 1168 1743 1168 1743 876 c 259,22,23
 1743 718 1743 718 1668.5 549.5 c 128,-1,24
 1594 381 1594 381 1471 261.5 c 128,-1,25
 1348 142 1348 142 1184 71 c 128,-1,26
 1020 0 1020 0 849 0 c 259,27,28
 678 0 678 0 537.5 77.5 c 128,-1,29
 397 155 397 155 314.5 294.5 c 128,-1,30
 232 434 232 434 232 604 c 259,31,32
 232 774 232 774 309 937 c 128,-1,33
 386 1100 386 1100 510.5 1219.5 c 128,-1,17
 635 1339 635 1339 800.5 1412.5 c 128,-1,18
1205 970 m 259,34,35
 1205 1030 1205 1030 1159 1051.5 c 128,-1,36
 1113 1073 1113 1073 1024 1073 c 2,37,-1
 903 1073 l 1,38,-1
 849 797 l 1,39,-1
 970 797 l 2,40,41
 1089 797 1089 797 1147 834.5 c 128,-1,42
 1205 872 1205 872 1205 970 c 259,34,35
1365 995 m 259,43,44
 1365 881 1365 881 1294.5 809.5 c 128,-1,45
 1224 738 1224 738 1113 722 c 1,46,47
 1138 713 1138 713 1163 681 c 128,-1,48
 1188 649 1188 649 1224 562 c 2,49,-1
 1316 339 l 1,50,-1
 1141 339 l 1,51,-1
 1052 543 l 2,52,53
 1013 634 1013 634 994 665 c 128,-1,54
 975 696 975 696 899 696 c 2,55,-1
 832 696 l 1,56,-1
 760 339 l 1,57,-1
 608 339 l 1,58,-1
 771 1177 l 1,59,-1
 1052 1177 l 2,60,61
 1257 1177 1257 1177 1311 1119 c 128,-1,62
 1365 1061 1365 1061 1365 995 c 259,43,44
EndSplineSet
Layer: 2
SplineSet
1113 1384 m 3
 710 1384 333 1016 333 619 c 3
 333 319 580 102 865 102 c 3
 1268 102 1646 469 1646 874 c 3
 1646 1176 1408 1384 1113 1384 c 3
1134 1486 m 3
 1473 1486 1743 1259 1743 902 c 3
 1743 398 1317 0 845 0 c 3
 507 0 232 256 232 604 c 3
 232 1068 676 1486 1134 1486 c 3
1205 970 m 3
 1205 1057 1129 1073 1024 1073 c 2
 903 1073 l 1
 849 797 l 1
 970 797 l 2
 1118 797 1205 832 1205 970 c 3
1365 995 m 3
 1365 837 1255 742 1113 722 c 1
 1166 702 1196 630 1224 562 c 2
 1316 339 l 1
 1141 339 l 1
 1052 543 l 2
 1008 643 1004 696 899 696 c 2
 832 696 l 1
 760 339 l 1
 608 339 l 1
 771 1177 l 1
 1052 1177 l 2
 1227 1177 1365 1144 1365 995 c 3
EndSplineSet
EndChar

StartChar: copyright
Encoding: 105 169 139
Width: 2050
VWidth: 3555
Flags: W
HStem: 0 102<649.229 1103.83> 288 116<796.947 1169.82> 1073 121<902.686 1303.96> 1384 102<877.134 1331.49>
VStem: 232 101<415.345 856.094> 537 164<497.765 853.049> 1646 97<633.134 1077.58>
LayerCount: 3
Fore
SplineSet
1134 1486 m 259,0,1
 1393 1486 1393 1486 1568 1325 c 128,-1,2
 1743 1164 1743 1164 1743 902 c 259,3,4
 1743 718 1743 718 1668.5 549.5 c 128,-1,5
 1594 381 1594 381 1471 261.5 c 128,-1,6
 1348 142 1348 142 1184 71 c 128,-1,7
 1020 0 1020 0 845 0 c 259,8,9
 678 0 678 0 537.5 77.5 c 128,-1,10
 397 155 397 155 314.5 294.5 c 128,-1,11
 232 434 232 434 232 604 c 259,12,13
 232 774 232 774 309 937 c 128,-1,14
 386 1100 386 1100 510.5 1219.5 c 128,-1,15
 635 1339 635 1339 800.5 1412.5 c 128,-1,16
 966 1486 966 1486 1134 1486 c 259,0,1
1113 1384 m 259,17,18
 965 1384 965 1384 821.5 1319.5 c 128,-1,19
 678 1255 678 1255 571 1150.5 c 128,-1,20
 464 1046 464 1046 398.5 905.5 c 128,-1,21
 333 765 333 765 333 619 c 259,22,23
 333 473 333 473 406.5 353.5 c 128,-1,24
 480 234 480 234 601.5 168 c 128,-1,25
 723 102 723 102 865 102 c 259,26,27
 1013 102 1013 102 1156.5 166 c 128,-1,28
 1300 230 1300 230 1407 335.5 c 128,-1,29
 1514 441 1514 441 1580 583.5 c 128,-1,30
 1646 726 1646 726 1646 874 c 259,31,32
 1646 1098 1646 1098 1491 1241 c 128,-1,33
 1336 1384 1336 1384 1113 1384 c 259,17,18
929 288 m 259,34,35
 747 288 747 288 642 376 c 128,-1,36
 537 464 537 464 537 633 c 259,37,38
 537 885 537 885 695.5 1039.5 c 128,-1,39
 854 1194 854 1194 1106 1194 c 259,40,41
 1252 1194 1252 1194 1368 1137 c 1,42,-1
 1344 1007 l 1,43,44
 1239 1073 1239 1073 1092 1073 c 259,45,46
 913 1073 913 1073 807 954.5 c 128,-1,47
 701 836 701 836 701 646 c 259,48,49
 701 526 701 526 773 465 c 128,-1,50
 845 404 845 404 974 404 c 259,51,52
 1081 404 1081 404 1238 472 c 1,53,-1
 1215 349 l 1,54,55
 1053 288 1053 288 929 288 c 259,34,35
EndSplineSet
Layer: 2
SplineSet
1134 1486 m 3
 1473 1486 1743 1259 1743 902 c 3
 1743 398 1317 0 845 0 c 3
 507 0 232 256 232 604 c 3
 232 1068 676 1486 1134 1486 c 3
1113 1384 m 3
 710 1384 333 1016 333 619 c 3
 333 319 580 102 865 102 c 3
 1268 102 1646 469 1646 874 c 3
 1646 1176 1408 1384 1113 1384 c 3
929 288 m 3
 693 288 537 402 537 633 c 3
 537 972 773 1194 1106 1194 c 3
 1203 1194 1291 1175 1368 1137 c 1
 1344 1007 l 1
 1274 1051 1195 1073 1092 1073 c 3
 850 1073 701 895 701 646 c 3
 701 482 806 404 974 404 c 3
 1077 404 1158 437 1238 472 c 1
 1215 349 l 1
 1106 308 1011 288 929 288 c 3
EndSplineSet
EndChar

StartChar: trademark
Encoding: 337 8482 140
Width: 2050
VWidth: 3555
Flags: W
HStem: 1397 96<404 590 705 906>
VStem: 498 113<917 1030> 929 113<917 1030> 1493 115<917 1032>
DStem2: 498 917 611 917 0.189095 0.981959<21.3678 488.737> 929 917 1042 917 0.189095 0.981959<21.3678 510.105> 1208 1493 1134 1397 0.437532 -0.899203<53.9461 283.988> 1333 1238 1337 1099 0.639677 0.768644<0 283.413> 1493 917 1608 917 0.189095 0.981959<21.746 488.737>
LayerCount: 3
Fore
SplineSet
1333 1238 m 1,0,-1
 1550 1493 l 1,1,-1
 1717 1493 l 1,2,-1
 1608 917 l 1,3,-1
 1493 917 l 1,4,-1
 1585 1397 l 1,5,-1
 1337 1099 l 1,6,-1
 1279 1099 l 1,7,-1
 1134 1397 l 1,8,-1
 1042 917 l 1,9,-1
 929 917 l 1,10,-1
 1038 1493 l 1,11,-1
 1208 1493 l 1,12,-1
 1333 1238 l 1,0,-1
906 1397 m 1,13,-1
 705 1397 l 1,14,-1
 611 917 l 1,15,-1
 498 917 l 1,16,-1
 590 1397 l 1,17,-1
 387 1397 l 1,18,-1
 404 1493 l 1,19,-1
 924 1493 l 1,20,-1
 906 1397 l 1,13,-1
EndSplineSet
Layer: 2
SplineSet
1333 1238 m 1
 1550 1493 l 1
 1717 1493 l 1
 1608 917 l 1
 1493 917 l 1
 1585 1397 l 1
 1337 1099 l 1
 1279 1099 l 1
 1134 1397 l 1
 1042 917 l 1
 929 917 l 1
 1038 1493 l 1
 1208 1493 l 1
 1333 1238 l 1
906 1397 m 1
 705 1397 l 1
 611 917 l 1
 498 917 l 1
 590 1397 l 1
 387 1397 l 1
 404 1493 l 1
 924 1493 l 1
 906 1397 l 1
EndSplineSet
EndChar

StartChar: acute
Encoding: 116 180 141
Width: 1022
VWidth: 3555
Flags: W
HStem: 1262 377
VStem: 441 547
LayerCount: 3
Fore
SplineSet
988 1639 m 1,0,-1
 590 1262 l 1,1,-1
 441 1262 l 1,2,-1
 790 1639 l 1,3,-1
 988 1639 l 1,0,-1
EndSplineSet
Layer: 2
SplineSet
988 1639 m 1
 590 1262 l 1
 441 1262 l 1
 790 1639 l 1
 988 1639 l 1
EndSplineSet
EndChar

StartChar: dieresis
Encoding: 104 168 142
Width: 1022
VWidth: 3555
Flags: W
HStem: 1351 203<339 498 729 892>
VStem: 299 199<1351 1550> 339 197<1357 1554> 689 203<1351 1554> 729 203<1351 1554>
LayerCount: 3
Fore
SplineSet
932 1554 m 1,0,-1
 892 1351 l 1,1,-1
 689 1351 l 1,2,-1
 729 1554 l 1,3,-1
 932 1554 l 1,0,-1
536 1554 m 1,4,-1
 498 1351 l 1,5,-1
 299 1351 l 1,6,-1
 339 1554 l 1,7,-1
 536 1554 l 1,4,-1
EndSplineSet
Layer: 2
SplineSet
932 1554 m 1x88
 892 1351 l 1
 689 1351 l 1x90
 729 1554 l 1
 932 1554 l 1x88
536 1554 m 1xa0
 498 1351 l 1
 299 1351 l 1xc0
 339 1554 l 1
 536 1554 l 1xa0
EndSplineSet
EndChar

StartChar: notequal
Encoding: 349 8800 143
Width: 1716
VWidth: 3555
Flags: W
HStem: 352 171<142 404 786 1391> 760 172<220 818 1198 1469>
DStem2: 193 142 299 40 0.710919 0.703274<3.62339 297.691 689.522 878.948 1270.06 1569.1>
LayerCount: 3
Fore
SplineSet
991 932 m 1,0,-1
 1309 1245 l 1,1,-1
 1415 1144 l 1,2,-1
 1198 932 l 1,3,-1
 1500 932 l 1,4,-1
 1469 760 l 1,5,-1
 1031 760 l 1,6,-1
 786 523 l 1,7,-1
 1422 523 l 1,8,-1
 1391 352 l 1,9,-1
 615 352 l 1,10,-1
 299 40 l 1,11,-1
 193 142 l 1,12,-1
 404 352 l 1,13,-1
 109 352 l 1,14,-1
 142 523 l 1,15,-1
 576 523 l 1,16,-1
 818 760 l 1,17,-1
 189 760 l 1,18,-1
 220 932 l 1,19,-1
 991 932 l 1,0,-1
EndSplineSet
Layer: 2
SplineSet
991 932 m 1
 1309 1245 l 1
 1415 1144 l 1
 1198 932 l 1
 1500 932 l 1
 1469 760 l 1
 1031 760 l 1
 786 523 l 1
 1422 523 l 1
 1391 352 l 1
 615 352 l 1
 299 40 l 1
 193 142 l 1
 404 352 l 1
 109 352 l 1
 142 523 l 1
 576 523 l 1
 818 760 l 1
 189 760 l 1
 220 932 l 1
 991 932 l 1
EndSplineSet
EndChar

StartChar: AE
Encoding: 134 198 144
Width: 1992
VWidth: 3555
Flags: W
HStem: 0 167<960 1689> 380 174<373 797> 712 170<1099 1774> 1326 167<854 984 1184 1923>
VStem: -170 205<0 205>
DStem2: -170 0 35 0 0.521704 0.853126<106.949 552.173 755.917 1674.86> 726 0 927.841 0 0.189095 0.981959<208.235 386.57 564.049 762.691 936.62 1361.67>
LayerCount: 3
Fore
SplineSet
1923 1326 m 1,0,-1
 1184 1326 l 1,1,-1
 1099 882 l 1,2,-1
 1809 882 l 1,3,-1
 1774 712 l 1,4,-1
 1062 712 l 1,5,-1
 960 167 l 1,6,-1
 1720 167 l 1,7,-1
 1689 0 l 1,8,-1
 726 0 l 1,9,-1
 797 380 l 1,10,-1
 267 380 l 1,11,-1
 35 0 l 1,12,-1
 -170 0 l 1,13,-1
 743 1493 l 1,14,-1
 1955 1493 l 1,15,-1
 1923 1326 l 1,0,-1
373 554 m 1,16,-1
 832 554 l 1,17,-1
 984 1337 l 1,18,-1
 854 1337 l 1,19,-1
 373 554 l 1,16,-1
EndSplineSet
Layer: 2
SplineSet
1923 1326 m 1
 1184 1326 l 1
 1099 882 l 1
 1809 882 l 1
 1774 712 l 1
 1062 712 l 1
 960 167 l 1
 1720 167 l 1
 1689 0 l 1
 726 0 l 1
 797 380 l 1
 267 380 l 1
 35 0 l 1
 -170 0 l 1
 743 1493 l 1
 1955 1493 l 1
 1923 1326 l 1
373 554 m 1
 832 554 l 1
 984 1337 l 1
 854 1337 l 1
 373 554 l 1
EndSplineSet
EndChar

StartChar: Oslash
Encoding: 152 216 145
Width: 1612
VWidth: 3555
Flags: W
HStem: -28 163<465.082 866.692> 1358 164<685.912 1085.87>
VStem: 59 217<379.111 857.392> 1269 216<669.29 1110.15>
DStem2: -75 17 14 -71 0.72196 0.691935<3.36422 284.274 519.11 1711.35 1949.16 2229.04>
LayerCount: 3
Fore
SplineSet
363 267 m 1,0,1
 465 135 465 135 658 135 c 259,2,3
 938 135 938 135 1103.5 372.5 c 128,-1,4
 1269 610 1269 610 1269 927 c 259,5,6
 1269 1036 1269 1036 1245 1113 c 1,7,-1
 363 267 l 1,0,1
1184 1227 m 1,8,9
 1090 1358 1090 1358 896 1358 c 259,10,11
 599 1358 599 1358 437.5 1105 c 128,-1,12
 276 852 276 852 276 553 c 259,13,14
 276 457 276 457 299 377 c 1,15,-1
 1184 1227 l 1,8,9
1408 1272 m 1,16,17
 1485 1155 1485 1155 1485 971 c 259,18,19
 1485 596 1485 596 1250.5 284 c 128,-1,20
 1016 -28 1016 -28 625 -28 c 259,21,22
 363 -28 363 -28 214 122 c 1,23,-1
 14 -71 l 1,24,-1
 -75 17 l 1,25,-1
 135 220 l 1,26,27
 59 362 59 362 59 549 c 259,28,29
 59 956 59 956 303 1239 c 128,-1,30
 547 1522 547 1522 929 1522 c 259,31,32
 1188 1522 1188 1522 1330 1368 c 1,33,-1
 1536 1561 l 1,34,-1
 1618 1472 l 1,35,-1
 1408 1272 l 1,16,17
EndSplineSet
Layer: 2
SplineSet
363 267 m 1
 431 179 529 135 658 135 c 3
 1044 135 1269 516 1269 927 c 3
 1269 998 1261 1062 1245 1113 c 1
 363 267 l 1
1184 1227 m 1
 1126 1308 1029 1358 896 1358 c 3
 503 1358 276 968 276 553 c 3
 276 488 284 429 299 377 c 1
 1184 1227 l 1
1408 1272 m 1
 1462 1190 1485 1097 1485 971 c 3
 1485 478 1162 -28 625 -28 c 3
 450 -28 313 22 214 122 c 1
 14 -71 l 1
 -75 17 l 1
 135 220 l 1
 84 315 59 425 59 549 c 3
 59 1086 415 1522 929 1522 c 3
 1101 1522 1235 1471 1330 1368 c 1
 1536 1561 l 1
 1618 1472 l 1
 1408 1272 l 1
EndSplineSet
EndChar

StartChar: infinity
Encoding: 346 8734 146
Width: 1706
VWidth: 3555
Flags: W
HStem: 224 146<282.358 530.621 951.759 1208.42> 842 161<380.195 651.208> 858 149<1060.93 1307.34>
VStem: 153 75<432.965 694.508> 1363 77<530.235 792.135>
LayerCount: 3
Fore
SplineSet
1363 676 m 259,0,1
 1363 757 1363 757 1315.5 807.5 c 128,-1,2
 1268 858 1268 858 1191 858 c 259,3,4
 1093 858 1093 858 1014 776.5 c 128,-1,5
 935 695 935 695 845 562 c 1,6,7
 881 474 881 474 933.5 427 c 128,-1,8
 986 380 986 380 1078 380 c 259,9,10
 1197 380 1197 380 1280 466.5 c 128,-1,11
 1363 553 1363 553 1363 676 c 259,0,1
228 547 m 259,12,13
 228 468 228 468 275 419 c 128,-1,14
 322 370 322 370 398 370 c 259,15,16
 502 370 502 370 583.5 455 c 128,-1,17
 665 540 665 540 746 665 c 1,18,19
 676 842 676 842 512 842 c 259,20,21
 390 842 390 842 309 757.5 c 128,-1,22
 228 673 228 673 228 547 c 259,12,13
404 224 m 259,23,24
 292 224 292 224 222.5 307 c 128,-1,25
 153 390 153 390 153 515 c 259,26,27
 153 637 153 637 200.5 748 c 128,-1,28
 248 859 248 859 337.5 931 c 128,-1,29
 427 1003 427 1003 536 1003 c 259,30,31
 627 1003 627 1003 687.5 951 c 128,-1,32
 748 899 748 899 807 740 c 1,33,34
 988 1007 988 1007 1184 1007 c 259,35,36
 1303 1007 1303 1007 1371.5 922 c 128,-1,37
 1440 837 1440 837 1440 708 c 259,38,39
 1440 587 1440 587 1391.5 477.5 c 128,-1,40
 1343 368 1343 368 1252 297.5 c 128,-1,41
 1161 227 1161 227 1052 227 c 259,42,43
 939 227 939 227 883 296 c 128,-1,44
 827 365 827 365 779 484 c 1,45,46
 600 224 600 224 404 224 c 259,23,24
EndSplineSet
Layer: 2
SplineSet
1363 676 m 3xb8
 1363 783 1294 858 1191 858 c 3
 1044 858 940 703 845 562 c 1
 887 459 945 380 1078 380 c 3
 1237 380 1363 513 1363 676 c 3xb8
228 547 m 3
 228 442 297 370 398 370 c 3
 543 370 654 524 746 665 c 1
 699 783 621 842 512 842 c 3xd8
 349 842 228 715 228 547 c 3
404 224 m 3
 252 224 153 352 153 515 c 3
 153 756 309 1003 536 1003 c 3xd8
 698 1003 756 880 807 740 c 1
 928 918 1053 1007 1184 1007 c 3xb8
 1348 1007 1440 873 1440 708 c 3
 1440 468 1279 227 1052 227 c 3
 894 227 835 344 779 484 c 1
 688 352 565 224 404 224 c 3
EndSplineSet
EndChar

StartChar: plusminus
Encoding: 113 177 147
Width: 1716
VWidth: 3555
Flags: W
HStem: 0 167<75 1323> 729 167<214 733 939 1462>
VStem: 658 174<342 516> 842 175<1111 1286>
DStem2: 592.141 0 766.141 0 0.189095 0.981959<381.186 742.484 945.424 1310.05>
LayerCount: 3
Fore
SplineSet
939 896 m 1,0,-1
 1493 896 l 1,1,-1
 1462 729 l 1,2,-1
 906 729 l 1,3,-1
 832 342 l 1,4,-1
 658 342 l 1,5,-1
 733 729 l 1,6,-1
 181 729 l 1,7,-1
 214 896 l 1,8,-1
 764 896 l 1,9,-1
 842 1286 l 1,10,-1
 1017 1286 l 1,11,-1
 939 896 l 1,0,-1
1354 167 m 1,12,-1
 1323 0 l 1,13,-1
 43 0 l 1,14,-1
 75 167 l 1,15,-1
 1354 167 l 1,12,-1
EndSplineSet
Layer: 2
SplineSet
939 896 m 1
 1493 896 l 1
 1462 729 l 1
 906 729 l 1
 832 342 l 1
 658 342 l 1
 733 729 l 1
 181 729 l 1
 214 896 l 1
 764 896 l 1
 842 1286 l 1
 1017 1286 l 1
 939 896 l 1
1354 167 m 1
 1323 0 l 1
 43 0 l 1
 75 167 l 1
 1354 167 l 1
EndSplineSet
EndChar

StartChar: lessequal
Encoding: 350 8804 148
Width: 1716
VWidth: 3555
Flags: W
HStem: 0 167<75 1323>
DStem2: 502 740 167 654 0.957171 -0.289524<0 949.687> 203 828 502 740 0.965208 0.261485<265.586 1317.7>
LayerCount: 3
Fore
SplineSet
502 740 m 1,0,-1
 1411 465 l 1,1,-1
 1377 288 l 1,2,-1
 167 654 l 1,3,-1
 203 828 l 1,4,-1
 1554 1194 l 1,5,-1
 1517 1017 l 1,6,-1
 502 740 l 1,0,-1
1354 167 m 1,7,-1
 1323 0 l 1,8,-1
 43 0 l 1,9,-1
 75 167 l 1,10,-1
 1354 167 l 1,7,-1
EndSplineSet
Layer: 2
SplineSet
502 740 m 1
 1411 465 l 1
 1377 288 l 1
 167 654 l 1
 203 828 l 1
 1554 1194 l 1
 1517 1017 l 1
 502 740 l 1
1354 167 m 1
 1323 0 l 1
 43 0 l 1
 75 167 l 1
 1354 167 l 1
EndSplineSet
EndChar

StartChar: greaterequal
Encoding: 351 8805 149
Width: 1716
VWidth: 3555
Flags: W
HStem: 0 167<75 1323>
DStem2: 132 465 95 288 0.965305 0.261125<0 1048.7> 274 1194 238 1017 0.957104 -0.289744<16.8289 964.224>
LayerCount: 3
Fore
SplineSet
274 1194 m 1,0,-1
 1483 828 l 1,1,-1
 1448 654 l 1,2,-1
 95 288 l 1,3,-1
 132 465 l 1,4,-1
 1144 740 l 1,5,-1
 238 1017 l 1,6,-1
 274 1194 l 1,0,-1
1323 0 m 1,7,-1
 43 0 l 1,8,-1
 75 167 l 1,9,-1
 1354 167 l 1,10,-1
 1323 0 l 1,7,-1
EndSplineSet
Layer: 2
SplineSet
274 1194 m 1
 1483 828 l 1
 1448 654 l 1
 95 288 l 1
 132 465 l 1
 1144 740 l 1
 238 1017 l 1
 274 1194 l 1
1323 0 m 1
 43 0 l 1
 75 167 l 1
 1354 167 l 1
 1323 0 l 1
EndSplineSet
EndChar

StartChar: yen
Encoding: 101 165 150
Width: 1303
VWidth: 3555
Flags: W
HStem: 0 21G<377 579.886> 458 122<68 465 682 1078> 783 123<132 394 899 1137> 1473 20G<193 387.04 1122.29 1330>
VStem: 377 199<0 199> 1137 193<1300 1493>
DStem2: 380 1493 193 1493 0.332535 -0.943091<0 558.25 689.879 737.862> 377 0 576 0 0.189095 0.981959<37.63 466.377 627.21 639.551> 625 797 807 783 0.592977 0.80522<0 96.6487 250.245 864.037>
LayerCount: 3
Fore
SplineSet
665 458 m 1,0,-1
 576 0 l 1,1,-1
 377 0 l 1,2,-1
 465 458 l 1,3,-1
 47 458 l 1,4,-1
 68 580 l 1,5,-1
 488 580 l 1,6,-1
 498 628 l 1,7,-1
 441 783 l 1,8,-1
 106 783 l 1,9,-1
 132 906 l 1,10,-1
 394 906 l 1,11,-1
 193 1493 l 1,12,-1
 380 1493 l 1,13,-1
 625 797 l 1,14,-1
 1137 1493 l 1,15,-1
 1330 1493 l 1,16,-1
 899 906 l 1,17,-1
 1163 906 l 1,18,-1
 1137 783 l 1,19,-1
 807 783 l 1,20,-1
 693 628 l 1,21,-1
 682 580 l 1,22,-1
 1099 580 l 1,23,-1
 1078 458 l 1,24,-1
 665 458 l 1,0,-1
EndSplineSet
Layer: 2
SplineSet
665 458 m 1
 576 0 l 1
 377 0 l 1
 465 458 l 1
 47 458 l 1
 68 580 l 1
 488 580 l 1
 498 628 l 1
 441 783 l 1
 106 783 l 1
 132 906 l 1
 394 906 l 1
 193 1493 l 1
 380 1493 l 1
 625 797 l 1
 1137 1493 l 1
 1330 1493 l 1
 899 906 l 1
 1163 906 l 1
 1137 783 l 1
 807 783 l 1
 693 628 l 1
 682 580 l 1
 1099 580 l 1
 1078 458 l 1
 665 458 l 1
EndSplineSet
EndChar

StartChar: mu
Encoding: 117 181 151
Width: 1303
VWidth: 3555
Flags: W
HStem: -431 21G<-92 98.864> -28 170<305.959 648.014 903.739 1076.28> 1100 20G<206.106 398 966.068 1153>
VStem: -92 187<-431 -244> 210 188<932 1120> 970 183<937 1120>
DStem2: -92 -431 95 -431 0.189095 0.981959<35.3608 604.698 814.971 1580.12> 668.687 -431 848.897 -431 0.189095 0.981959<699.254 1579.99>
LayerCount: 3
Fore
SplineSet
975 206 m 259,0,1
 975 142 975 142 1035 142 c 259,2,3
 1049 142 1049 142 1106 163 c 1,4,-1
 1078 14 l 1,5,6
 991 -28 991 -28 920 -28 c 259,7,8
 786 -28 786 -28 783 128 c 1,9,10
 654 -28 654 -28 458 -28 c 259,11,12
 248 -28 248 -28 203 128 c 1,13,-1
 95 -431 l 1,14,-1
 -92 -431 l 1,15,-1
 210 1120 l 1,16,-1
 398 1120 l 1,17,-1
 264 424 l 2,18,19
 254 375 254 375 254 331 c 259,20,21
 254 132 254 132 476 132 c 259,22,23
 776 132 776 132 842 469 c 2,24,-1
 970 1120 l 1,25,-1
 1153 1120 l 1,26,-1
 981 255 l 2,27,28
 975 227 975 227 975 206 c 259,0,1
EndSplineSet
Layer: 2
SplineSet
975 206 m 3
 975 163 991 142 1035 142 c 3
 1044 142 1068 149 1106 163 c 1
 1078 14 l 1
 1020 -14 967 -28 920 -28 c 3
 831 -28 785 24 783 128 c 1
 697 24 589 -28 458 -28 c 3
 318 -28 233 24 203 128 c 1
 95 -431 l 1
 -92 -431 l 1
 210 1120 l 1
 398 1120 l 1
 264 424 l 2
 257 390 254 359 254 331 c 3
 254 198 328 132 476 132 c 3
 678 132 798 244 842 469 c 2
 970 1120 l 1
 1153 1120 l 1
 981 255 l 2
 977 236 975 220 975 206 c 3
EndSplineSet
EndChar

StartChar: partialdiff
Encoding: 338 8706 152
Width: 1062
VWidth: 3555
Flags: W
HStem: -24 52<203.843 368.369> 736 75<403.452 600.133> 1208 118<582.959 782.156>
VStem: -16 171<104.747 405.473> 804 147<817.08 1161.74>
LayerCount: 3
Fore
SplineSet
465 811 m 259,0,1
 571 811 571 811 625 764.5 c 128,-1,2
 679 718 679 718 700 621 c 1,3,4
 804 931 804 931 804 1068 c 259,5,6
 804 1208 804 1208 696 1208 c 259,7,8
 642 1208 642 1208 559 1149 c 256,9,10
 480 1092 480 1092 437 1092 c 259,11,12
 407 1092 407 1092 387.5 1107.5 c 128,-1,13
 368 1123 368 1123 368 1150 c 259,14,15
 368 1200 368 1200 414 1242 c 0,16,17
 507 1326 507 1326 648 1326 c 259,18,19
 795 1326 795 1326 873 1219.5 c 128,-1,20
 951 1113 951 1113 951 941 c 259,21,22
 951 739 951 739 864 515.5 c 128,-1,23
 777 292 777 292 623 136 c 0,24,25
 550 62 550 62 459 19 c 128,-1,26
 368 -24 368 -24 274 -24 c 259,27,28
 149 -24 149 -24 66.5 57.5 c 128,-1,29
 -16 139 -16 139 -16 267 c 259,30,31
 -16 369 -16 369 25 468.5 c 128,-1,32
 66 568 66 568 132 643 c 128,-1,33
 198 718 198 718 286.5 764.5 c 128,-1,34
 375 811 375 811 465 811 c 259,0,1
634 585 m 259,35,36
 634 736 634 736 505 736 c 259,37,38
 420 736 420 736 337 646.5 c 128,-1,39
 254 557 254 557 204.5 428.5 c 128,-1,40
 155 300 155 300 155 183 c 259,41,42
 155 28 155 28 285 28 c 259,43,44
 355 28 355 28 421.5 83 c 128,-1,45
 488 138 488 138 534 222 c 0,46,47
 634 406 634 406 634 585 c 259,35,36
EndSplineSet
Layer: 2
SplineSet
465 811 m 3
 611 811 673 745 700 621 c 1
 745 755 804 942 804 1068 c 3
 804 1162 768 1208 696 1208 c 3
 659 1208 614 1188 559 1149 c 0
 506 1111 465 1092 437 1092 c 3
 398 1092 368 1113 368 1150 c 3
 368 1257 530 1326 648 1326 c 3
 851 1326 951 1161 951 941 c 3
 951 537 664 -24 274 -24 c 3
 109 -24 -16 94 -16 267 c 3
 -16 544 220 811 465 811 c 3
634 585 m 3
 634 686 591 736 505 736 c 3
 328 736 155 417 155 183 c 3
 155 80 198 28 285 28 c 3
 481 28 634 361 634 585 c 3
EndSplineSet
EndChar

StartChar: summation
Encoding: 341 8721 153
Width: 1378
VWidth: 3555
Flags: W
HStem: -391 188<115 1085> 1283 193<427 1387>
DStem2: -200 -245 115 -203 0.737885 0.674926<260.781 1191.24> 427 1283 125 1299 0.599307 -0.800519<0 730.601>
LayerCount: 3
Fore
SplineSet
1422 1476 m 1,0,-1
 1387 1283 l 1,1,-1
 427 1283 l 1,2,-1
 957 566 l 1,3,-1
 115 -203 l 1,4,-1
 1120 -203 l 1,5,-1
 1085 -391 l 1,6,-1
 -227 -391 l 1,7,-1
 -200 -245 l 1,8,-1
 679 559 l 1,9,-1
 125 1299 l 1,10,-1
 160 1476 l 1,11,-1
 1422 1476 l 1,0,-1
EndSplineSet
Layer: 2
SplineSet
1422 1476 m 1
 1387 1283 l 1
 427 1283 l 1
 957 566 l 1
 115 -203 l 1
 1120 -203 l 1
 1085 -391 l 1
 -227 -391 l 1
 -200 -245 l 1
 679 559 l 1
 125 1299 l 1
 160 1476 l 1
 1422 1476 l 1
EndSplineSet
EndChar

StartChar: product
Encoding: 340 8719 154
Width: 1551
VWidth: 3555
Flags: MW
HStem: 1269 207<462 1219>
VStem: -102 241<-391 -150> 896 241<-391 -150>
DStem2: -102 -391 139 -391 0.189095 0.981959<45.572 1736.7> 896 -391 1137 -391 0.189095 0.981959<45.572 1691.13>
LayerCount: 3
Fore
SplineSet
1500 1476 m 1,0,-1
 1137 -391 l 1,1,-1
 896 -391 l 1,2,-1
 1219 1269 l 1,3,-1
 462 1269 l 1,4,-1
 139 -391 l 1,5,-1
 -102 -391 l 1,6,-1
 260 1476 l 1,7,-1
 1500 1476 l 1,0,-1
EndSplineSet
Layer: 2
SplineSet
1500 1476 m 1
 1137 -391 l 1
 896 -391 l 1
 1219 1269 l 1
 462 1269 l 1
 139 -391 l 1
 -102 -391 l 1
 260 1476 l 1
 1500 1476 l 1
EndSplineSet
EndChar

StartChar: pi
Encoding: 222 960 155
Width: 1208
VWidth: 3555
Flags: W
HStem: -14 146<707.779 835> 917 156<152.018 292 472 800 977 1163>
VStem: 516 189<83.5 334.748>
DStem2: -78 0 99 0 0.376783 0.926301<66.6907 988.828> 641 536 774 431 0.385424 0.92274<-291.005 412.846>
LayerCount: 3
Fore
SplineSet
705 191 m 259,0,1
 705 157 705 157 727 144.5 c 128,-1,2
 749 132 749 132 793 132 c 259,3,4
 840 132 840 132 896 142 c 1,5,-1
 835 0 l 1,6,7
 777 -14 777 -14 722 -14 c 259,8,9
 516 -14 516 -14 516 132 c 259,10,11
 516 219 516 219 555 321.5 c 128,-1,12
 594 424 594 424 641 536 c 2,13,-1
 800 917 l 1,14,-1
 472 917 l 1,15,-1
 99 0 l 1,16,-1
 -78 0 l 1,17,-1
 292 917 l 1,18,-1
 252 917 l 2,19,20
 146 917 146 917 99 779 c 1,21,-1
 -57 779 l 1,22,23
 -8 922 -8 922 72 997.5 c 128,-1,24
 152 1073 152 1073 330 1073 c 2,25,-1
 1227 1073 l 1,26,-1
 1163 917 l 1,27,-1
 977 917 l 1,28,-1
 774 431 l 2,29,30
 732 329 732 329 718.5 283 c 128,-1,31
 705 237 705 237 705 191 c 259,0,1
EndSplineSet
Layer: 2
SplineSet
705 191 m 3
 705 143 739 132 793 132 c 3
 834 132 851 134 896 142 c 1
 835 0 l 1
 798 -9 760 -14 722 -14 c 3
 585 -14 516 35 516 132 c 3
 516 243 572 372 641 536 c 2
 800 917 l 1
 472 917 l 1
 99 0 l 1
 -78 0 l 1
 292 917 l 1
 252 917 l 2
 181 917 130 871 99 779 c 1
 -57 779 l 1
 5 965 86 1073 330 1073 c 2
 1227 1073 l 1
 1163 917 l 1
 977 917 l 1
 774 431 l 2
 718 296 705 253 705 191 c 3
EndSplineSet
EndChar

StartChar: integral
Encoding: 347 8747 156
Width: 1069
VWidth: 3555
Flags: W
HStem: -373 109<-67.5 137.395> 1448 106<807.062 1002.5>
VStem: -178 242<-261.005 -136.75> 871 242<1319.52 1445.11>
DStem2: 339 431 550 523 0.218933 0.97574<-387.126 691.472>
LayerCount: 3
Fore
SplineSet
871 1388 m 257,0,1
 871 1388 871 1388 873 1422 c 257,2,3
 873 1448 873 1448 861 1448 c 259,4,5
 802 1448 802 1448 732.5 1236 c 128,-1,6
 663 1024 663 1024 583 668 c 256,7,8
 572 619 572 619 550 523 c 256,9,10
 440 44 440 44 304 -166 c 256,11,12
 242 -264 242 -264 165 -318.5 c 128,-1,13
 88 -373 88 -373 -24 -373 c 259,14,15
 -91 -373 -91 -373 -134.5 -338 c 128,-1,16
 -178 -303 -178 -303 -178 -242 c 259,17,18
 -178 -174 -178 -174 -135.5 -138 c 128,-1,19
 -93 -102 -93 -102 -24 -102 c 259,20,21
 64 -102 64 -102 64 -186 c 2,22,-1
 64 -220 l 2,23,24
 64 -264 64 -264 82 -264 c 259,25,26
 189 -264 189 -264 339 431 c 256,27,28
 372 590 372 590 373 594 c 256,29,30
 485 1108 485 1108 620 1330 c 256,31,32
 757 1554 757 1554 960 1554 c 259,33,34
 1027 1554 1027 1554 1070 1523 c 128,-1,35
 1113 1492 1113 1492 1113 1434 c 259,36,37
 1113 1363 1113 1363 1074.5 1324.5 c 128,-1,38
 1036 1286 1036 1286 970 1286 c 259,39,40
 871 1286 871 1286 871 1388 c 257,0,1
EndSplineSet
Layer: 2
SplineSet
871 1388 m 3
 871 1398 873 1411 873 1422 c 3
 873 1439 868 1448 861 1448 c 3
 769 1448 664 1029 583 668 c 0
 572 619 561 571 550 523 c 0
 488 255 421 16 304 -166 c 0
 231 -281 137 -373 -24 -373 c 3
 -111 -373 -178 -326 -178 -242 c 3
 -178 -148 -113 -102 -24 -102 c 3
 32 -102 64 -129 64 -186 c 2
 64 -220 l 2
 64 -238 65 -264 82 -264 c 0
 153 -264 239 -32 339 431 c 0
 350 484 361 547 373 594 c 0
 447 935 529 1181 620 1330 c 0
 711 1479 825 1554 960 1554 c 3
 1045 1554 1113 1515 1113 1434 c 3
 1113 1338 1057 1286 970 1286 c 3
 901 1286 871 1323 871 1388 c 3
EndSplineSet
EndChar

StartChar: ordfeminine
Encoding: 106 170 157
Width: 966
VWidth: 3555
Flags: W
HStem: 469 125<75 740> 700 121<291.13 548.22> 1106 113<333.203 715> 1408 114<318.263 700.389>
VStem: 112 155<850.641 1046.73> 736 150<1219.13 1368.19>
LayerCount: 3
Fore
SplineSet
764 594 m 1,0,-1
 740 469 l 1,1,-1
 50 469 l 1,2,-1
 75 594 l 1,3,-1
 764 594 l 1,0,-1
352 700 m 259,4,5
 245 700 245 700 178.5 749.5 c 128,-1,6
 112 799 112 799 112 893 c 259,7,8
 112 1056 112 1056 229.5 1137.5 c 128,-1,9
 347 1219 347 1219 550 1219 c 2,10,-1
 736 1219 l 1,11,-1
 736 1224 l 1,12,13
 741 1251 741 1251 741 1269 c 259,14,15
 741 1408 741 1408 536 1408 c 259,16,17
 419 1408 419 1408 255 1340 c 1,18,-1
 281 1465 l 1,19,20
 437 1522 437 1522 580 1522 c 259,21,22
 886 1522 886 1522 886 1270 c 259,23,24
 886 1225 886 1225 875 1167 c 2,25,-1
 790 719 l 1,26,-1
 641 719 l 1,27,-1
 661 832 l 1,28,29
 542 700 542 700 352 700 c 259,4,5
267 927 m 259,30,31
 267 874 267 874 312 847.5 c 128,-1,32
 357 821 357 821 424 821 c 259,33,34
 532 821 532 821 605 890.5 c 128,-1,35
 678 960 678 960 708 1078 c 2,36,-1
 715 1106 l 1,37,-1
 587 1106 l 2,38,39
 387 1106 387 1106 327 1061 c 128,-1,40
 267 1016 267 1016 267 927 c 259,30,31
EndSplineSet
Layer: 2
SplineSet
764 594 m 1
 740 469 l 1
 50 469 l 1
 75 594 l 1
 764 594 l 1
352 700 m 3
 217 700 112 762 112 893 c 3
 112 1117 290 1219 550 1219 c 2
 736 1219 l 1
 736 1224 l 1
 739 1240 741 1255 741 1269 c 3
 741 1362 672 1408 536 1408 c 3
 428 1408 343 1376 255 1340 c 1
 281 1465 l 1
 385 1503 485 1522 580 1522 c 3
 784 1522 886 1438 886 1270 c 3
 886 1239 882 1204 875 1167 c 2
 790 719 l 1
 641 719 l 1
 661 832 l 1
 582 744 479 700 352 700 c 3
267 927 m 3
 267 851 343 821 424 821 c 3
 573 821 670 927 708 1078 c 2
 715 1106 l 1
 587 1106 l 2
 402 1106 267 1088 267 927 c 3
EndSplineSet
EndChar

StartChar: ordmasculine
Encoding: 122 186 158
Width: 966
VWidth: 3555
Flags: W
HStem: 469 125<75 740> 700 118<339.501 606.727> 1408 114<438.641 696.869>
VStem: 119 161<879.999 1224.82> 761 155<995.021 1343.04>
LayerCount: 3
Fore
SplineSet
764 594 m 1,0,-1
 740 469 l 1,1,-1
 50 469 l 1,2,-1
 75 594 l 1,3,-1
 764 594 l 1,0,-1
441 700 m 259,4,5
 293 700 293 700 206 776 c 128,-1,6
 119 852 119 852 119 994 c 259,7,8
 119 1222 119 1222 252.5 1372 c 128,-1,9
 386 1522 386 1522 601 1522 c 259,10,11
 749 1522 749 1522 832.5 1446.5 c 128,-1,12
 916 1371 916 1371 916 1228 c 259,13,14
 916 999 916 999 786 849.5 c 128,-1,15
 656 700 656 700 441 700 c 259,4,5
761 1203 m 259,16,17
 761 1296 761 1296 711.5 1352 c 128,-1,18
 662 1408 662 1408 576 1408 c 259,19,20
 489 1408 489 1408 420 1352 c 128,-1,21
 351 1296 351 1296 315.5 1209.5 c 128,-1,22
 280 1123 280 1123 280 1026 c 259,23,24
 280 932 280 932 328 875 c 128,-1,25
 376 818 376 818 462 818 c 259,26,27
 553 818 553 818 622.5 873.5 c 128,-1,28
 692 929 692 929 726.5 1016 c 128,-1,29
 761 1103 761 1103 761 1203 c 259,16,17
EndSplineSet
Layer: 2
SplineSet
764 594 m 1
 740 469 l 1
 50 469 l 1
 75 594 l 1
 764 594 l 1
441 700 m 259
 248 700 119 801 119 994 c 3
 119 1293 310 1522 601 1522 c 259
 795 1522 916 1421 916 1228 c 3
 916 928 733 700 441 700 c 259
761 1203 m 3
 761 1326 692 1408 576 1408 c 3
 396 1408 280 1218 280 1026 c 3
 280 903 345 818 462 818 c 3
 651 818 761 1006 761 1203 c 3
EndSplineSet
EndChar

StartChar: Omega
Encoding: 221 937 159
Width: 1567
VWidth: 3555
Flags: W
HStem: 0 177<-68 248 1024 1312> 1340 170<645.294 1065.27>
VStem: 55 211<429.687 910.357> 1257 209<707.277 1148.48>
LayerCount: 3
Fore
SplineSet
266 663 m 259,0,1
 266 338 266 338 536 177 c 1,2,-1
 505 0 l 1,3,-1
 -99 0 l 1,4,-1
 -68 177 l 1,5,-1
 248 177 l 1,6,7
 185 248 185 248 120 348.5 c 128,-1,8
 55 449 55 449 55 640 c 259,9,10
 55 811 55 811 120 970 c 128,-1,11
 185 1129 185 1129 296 1248 c 128,-1,12
 407 1367 407 1367 564.5 1438.5 c 128,-1,13
 722 1510 722 1510 896 1510 c 259,14,15
 1155 1510 1155 1510 1310.5 1365 c 128,-1,16
 1466 1220 1466 1220 1466 968 c 259,17,18
 1466 507 1466 507 1024 177 c 1,19,-1
 1344 177 l 1,20,-1
 1312 0 l 1,21,-1
 712 0 l 1,22,-1
 743 177 l 1,23,24
 954 280 954 280 1063 432 c 128,-1,25
 1172 584 1172 584 1214.5 707.5 c 128,-1,26
 1257 831 1257 831 1257 957 c 259,27,28
 1257 1137 1257 1137 1151 1238.5 c 128,-1,29
 1045 1340 1045 1340 865 1340 c 259,30,31
 691 1340 691 1340 553 1247.5 c 128,-1,32
 415 1155 415 1155 340.5 1001 c 128,-1,33
 266 847 266 847 266 663 c 259,0,1
EndSplineSet
Layer: 2
SplineSet
266 663 m 3
 266 427 377 272 536 177 c 1
 505 0 l 1
 -99 0 l 1
 -68 177 l 1
 248 177 l 1
 129 311 55 429 55 640 c 3
 55 1101 420 1510 896 1510 c 3
 1237 1510 1466 1307 1466 968 c 3
 1466 617 1269 360 1024 177 c 1
 1344 177 l 1
 1312 0 l 1
 712 0 l 1
 743 177 l 1
 1012 308 1257 609 1257 957 c 3
 1257 1199 1102 1340 865 1340 c 3
 509 1340 266 1032 266 663 c 3
EndSplineSet
EndChar

StartChar: ae
Encoding: 166 230 160
Width: 2015
VWidth: 3555
Flags: W
HStem: -28 153<241.967 558.725 1099.63 1573.1> 516 142<1014 1678.01> 566 142<330.429 814> 991 153<324.965 770.9 1232.55 1586.29>
VStem: -1 192<175.104 449.919> 842 172<708 777.739> 1680 185<661.822 894.472>
LayerCount: 3
Fore
SplineSet
1680 746 m 259,0,1
 1680 861 1680 861 1613 926 c 128,-1,2
 1546 991 1546 991 1432 991 c 259,3,4
 1263 991 1263 991 1158 902 c 128,-1,5
 1053 813 1053 813 1014 658 c 1,6,-1
 1672 661 l 1,7,8
 1680 701 1680 701 1680 746 c 259,0,1
628 1144 m 259,9,10
 932 1144 932 1144 1003 963 c 1,11,12
 1184 1144 1184 1144 1458 1144 c 259,13,14
 1644 1144 1644 1144 1754.5 1041.5 c 128,-1,15
 1865 939 1865 939 1865 755 c 259,16,17
 1865 685 1865 685 1849 608 c 2,18,-1
 1831 516 l 1,19,-1
 981 516 l 1,20,21
 974 470 974 470 974 423 c 259,22,23
 974 125 974 125 1302 125 c 259,24,25
 1421 125 1421 125 1519.5 152 c 128,-1,26
 1618 179 1618 179 1727 231 c 1,27,-1
 1696 57 l 1,28,29
 1474 -28 1474 -28 1266 -28 c 259,30,31
 920 -28 920 -28 818 214 c 1,32,33
 618 -28 618 -28 339 -28 c 259,34,35
 179 -28 179 -28 89 37.5 c 128,-1,36
 -1 103 -1 103 -1 241 c 259,37,38
 -1 474 -1 474 154.5 591 c 128,-1,39
 310 708 310 708 583 708 c 2,40,-1
 842 708 l 1,41,42
 852 776 852 776 852 792 c 259,43,44
 852 895 852 895 779 943 c 128,-1,45
 706 991 706 991 583 991 c 259,46,47
 389 991 389 991 203 899 c 1,48,-1
 234 1069 l 1,49,50
 431 1144 431 1144 628 1144 c 259,9,10
191 288 m 259,51,52
 191 208 191 208 244.5 166.5 c 128,-1,53
 298 125 298 125 387 125 c 259,54,55
 557 125 557 125 668 239.5 c 128,-1,56
 779 354 779 354 807 523 c 2,57,-1
 814 566 l 1,58,-1
 634 566 l 2,59,60
 364 566 364 566 277.5 494 c 128,-1,61
 191 422 191 422 191 288 c 259,51,52
EndSplineSet
Layer: 2
SplineSet
1680 746 m 3xde
 1680 900 1583 991 1432 991 c 3
 1198 991 1064 855 1014 658 c 1
 1672 661 l 1
 1678 691 1680 719 1680 746 c 3xde
628 1144 m 3
 810 1144 953 1091 1003 963 c 1
 1111 1071 1257 1144 1458 1144 c 3
 1702 1144 1865 1004 1865 755 c 3
 1865 710 1860 661 1849 608 c 2
 1831 516 l 1
 981 516 l 1xde
 976 483 974 452 974 423 c 3
 974 219 1093 125 1302 125 c 3
 1473 125 1598 169 1727 231 c 1
 1696 57 l 1
 1547 0 1403 -28 1266 -28 c 3
 1035 -28 886 53 818 214 c 1
 685 53 525 -28 339 -28 c 3
 136 -28 -1 50 -1 241 c 3
 -1 561 232 708 583 708 c 2
 842 708 l 1xbe
 846 735 852 766 852 792 c 3
 852 936 737 991 583 991 c 3
 452 991 326 960 203 899 c 1
 234 1069 l 1
 352 1114 482 1144 628 1144 c 3
191 288 m 3
 191 177 274 125 387 125 c 3
 625 125 772 311 807 523 c 2
 814 566 l 1
 634 566 l 2xbe
 370 566 191 524 191 288 c 3
EndSplineSet
EndChar

StartChar: oslash
Encoding: 184 248 161
Width: 1253
VWidth: 3555
Flags: W
HStem: -28 156<317.635 637.563> 991 153<484.868 794.935> 1195 20G<1123.52 1164.49>
VStem: 24 194<319.809 655.073> 895 192<449.532 803.047>
DStem2: -106 -14 -31 -95 0.715303 0.698814<0 242.451 473.762 1278.35 1509.37 1752.97>
LayerCount: 3
Fore
SplineSet
278 210 m 1,0,1
 345 128 345 128 469 128 c 259,2,3
 662 128 662 128 778.5 304.5 c 128,-1,4
 895 481 895 481 895 704 c 259,5,6
 895 761 895 761 882 804 c 1,7,-1
 278 210 l 1,0,1
832 910 m 1,8,9
 770 991 770 991 641 991 c 259,10,11
 520 991 520 991 421.5 906 c 128,-1,12
 323 821 323 821 270.5 687.5 c 128,-1,13
 218 554 218 554 218 407 c 259,14,15
 218 361 218 361 231 319 c 1,16,-1
 832 910 l 1,8,9
75 163 m 1,17,18
 24 260 24 260 24 390 c 259,19,20
 24 601 24 601 99.5 771 c 128,-1,21
 175 941 175 941 323 1042.5 c 128,-1,22
 471 1144 471 1144 668 1144 c 259,23,24
 858 1144 858 1144 974 1049 c 1,25,-1
 1144 1215 l 1,26,-1
 1227 1134 l 1,27,-1
 1042 957 l 1,28,29
 1087 861 1087 861 1087 735 c 259,30,31
 1087 523 1087 523 1011.5 351 c 128,-1,32
 936 179 936 179 787.5 75.5 c 128,-1,33
 639 -28 639 -28 441 -28 c 259,34,35
 245 -28 245 -28 146 75 c 1,36,-1
 -31 -95 l 1,37,-1
 -106 -14 l 1,38,-1
 75 163 l 1,17,18
EndSplineSet
Layer: 2
SplineSet
278 210 m 1
 323 155 386 128 469 128 c 3
 739 128 895 418 895 704 c 3
 895 741 891 774 882 804 c 1
 278 210 l 1
832 910 m 1
 791 964 728 991 641 991 c 3
 391 991 218 700 218 407 c 3
 218 375 223 345 231 319 c 1
 832 910 l 1
75 163 m 1
 41 228 24 303 24 390 c 3
 24 809 263 1144 668 1144 c 3
 795 1144 897 1112 974 1049 c 1
 1144 1215 l 1
 1227 1134 l 1
 1042 957 l 1
 1072 893 1087 819 1087 735 c 3
 1087 314 848 -28 441 -28 c 3
 310 -28 212 6 146 75 c 1
 -31 -95 l 1
 -106 -14 l 1
 75 163 l 1
EndSplineSet
EndChar

StartChar: questiondown
Encoding: 127 191 162
Width: 1086
VWidth: 3555
Flags: W
HStem: -28 163<281.337 629.865> 1241 252<604 757>
VStem: 18 212<187.13 421.942> 554 203<1241 1444> 604 203<1290 1493>
DStem2: 245 621 380 529 0.752577 0.658505<-189.258 371.895> 319.815 -28 506.785 -28 0.189095 0.981959<822.37 1143.05 1328.78 1547.3>
LayerCount: 3
Fore
SplineSet
370 -28 m 259,0,1
 213 -28 213 -28 115.5 44.5 c 128,-1,2
 18 117 18 117 18 255 c 259,3,4
 18 357 18 357 70 435 c 128,-1,5
 122 513 122 513 245 621 c 2,6,-1
 349 712 l 2,7,8
 372 732 372 732 430.5 783 c 128,-1,9
 489 834 489 834 512 970 c 2,10,-1
 533 1095 l 1,11,-1
 722 1095 l 1,12,-1
 693 939 l 2,13,14
 672 829 672 829 624.5 763.5 c 128,-1,15
 577 698 577 698 484 618 c 2,16,-1
 380 529 l 2,17,18
 363 515 363 515 296.5 455 c 128,-1,19
 230 395 230 395 230 293 c 259,20,21
 230 215 230 215 286.5 175 c 128,-1,22
 343 135 343 135 434 135 c 259,23,24
 530 135 530 135 619.5 171.5 c 128,-1,25
 709 208 709 208 814 271 c 1,26,-1
 779 85 l 1,27,28
 580 -28 580 -28 370 -28 c 259,0,1
554 1241 m 1,29,-1
 604 1493 l 1,30,-1
 807 1493 l 1,31,-1
 757 1241 l 1,32,-1
 554 1241 l 1,29,-1
EndSplineSet
Layer: 2
SplineSet
370 -28 m 3xe0
 171 -28 18 64 18 255 c 3
 18 420 130 520 245 621 c 2
 349 712 l 2
 447 797 486 814 512 970 c 2
 533 1095 l 1
 722 1095 l 1
 693 939 l 2
 663 779 590 708 484 618 c 2
 380 529 l 2
 303 464 230 413 230 293 c 3
 230 184 319 135 434 135 c 3
 577 135 706 206 814 271 c 1
 779 85 l 1
 659 17 536 -28 370 -28 c 3xe0
554 1241 m 1xf0
 604 1493 l 1
 807 1493 l 1xe8
 757 1241 l 1
 554 1241 l 1xf0
EndSplineSet
EndChar

StartChar: exclamdown
Encoding: 97 161 163
Width: 824
VWidth: 3555
Flags: W
HStem: 0 21G<132 338.761> 1241 252<420 573>
VStem: 132 203<0 203> 370 203<1241 1444> 420 201<1292 1493>
DStem2: 132 0 335 0 0.189095 0.981959<38.3864 1036.74 1302 1520.52>
LayerCount: 3
Fore
SplineSet
370 1241 m 1,0,-1
 420 1493 l 1,1,-1
 621 1493 l 1,2,-1
 573 1241 l 1,3,-1
 370 1241 l 1,0,-1
132 0 m 1,4,-1
 255 654 l 1,5,-1
 349 1014 l 1,6,-1
 512 1014 l 1,7,-1
 458 654 l 1,8,-1
 335 0 l 1,9,-1
 132 0 l 1,4,-1
EndSplineSet
Layer: 2
SplineSet
370 1241 m 1xf0
 420 1493 l 1
 621 1493 l 1xe8
 573 1241 l 1
 370 1241 l 1xf0
132 0 m 1
 255 654 l 1
 349 1014 l 1
 512 1014 l 1
 458 654 l 1
 335 0 l 1
 132 0 l 1
EndSplineSet
EndChar

StartChar: logicalnot
Encoding: 108 172 164
Width: 1716
VWidth: 3555
Flags: W
HStem: 693 172<210 1286>
VStem: 1208 169<288 457>
DStem2: 1208 288 1377 288 0.189095 0.981959<31.9571 412.443>
LayerCount: 3
Fore
SplineSet
1489 865 m 1,0,-1
 1377 288 l 1,1,-1
 1208 288 l 1,2,-1
 1286 693 l 1,3,-1
 174 693 l 1,4,-1
 210 865 l 1,5,-1
 1489 865 l 1,0,-1
EndSplineSet
Layer: 2
SplineSet
1489 865 m 1
 1377 288 l 1
 1208 288 l 1
 1286 693 l 1
 174 693 l 1
 210 865 l 1
 1489 865 l 1
EndSplineSet
EndChar

